<svg id="Camada_1" data-name="Camada 1" xmlns="http://www.w3.org/2000/svg" viewBox="0 0 200 200"><defs><style>.cls-1{fill:#5abd5c;}.cls-1,.cls-2{fill-rule:evenodd;}.cls-2{fill:#39913b;}</style></defs><path class="cls-1" d="M97.15,74.91c1-7-2.43-8.4-6.38-7.61C90.28,75.36,96.75,72.11,97.15,74.91Z"/><path class="cls-2" d="M95.84,71.93a4.32,4.32,0,0,1,.73,1.51,3.57,3.57,0,0,0-.73-2Zm0-1.65v-.17a1.36,1.36,0,0,1,.37.21,1.06,1.06,0,0,1,.26.33A1.13,1.13,0,0,0,95.84,70.28Zm-1.58-.35a19,19,0,0,1,1.58,2v-.49a11.68,11.68,0,0,0-1.58-2v.49Zm1.58.13v.22a2.15,2.15,0,0,0-.62,0,.53.53,0,0,1,.28-.18.56.56,0,0,1,.34,0Zm-1.58,2.11v-.86l.2-.2a1.32,1.32,0,0,0-.19.61,1.3,1.3,0,0,0,.14.61Zm0-3.34v-.15a1.23,1.23,0,0,1,1.48.4A1.87,1.87,0,0,0,95,68.8,2,2,0,0,0,94.26,68.83ZM93,68.65c.44.4.86.83,1.26,1.27v-.46A10.13,10.13,0,0,0,93,68.36Zm1.26-.83A2.27,2.27,0,0,0,93,67.67v-.21a1.52,1.52,0,0,1,.67,0,1.5,1.5,0,0,1,.59.33Zm0,.85v.15l-.37.06A1.23,1.23,0,0,1,94.26,68.67Zm0,2.63v.86a.45.45,0,0,1-.15-.19.49.49,0,0,1,0-.24.46.46,0,0,1,0-.23A.48.48,0,0,1,94.26,71.3ZM93,71.3v-.19a1.59,1.59,0,0,0,.06.3L93,71.35Zm0-.72V69.8a1.15,1.15,0,0,1,.27-.27A3.3,3.3,0,0,0,93,70.6Zm-1.25-2.91a11,11,0,0,1,1.25,1v-.29a7.48,7.48,0,0,0-1.25-.74v0ZM93,67.46v.21h-.39a.67.67,0,0,1,.39-.26Zm0,2.34v.78a1.93,1.93,0,0,0,0,.48v.24a1.14,1.14,0,0,1-.28-.75A1.16,1.16,0,0,1,93,69.8Zm-1.25.46v-.62a2.28,2.28,0,0,0,.14.82A1.43,1.43,0,0,1,91.75,70.26Zm0-1v-.87A1.12,1.12,0,0,1,92,68.1a3.2,3.2,0,0,0-.21,1.22Zm-.32-1.82.32.19v-.06Zm.32,1v.87a1.93,1.93,0,0,0,0,.34v.62a1.91,1.91,0,0,1-.22-.91,1.94,1.94,0,0,1,.22-.91Z"/><path class="cls-1" d="M160.06,128.4c6.92,1.58,8.58-1.7,8.14-5.7C160.2,121.52,162.87,128.24,160.06,128.4Z"/><path class="cls-2" d="M167.94,123.34c-.11.16-.23.32-.37.49V124A5.32,5.32,0,0,0,167.94,123.34Zm-.37,2.56v-.35a4.7,4.7,0,0,0,0-1.06C167.9,124.7,167.92,125.4,167.57,125.9Zm0-2.07a12.25,12.25,0,0,1-1.49,1.48v.38a8.29,8.29,0,0,0,1.49-1.69Zm0,1.72v.35a1.45,1.45,0,0,1-.26.29A1.34,1.34,0,0,0,167.57,125.55Zm-1.49,1.89a2.53,2.53,0,0,0,.26-1.73,1.28,1.28,0,0,1-.26,1.77Zm0-3.94v-.22a1.55,1.55,0,0,1,.63.16,1.74,1.74,0,0,1,.52.38A3.09,3.09,0,0,0,166.08,123.5Zm0,1.81c-.4.34-.82.67-1.25,1v.39a11.9,11.9,0,0,0,1.25-1v-.38Zm0-2v.22a3.18,3.18,0,0,0-1.15,0,1.79,1.79,0,0,1,1.15-.26Zm0,4.12-.09.06.09-.1Zm-1.25.4v-.48a2.12,2.12,0,0,0,0-.44,1,1,0,0,1,.13.22.72.72,0,0,1,0,.5A.62.62,0,0,1,164.83,127.83Zm0-3.14v-.28a1.48,1.48,0,0,1,.52.22,1.35,1.35,0,0,1,.39.4,3.78,3.78,0,0,0-.91-.37Zm0,1.62c-.46.33-.92.63-1.35.88v.32a12.37,12.37,0,0,0,1.35-.81Zm0-1.9v.28a2.27,2.27,0,0,0-.9,0,1.08,1.08,0,0,1,.42-.23,1.11,1.11,0,0,1,.48,0Zm0,2.94v.48a1,1,0,0,1-.41.29A1.24,1.24,0,0,0,164.83,127.35Zm-1.35-1.5v-.22c.21,0,.39.17.6.45a1.24,1.24,0,0,0-.6-.26Zm0,1.34a5.12,5.12,0,0,1-1.9.79,3.36,3.36,0,0,0,1.9-.47Zm0-1.56v.22a1.76,1.76,0,0,0-.61.07.94.94,0,0,1,.61-.32Z"/><path class="cls-1" d="M150,55.48c4.86-5.17,2.87-8.26-.8-9.9C144.11,51.88,151.26,53,150,55.48Z"/><path class="cls-2" d="M150.86,52.47a10.61,10.61,0,0,0,0-2.39Zm0-3.75a1.15,1.15,0,0,1,.49.07,1.17,1.17,0,0,1,.44.26,1.28,1.28,0,0,1,.29.4,1.21,1.21,0,0,1,.11.49c-.13-.58-.79-.93-1.33-1.19Zm0-1.47V47a1.46,1.46,0,0,1,.87,1.09A2,2,0,0,0,150.86,47.25Zm1,4.32c0-.42-.53-.86-.82-1,.51-.16,1,.38.87,1Zm-2.29-5.39c1,2.18,1.29,6.73.73,7.77a2.89,2.89,0,0,0,.51-1.48V50.11a9.25,9.25,0,0,0-1.24-3.92Zm1.24.84v.23l-.45-.24a.54.54,0,0,1,.22,0,.59.59,0,0,1,.23,0Zm-1.19,4.09V51a1.35,1.35,0,0,1,.36-.07A1.48,1.48,0,0,0,149.62,51.11Zm0-2V49a1.4,1.4,0,0,1,.29,0,1.45,1.45,0,0,0-.29.19Zm0-2.08a3.82,3.82,0,0,0-1.38,1.84,1.85,1.85,0,0,1,.38-1.15,1.92,1.92,0,0,1,1-.7Zm0,1.92v.16a2.8,2.8,0,0,0-1,1.18,1.19,1.19,0,0,1,.2-.86A1.22,1.22,0,0,1,149.62,49Zm0,2v.16a1.31,1.31,0,0,0-.39.73c-.1-.62,0-.84.39-.94Z"/><path class="cls-1" d="M76.13,119.53c-.8,7,2.65,8.33,6.57,7.45C83,118.9,76.6,122.31,76.13,119.53Z"/><path class="cls-2" d="M82,126.8l-.35-.2v.06Zm-.35-.93v-1.76a2.09,2.09,0,0,1,.2.88A2,2,0,0,1,81.69,125.87Zm0,.73a11.39,11.39,0,0,1-1.29-1v.29a6.3,6.3,0,0,0,1.29.73v0Zm0-2.5v1.77a1.42,1.42,0,0,1-.2.28,3.86,3.86,0,0,0,0-2.33,1.73,1.73,0,0,1,.19.28Zm-1.31,2.76v-.21l.45-.07a.52.52,0,0,1-.2.19A.54.54,0,0,1,80.38,126.86Zm0-2.34v-1.47a1.17,1.17,0,0,1,.26.74A1.12,1.12,0,0,1,80.38,124.52Zm0,1.12c-.44-.38-.88-.8-1.3-1.24v.45a11.28,11.28,0,0,0,1.3,1.08Zm0-2.59v1.47a1,1,0,0,1-.26.27,3,3,0,0,0,.17-1.84Zm0,3.6v.21a1.56,1.56,0,0,1-.68,0,1.42,1.42,0,0,1-.58-.34A1.89,1.89,0,0,0,80.38,126.65Zm-1.3-.93v-.18l.44-.08A1.5,1.5,0,0,1,79.08,125.72Zm0-2.66v-.84a.61.61,0,0,1,.17.19.57.57,0,0,1,.06.25.42.42,0,0,1,0,.25.53.53,0,0,1-.16.2Zm0,1.34a17.28,17.28,0,0,1-1.55-1.87V123a11.36,11.36,0,0,0,1.55,1.84Zm0-2.18v.89a1.8,1.8,0,0,1-.19.2,1.26,1.26,0,0,0,.16-.61,1.32,1.32,0,0,0-.16-.61l.17.18Zm0,3.32v.18a1.23,1.23,0,0,1-.78,0,1.19,1.19,0,0,1-.63-.45,1.53,1.53,0,0,0,.68.26A1.64,1.64,0,0,0,79.08,125.54Zm-1.55-1.2v-.23a2.22,2.22,0,0,0,.63,0,.56.56,0,0,1-.27.21.57.57,0,0,1-.34,0Zm0-1.81a4.56,4.56,0,0,1-.81-1.54,3.68,3.68,0,0,0,.81,2v-.46Zm0,1.6v.21a1,1,0,0,1-.37-.19.93.93,0,0,1-.26-.33,1.05,1.05,0,0,0,.65.29Z"/><path class="cls-1" d="M31.74,80.82c6.35,3.17,8.73.37,9.25-3.61C33.5,74.17,34.51,81.33,31.74,80.82Z"/><path class="cls-2" d="M40.59,77.76a7.23,7.23,0,0,1-.89.68v.2A5.7,5.7,0,0,0,40.59,77.76Zm-.89,2.33v-.25a5.7,5.7,0,0,0,.28-1c.24.26.12.88-.28,1.29Zm0-2.1v-.08l.09.15Zm0,.45a10.18,10.18,0,0,1-1,.6v.3a8.55,8.55,0,0,0,1-.7Zm0-.53V78a4.17,4.17,0,0,0-1-.53v-.22A1.86,1.86,0,0,1,39.7,77.91Zm0,1.93v.27a1,1,0,0,1-.4.29A1.21,1.21,0,0,0,39.7,79.84Zm-1-.8c-.28.15-.57.29-.87.43v.35q.45-.22.87-.48Zm0-1.8v.22a4.41,4.41,0,0,0-.87-.21v-.07A1.83,1.83,0,0,1,38.7,77.24Zm-.87,4.06a2.51,2.51,0,0,0,.65-1.61,1.28,1.28,0,0,1,0,1,1.24,1.24,0,0,1-.66.69Zm0-2.63v-.23a1.41,1.41,0,0,1,.22.42Zm0,.8a6.65,6.65,0,0,1-.61.27v.37l.61-.28v-.35Zm0-2.29v.07h-.22Zm0,1.26v.23a3.81,3.81,0,0,0-.61-.37V78A1.41,1.41,0,0,1,37.83,78.44Zm-.61,1.3c-.26.11-.51.22-.77.31v.34l.77-.29Zm0-1.74v.3a2.29,2.29,0,0,0-.77-.23,1,1,0,0,1,.38-.07,1,1,0,0,1,.39.07Zm-.77,3.4v-.2a2.25,2.25,0,0,0,.33-.72.77.77,0,0,1,.07.26.59.59,0,0,1,0,.27.72.72,0,0,1-.14.24A.66.66,0,0,1,36.45,81.4Zm0-1.35c-.28.11-.55.21-.82.29v.3c.27-.07.54-.15.82-.25Zm0-2h0Zm0,3.16v.2a.79.79,0,0,1-.41.15A.87.87,0,0,0,36.45,81.21Zm-.82-2.1V78.9c.26,0,.41.23.57.6A1.49,1.49,0,0,0,35.63,79.11Zm0,1.24a5.9,5.9,0,0,1-2.31.41,3.88,3.88,0,0,0,2.31-.11Zm0-1.45v.21a1.82,1.82,0,0,0-.57,0,1.14,1.14,0,0,1,.57-.22Z"/><path class="cls-1" d="M44.67,148.34c7,.82,8.34-2.62,7.47-6.54C44.07,141.49,47.45,147.88,44.67,148.34Z"/><path class="cls-2" d="M52,142.45l-.16.29v.12C51.86,142.72,51.91,142.59,52,142.45Zm-.16,2.71V145a3.32,3.32,0,0,0,0-.89v-.38a1.27,1.27,0,0,1,.25.74A1.22,1.22,0,0,1,51.8,145.16Zm0-2.42a11.94,11.94,0,0,1-1.09,1.45v.4a8.15,8.15,0,0,0,1.09-1.73Zm0,.94v.43a3,3,0,0,0-.06-.42h.06Zm0,1.27v.21l-.16.2A1.13,1.13,0,0,0,51.8,145Zm-1.09,1.61v-.3a3.14,3.14,0,0,0,0-.75v-.4a1.26,1.26,0,0,1,.24.74,1.21,1.21,0,0,1-.24.74Zm0-3.7v-.18a1.42,1.42,0,0,1,.6.33A2.11,2.11,0,0,0,50.71,142.86Zm0,1.33c-.18.2-.37.41-.57.61v.43c.2-.2.39-.42.57-.64Zm0-1.51v.18a5.42,5.42,0,0,0-.57,0v-.22a2.24,2.24,0,0,1,.57.08Zm0,2.4v.43a3.44,3.44,0,0,0-.09-.56Zm0,1.18v.3a1.81,1.81,0,0,1-.24.24A1.15,1.15,0,0,0,50.71,146.26Zm-.57-1.46c-.35.37-.73.73-1.11,1.06v.42a11.65,11.65,0,0,0,1.11-1v-.48Zm0-2.2v.22A3.46,3.46,0,0,0,49,143a1.89,1.89,0,0,1,1.11-.34ZM49,147.53a1.75,1.75,0,0,0,.27-1.2c.37.28.24.92-.27,1.23Zm0-3.42v-.28a1.34,1.34,0,0,1,.51.17,1.39,1.39,0,0,1,.41.35A3.78,3.78,0,0,0,49,144.11Zm0,1.75c-.42.36-.84.7-1.22,1v.25a11.31,11.31,0,0,0,1.22-.87v-.38Zm0-2v.28a2.38,2.38,0,0,0-.92.06,1.11,1.11,0,0,1,.42-.28A1.06,1.06,0,0,1,49,143.83Zm0,3.67H49l.06-.06Zm-1.22-2.1v-.22a1,1,0,0,1,.61.39A1.47,1.47,0,0,0,47.81,145.4Zm0,1.44a4.78,4.78,0,0,1-1.68.89,3,3,0,0,0,1.68-.58Zm0-1.66v.22a1.61,1.61,0,0,0-.61.15,1,1,0,0,1,.26-.25A1.12,1.12,0,0,1,47.81,145.18Z"/><path class="cls-1" d="M80,34.58c6.92,1.58,8.58-1.7,8.14-5.69C80.13,27.7,82.8,34.43,80,34.58Z"/><path class="cls-2" d="M87.87,29.52c-.12.17-.24.34-.37.49v.17A5.32,5.32,0,0,0,87.87,29.52Zm-.37,2.57v-.35a4.7,4.7,0,0,0,0-1.06c.33.2.35.9,0,1.43Zm0-2.08A11,11,0,0,1,86,31.49v.39a8.62,8.62,0,0,0,1.49-1.7Zm0,1.73v.37a1.39,1.39,0,0,1-.26.28,1.3,1.3,0,0,0,.26-.63ZM86,33.62a2.5,2.5,0,0,0,.26-1.72,1.26,1.26,0,0,1,.23.94,1.28,1.28,0,0,1-.49.82Zm0-3.94v-.22a1.69,1.69,0,0,1,1.15.54A3.09,3.09,0,0,0,86,29.68Zm0,1.81c-.4.34-.82.67-1.25,1v.4a13,13,0,0,0,1.25-1V31.5Zm0-2v.22a3.7,3.7,0,0,0-1.15,0A1.85,1.85,0,0,1,86,29.45Zm0,4.12-.09.06.09-.1Zm-1.25.4v-.47a2.3,2.3,0,0,0,0-.45,1,1,0,0,1,.13.22.72.72,0,0,1,0,.5A.62.62,0,0,1,84.76,34Zm0-3.14v-.28a1.48,1.48,0,0,1,.52.22,1.35,1.35,0,0,1,.39.4,3.78,3.78,0,0,0-.91-.37Zm0,1.62c-.46.33-.92.64-1.35.89v.31a10.88,10.88,0,0,0,1.35-.8Zm0-1.9v.28a2.27,2.27,0,0,0-.9,0,1.06,1.06,0,0,1,.42-.22,1,1,0,0,1,.48,0Zm0,2.95V34a1,1,0,0,1-.41.29A1.22,1.22,0,0,0,84.76,33.54ZM83.38,32v-.22c.21,0,.39.17.6.46A1.36,1.36,0,0,0,83.38,32Zm0,1.35a5.12,5.12,0,0,1-1.9.79,3.45,3.45,0,0,0,1.9-.48Zm0-1.57V32a1.77,1.77,0,0,0-.61.08A1,1,0,0,1,83.38,31.78Z"/><path class="cls-1" d="M118.62,165.28c-7-1.44-8.54,1.87-8,5.86C118.62,172.16,115.81,165.49,118.62,165.28Z"/><path class="cls-2" d="M115.26,166.57a5,5,0,0,1,1.86-.81,3.28,3.28,0,0,0-1.86.5Zm0,1.58v-.22a1.57,1.57,0,0,0,.6-.09.92.92,0,0,1-.6.27Zm-1.34-.68c.46-.34.91-.64,1.34-.9v-.31a10.6,10.6,0,0,0-1.34.81Zm1.34.46v.18c-.21,0-.39-.17-.61-.44a1.22,1.22,0,0,0,.61.22Zm-1.34,1.47v-.29a2.32,2.32,0,0,0,.91,0,1.22,1.22,0,0,1-.43.24,1,1,0,0,1-.48,0Zm0-3.15v-.34a1.11,1.11,0,0,1,.36-.23A1.06,1.06,0,0,0,113.92,166.25Zm-1.22,2.21c.39-.34.81-.68,1.22-1v-.35a11.8,11.8,0,0,0-1.22,1v.35Zm1.22-2.55v.34a2.37,2.37,0,0,0-.09.65.72.72,0,0,1-.14-.24.65.65,0,0,1,0-.28.61.61,0,0,1,.08-.26.55.55,0,0,1,.18-.22Zm0,3.2v.29a1.39,1.39,0,0,1-.52-.21,1.32,1.32,0,0,1-.38-.4A2.85,2.85,0,0,0,113.92,169.11Zm-1.22,1.41v-.22a3,3,0,0,0,1.15-.07A1.69,1.69,0,0,1,112.7,170.52Zm-1.53-.48a12,12,0,0,1,1.53-1.58v-.35a8.54,8.54,0,0,0-1.53,1.81V170Zm1.53-3.73a2.28,2.28,0,0,0-.35.87,2.24,2.24,0,0,0,0,.93,1.22,1.22,0,0,1-.25-1,1.18,1.18,0,0,1,.19-.48,1.16,1.16,0,0,1,.36-.37Zm0,4v.22a1.65,1.65,0,0,1-1.16-.52A3.31,3.31,0,0,0,112.7,170.31Zm-1.53-2v-.38a1.27,1.27,0,0,1,.25-.27,1.24,1.24,0,0,0-.25.63Zm-.33,2.21c.1-.15.21-.3.33-.46v-.16C111.05,170.1,110.94,170.31,110.84,170.52Zm.33-2.59v.38a4.18,4.18,0,0,0,0,1c-.32-.2-.35-.88,0-1.4Z"/><path class="cls-1" d="M135.71,110.26c-7.06.77-7.55,4.41-5.83,8C137.82,116.81,133.1,111.33,135.71,110.26Z"/><path class="cls-2" d="M133.27,112.11a4,4,0,0,1,1.15-.93,2.54,2.54,0,0,0-1.15.62Zm0,1.94v-.22a1.5,1.5,0,0,0,.6-.28C133.66,113.9,133.48,114.05,133.27,114.05Zm-1.71.26a16.42,16.42,0,0,1,1.71-2.2v-.31a9.51,9.51,0,0,0-1.71,1.93Zm1.71-.48v.22a1.2,1.2,0,0,1-.6-.26,1.22,1.22,0,0,0,.6,0Zm0,1.27a1.27,1.27,0,0,1-.79.52,1.16,1.16,0,0,1-.49,0,1.06,1.06,0,0,1-.43-.2v-.06a3,3,0,0,0,1.71-.25Zm-1.71,2v-.22a3.11,3.11,0,0,0,1.13-.43A1.84,1.84,0,0,1,131.56,117.1Zm0-3.87v-.31a1.45,1.45,0,0,0,.08.36h-.08Zm0-1v-.12a1.59,1.59,0,0,1,.13-.13.58.58,0,0,0-.13.3Zm-1.18,4.13a16.14,16.14,0,0,1,1.18-2v-.58a11.66,11.66,0,0,0-1.18,2.13v.45Zm1.18-4.25v.17a1.38,1.38,0,0,0,0,.64v.31a.72.72,0,0,1-.18-.25.81.81,0,0,1-.06-.31.77.77,0,0,1,.24-.56Zm0,3.24v.06l-.11-.08h.11Zm0,1.53v.23a1.61,1.61,0,0,1-1.14-.16,3.65,3.65,0,0,0,1.14-.06Zm-1.18-2.27v-.43c.08.25.19.49.28.71A1.24,1.24,0,0,1,130.38,114.61Zm-.47,3a8.32,8.32,0,0,1,.47-1.26v-.5A6.46,6.46,0,0,0,129.91,117.62Zm.47-4.51a1.49,1.49,0,0,0,0,1.1v.43a1.2,1.2,0,0,1-.28-.77,1.22,1.22,0,0,1,.28-.77Zm-.8,1.65c-.23.55.17,1.39.28,1.7a1.28,1.28,0,0,1-.28-1.74Z"/></svg>