<svg id="Camada_1" data-name="Camada 1" xmlns="http://www.w3.org/2000/svg" viewBox="0 0 200 200"><defs><style>.cls-1{fill:#ffc41f;fill-rule:evenodd;}</style></defs><path class="cls-1" d="M158.46,44.46c6,4.71,8.74,4.08,11.87,15.6s6.19,6.41,8.75,17.59,1,12.54.52,20.37,5.79,9.64,1.88,16.17-1.47,5.68-3.79,8.91,1.08,5.28-2.33,9-6.29,6.64-10.38,11.53-2.83,11.8-7.25,15.32-7.21,5-14,9.77-9.64,9.66-21.78,13.18-10.45-5.1-20-2.71-15,4.49-22.13,2.17-9.09-5.45-13.06-5.9-9.71-5-12.71-6.46-4.61-7.77-10.11-11.46-11.07-4.7-16.7-12.7-1.17-12.7-3.69-18.81-6.14-9.08-6.31-14.58,4.88-5.57,4.25-11-2.9-6.75-2.56-11.18,2.66-9.59,4.19-14.07-3.41-5.9,2.38-15.56,8.57-9.1,12.57-14.43S43.29,37.14,47.54,32s1.19-2,9.87-3,11.12-3.75,14.07-7.38,6.7,1.69,9.77.44,5-3.18,11.17-4.49,5.06,1.87,10.84,1.87,14.76-2.73,19.58-1.77,6.82,6,11.87,9.81,10.73-.52,16.06,5.38S152.07,39.44,158.46,44.46Z"/></svg>