<svg id="Camada_1" data-name="Camada 1" xmlns="http://www.w3.org/2000/svg" viewBox="0 0 200 200"><defs><style>.cls-1{fill:#ffebb5;}.cls-1,.cls-2{fill-rule:evenodd;}.cls-2{fill:#f7df9e;}</style></defs><path class="cls-1" d="M103.71,32.61c18.83,0,25.78,24.39,0,24.39C78.64,57,84.89,32.61,103.71,32.61Z"/><path class="cls-2" d="M103.73,33.9c15.93,0,21.82,20.53,0,20.53C82.52,54.43,87.8,33.9,103.73,33.9Z"/><path class="cls-1" d="M128.75,102.25c10.3,15.46-5.23,34.58-19.34,13.36C95.7,95,118.45,86.77,128.75,102.25Z"/><path class="cls-2" d="M127.78,102.53c9.32,13.53-4.74,30.24-17.49,11.7C97.88,96.2,118.49,89,127.78,102.53Z"/><path class="cls-1" d="M50.46,56.38c10.29,16.11-5.23,36-19.38,13.92C17.43,48.8,40.17,40.27,50.46,56.38Z"/><path class="cls-2" d="M49.49,57.59C58.81,71.14,44.75,87.86,32,69.3,19.58,51.26,40.17,44.08,49.49,57.59Z"/><path class="cls-1" d="M51.73,153c-19.38,3.1-30.67-19.36-4.15-23.61C73.42,125.17,71.13,149.85,51.73,153Z"/><path class="cls-2" d="M51.38,151.74c-16.55,2.62-26.13-16.32-3.52-19.9C69.84,128.36,67.89,149.12,51.38,151.74Z"/><path class="cls-1" d="M113.7,163c-15-12.14-5.35-36.12,15.17-19.47C148.82,159.73,128.68,175.18,113.7,163Z"/><path class="cls-2" d="M115.06,161.26c-12.49-10.08-4.47-29.87,12.63-16.13C144.32,158.48,127.54,171.22,115.06,161.26Z"/><path class="cls-1" d="M165.16,98.13c-15.88,11.16-36.4-4.37-14.65-19.65C171.71,63.64,181.08,87,165.16,98.13Z"/><path class="cls-2" d="M163.89,96.25c-13.37,9.13-30.59-3.57-12.32-16.07C169.36,68,177.25,87.13,163.89,96.25Z"/><path class="cls-1" d="M70.51,87.49c13-13.72,35.57-2.56,17.8,16.24C71,122,57.55,101.22,70.51,87.49Z"/><path class="cls-2" d="M72.18,89.27c10.71-12,29.38-2.23,14.71,14.09C72.61,119.3,61.47,101.21,72.18,89.27Z"/></svg>