<svg id="Camada_1" data-name="Camada 1" xmlns="http://www.w3.org/2000/svg" viewBox="0 0 200 200"><defs><style>.cls-1{fill:#f50000;}.cls-1,.cls-2,.cls-3{fill-rule:evenodd;}.cls-2,.cls-4{fill:#ff4f4f;}.cls-3,.cls-5{fill:#c00;}</style></defs><path class="cls-1" d="M91.2,47a22.54,22.54,0,1,1,1.45,8.67A22.5,22.5,0,0,1,91.2,47Z"/><path class="cls-2" d="M116.72,50.09a2.41,2.41,0,0,1,.44-1.29,2.33,2.33,0,0,1,3.59-.24,2.43,2.43,0,0,1,.6,1.21,2.28,2.28,0,0,1-.17,1.34,2.35,2.35,0,0,1-2.2,1.38,2.27,2.27,0,0,1-.88-.21,2.15,2.15,0,0,1-.74-.53,2.3,2.3,0,0,1-.49-.77A2.45,2.45,0,0,1,116.72,50.09Z"/><path class="cls-2" d="M94.59,49.64A2.41,2.41,0,0,1,95,48.35a2.33,2.33,0,0,1,3.59-.24,2.43,2.43,0,0,1,.6,1.21,2.28,2.28,0,0,1-.17,1.34A2.35,2.35,0,0,1,96.85,52a2.27,2.27,0,0,1-.88-.21,2.15,2.15,0,0,1-.74-.53,2.3,2.3,0,0,1-.49-.77A2.45,2.45,0,0,1,94.59,49.64Z"/><path class="cls-2" d="M101.55,60.59a2.35,2.35,0,0,1,.44-1.28,2.28,2.28,0,0,1,1.07-.82,2.23,2.23,0,0,1,1.35-.09,2.3,2.3,0,0,1,1.17.67,2.35,2.35,0,0,1,.6,1.21,2.27,2.27,0,0,1-.17,1.34,2.32,2.32,0,0,1-3.09,1.17,2.15,2.15,0,0,1-.74-.53,2.38,2.38,0,0,1-.48-.77A2.33,2.33,0,0,1,101.55,60.59Z"/><path class="cls-2" d="M112.45,30a2.35,2.35,0,0,1,.44-1.28,2.28,2.28,0,0,1,1.07-.82,2.23,2.23,0,0,1,1.35-.09,2.3,2.3,0,0,1,1.17.67,2.35,2.35,0,0,1,.6,1.21,2.27,2.27,0,0,1-.17,1.34,2.32,2.32,0,0,1-3.09,1.17,2.15,2.15,0,0,1-.74-.53,2.38,2.38,0,0,1-.48-.77A2.33,2.33,0,0,1,112.45,30Z"/><path class="cls-2" d="M129,49.76a2.38,2.38,0,0,1,.44-1.29,2.3,2.3,0,0,1,1.07-.83,2.34,2.34,0,0,1,1.36-.09,2.32,2.32,0,0,1,1.18.68,2.24,2.24,0,0,1,.6,1.22,2.29,2.29,0,0,1-.18,1.34,2.35,2.35,0,0,1-.89,1,2.44,2.44,0,0,1-1.32.35A2.36,2.36,0,0,1,129,49.76Z"/><path class="cls-2" d="M113.1,64.71a2.35,2.35,0,0,1,1.51-2.13,2.33,2.33,0,0,1,1.36-.09,2.37,2.37,0,0,1,1.18.67,2.46,2.46,0,0,1,.6,1.22,2.24,2.24,0,0,1-.18,1.35,2.4,2.4,0,0,1-.89,1,2.44,2.44,0,0,1-1.32.35,2.34,2.34,0,0,1-1.62-.74A2.39,2.39,0,0,1,113.1,64.71Z"/><path class="cls-2" d="M105.24,38.29a2.48,2.48,0,0,1,.43-1.29,2.37,2.37,0,0,1,1.08-.82,2.34,2.34,0,0,1,2.52.58,2.43,2.43,0,0,1,.6,1.21,2.28,2.28,0,0,1-.17,1.34,2.32,2.32,0,0,1-3.82.64A2.39,2.39,0,0,1,105.24,38.29Z"/><path class="cls-2" d="M107.2,51.33a2.34,2.34,0,0,1,2.87-2.22,2.37,2.37,0,0,1,1.18.67,2.46,2.46,0,0,1,.6,1.22,2.24,2.24,0,0,1-.18,1.35,2.4,2.4,0,0,1-.89,1,2.44,2.44,0,0,1-1.32.35,2.34,2.34,0,0,1-1.62-.74A2.39,2.39,0,0,1,107.2,51.33Z"/><path class="cls-2" d="M121.52,37.84a2.35,2.35,0,0,1,.44-1.28,2.28,2.28,0,0,1,1.07-.82,2.23,2.23,0,0,1,1.35-.09,2.3,2.3,0,0,1,1.17.67,2.35,2.35,0,0,1,.6,1.22,2.29,2.29,0,0,1-.17,1.34,2.36,2.36,0,0,1-2.2,1.37,2.32,2.32,0,0,1-.89-.21,2.15,2.15,0,0,1-.74-.53,2.38,2.38,0,0,1-.48-.77A2.33,2.33,0,0,1,121.52,37.84Z"/><path class="cls-2" d="M117.45,57a2.41,2.41,0,0,1,.44-1.29,2.33,2.33,0,0,1,3.59-.24,2.43,2.43,0,0,1,.6,1.21,2.28,2.28,0,0,1-.17,1.34,2.35,2.35,0,0,1-2.2,1.38,2.27,2.27,0,0,1-.88-.21,2.15,2.15,0,0,1-.74-.53,2.3,2.3,0,0,1-.49-.77A2.45,2.45,0,0,1,117.45,57Z"/><path class="cls-2" d="M94.09,41.57a2.41,2.41,0,0,1,.44-1.29A2.33,2.33,0,0,1,98.12,40a2.43,2.43,0,0,1,.6,1.21,2.28,2.28,0,0,1-.17,1.34A2.35,2.35,0,0,1,96.35,44a2.27,2.27,0,0,1-.88-.21,2.15,2.15,0,0,1-.74-.53,2.3,2.3,0,0,1-.49-.77A2.45,2.45,0,0,1,94.09,41.57Z"/><path class="cls-3" d="M122.63,59.42a2.35,2.35,0,0,1,.44-1.28,2.28,2.28,0,0,1,1.07-.82,2.23,2.23,0,0,1,1.35-.09,2.3,2.3,0,0,1,1.17.67,2.35,2.35,0,0,1,.6,1.21,2.27,2.27,0,0,1-.17,1.34A2.32,2.32,0,0,1,124,61.62a2.15,2.15,0,0,1-.74-.53,2.38,2.38,0,0,1-.48-.77A2.33,2.33,0,0,1,122.63,59.42Z"/><path class="cls-3" d="M98.71,35.08a2.35,2.35,0,0,1,.44-1.28,2.28,2.28,0,0,1,1.07-.82,2.23,2.23,0,0,1,1.35-.09,2.3,2.3,0,0,1,1.17.67,2.35,2.35,0,0,1,.6,1.22,2.29,2.29,0,0,1-.17,1.34,2.36,2.36,0,0,1-2.2,1.37,2.32,2.32,0,0,1-.89-.21,2.15,2.15,0,0,1-.74-.53,2.38,2.38,0,0,1-.48-.77A2.33,2.33,0,0,1,98.71,35.08Z"/><path class="cls-3" d="M96,55.53a2.41,2.41,0,0,1,.44-1.29,2.33,2.33,0,0,1,3.59-.24,2.43,2.43,0,0,1,.6,1.21,2.28,2.28,0,0,1-.17,1.34,2.32,2.32,0,0,1-3.82.64A2.39,2.39,0,0,1,96,55.53Z"/><path class="cls-3" d="M111.25,58.21a2.35,2.35,0,0,1,1.51-2.13,2.33,2.33,0,0,1,1.36-.09,2.37,2.37,0,0,1,1.18.67,2.46,2.46,0,0,1,.6,1.22,2.24,2.24,0,0,1-.18,1.35,2.4,2.4,0,0,1-.89,1,2.44,2.44,0,0,1-1.32.35,2.34,2.34,0,0,1-1.62-.74A2.39,2.39,0,0,1,111.25,58.21Z"/><path class="cls-3" d="M122.51,46.71a2.41,2.41,0,0,1,.44-1.29,2.33,2.33,0,0,1,3.59-.24,2.43,2.43,0,0,1,.6,1.21,2.28,2.28,0,0,1-.17,1.34,2.35,2.35,0,0,1-2.2,1.38,2.27,2.27,0,0,1-.88-.21,2.15,2.15,0,0,1-.74-.53,2.3,2.3,0,0,1-.49-.77A2.45,2.45,0,0,1,122.51,46.71Z"/><path class="cls-3" d="M119.9,30.53a2.48,2.48,0,0,1,.43-1.29,2.37,2.37,0,0,1,1.08-.82,2.34,2.34,0,0,1,2.52.58,2.43,2.43,0,0,1,.6,1.21,2.28,2.28,0,0,1-.17,1.34,2.35,2.35,0,0,1-2.2,1.38,2.27,2.27,0,0,1-.88-.21,2.15,2.15,0,0,1-.74-.53,2.3,2.3,0,0,1-.49-.77A2.25,2.25,0,0,1,119.9,30.53Z"/><path class="cls-3" d="M113.16,42.64a2.41,2.41,0,0,1,.44-1.29,2.33,2.33,0,0,1,3.59-.24,2.43,2.43,0,0,1,.6,1.21,2.28,2.28,0,0,1-.17,1.34,2.35,2.35,0,0,1-2.2,1.38,2.27,2.27,0,0,1-.88-.21,2.15,2.15,0,0,1-.74-.53,2.3,2.3,0,0,1-.49-.77A2.45,2.45,0,0,1,113.16,42.64Z"/><path class="cls-3" d="M103.7,32.08a2.41,2.41,0,0,1,.44-1.29,2.33,2.33,0,0,1,3.59-.24,2.43,2.43,0,0,1,.6,1.21,2.28,2.28,0,0,1-.17,1.34,2.35,2.35,0,0,1-2.2,1.38,2.27,2.27,0,0,1-.88-.21,2.15,2.15,0,0,1-.74-.53,2.3,2.3,0,0,1-.49-.77A2.45,2.45,0,0,1,103.7,32.08Z"/><path class="cls-3" d="M102,46.24A2.34,2.34,0,0,1,104.86,44a2.37,2.37,0,0,1,1.18.67,2.46,2.46,0,0,1,.6,1.22,2.24,2.24,0,0,1-.18,1.35,2.4,2.4,0,0,1-.89,1,2.44,2.44,0,0,1-1.32.35,2.34,2.34,0,0,1-1.62-.74A2.39,2.39,0,0,1,102,46.24Z"/><path class="cls-3" d="M128.24,40a2.34,2.34,0,0,1,2.87-2.22,2.37,2.37,0,0,1,1.18.67,2.46,2.46,0,0,1,.6,1.22,2.24,2.24,0,0,1-.18,1.35,2.4,2.4,0,0,1-.89,1,2.44,2.44,0,0,1-1.32.35,2.34,2.34,0,0,1-1.62-.74A2.39,2.39,0,0,1,128.24,40Z"/><path class="cls-3" d="M123.12,52.26a2.38,2.38,0,0,1,.44-1.29,2.3,2.3,0,0,1,1.07-.83,2.34,2.34,0,0,1,1.36-.09,2.32,2.32,0,0,1,1.18.68,2.24,2.24,0,0,1,.6,1.22,2.29,2.29,0,0,1-.18,1.34,2.35,2.35,0,0,1-.89,1,2.44,2.44,0,0,1-1.32.35,2.36,2.36,0,0,1-2.26-2.41Z"/><path class="cls-1" d="M86.49,54.5a22.51,22.51,0,1,1-9.93-14.07A22.43,22.43,0,0,1,86.49,54.5Z"/><path class="cls-2" d="M61,57.85a2.34,2.34,0,0,1-.93,2.42,2.32,2.32,0,0,1-1.29.43,2.34,2.34,0,0,1-2.2-1.39A2.33,2.33,0,0,1,56.42,58a2.31,2.31,0,0,1,1.79-1.88A2.34,2.34,0,0,1,61,57.85Z"/><path class="cls-2" d="M82.54,52.76a2.19,2.19,0,0,1,0,.92,2.35,2.35,0,0,1-.32.86,2.41,2.41,0,0,1-.63.68,2.68,2.68,0,0,1-.85.37,2.37,2.37,0,0,1-.92,0,2.27,2.27,0,0,1-1.51-1,2.28,2.28,0,0,1-.36-.85A2.39,2.39,0,0,1,78.33,52a2.33,2.33,0,0,1,4.21.73Z"/><path class="cls-2" d="M73.07,43.89A2.3,2.3,0,0,1,73,45.24a2.41,2.41,0,0,1-.83,1.08,2.32,2.32,0,0,1-1.29.43,2.37,2.37,0,0,1-1.32-.36A2.32,2.32,0,0,1,68.49,44a2.34,2.34,0,0,1,4.58-.12Z"/><path class="cls-2" d="M70.15,76.25a2.28,2.28,0,0,1-.93,2.41,2.26,2.26,0,0,1-1.28.43,2.34,2.34,0,0,1-1.31-.36,2.39,2.39,0,0,1-.88-1,2.33,2.33,0,0,1,1.62-3.21,2.31,2.31,0,0,1,2.78,1.76Z"/><path class="cls-2" d="M49.15,61.24a2.3,2.3,0,0,1-.09,1.35,2.41,2.41,0,0,1-.83,1.08,2.32,2.32,0,0,1-1.29.43,2.37,2.37,0,0,1-1.32-.36,2.32,2.32,0,0,1-1-2.38,2.34,2.34,0,0,1,4.58-.12Z"/><path class="cls-2" d="M60.84,42.76a2.27,2.27,0,0,1-.1,1.34,2.43,2.43,0,0,1-.83,1.07,2.35,2.35,0,0,1-2.59.06,2.32,2.32,0,0,1-.88-1,2.28,2.28,0,0,1-.17-1.34,2.37,2.37,0,0,1,.61-1.21A2.33,2.33,0,0,1,58.05,41,2.37,2.37,0,0,1,59,41a2.59,2.59,0,0,1,.85.33,2.47,2.47,0,0,1,.66.63A2.33,2.33,0,0,1,60.84,42.76Z"/><path class="cls-2" d="M75.06,66.41a2.34,2.34,0,0,1-2.21,2.84,2.33,2.33,0,0,1-2.36-2.72A2.33,2.33,0,0,1,74,65,2.34,2.34,0,0,1,75.06,66.41Z"/><path class="cls-2" d="M69.9,54.27a2.39,2.39,0,0,1-.09,1.35A2.36,2.36,0,0,1,69,56.68a2.26,2.26,0,0,1-1.28.43,2.33,2.33,0,0,1-2.36-2.72,2.33,2.33,0,0,1,4.57-.12Z"/><path class="cls-2" d="M59.41,70.9a2.34,2.34,0,0,1-2.21,2.84A2.33,2.33,0,0,1,54.84,71a2.33,2.33,0,0,1,3.54-1.58A2.34,2.34,0,0,1,59.41,70.9Z"/><path class="cls-2" d="M58.57,51.36a2.27,2.27,0,0,1-.1,1.34,2.43,2.43,0,0,1-.83,1.07,2.35,2.35,0,0,1-2.59.06,2.32,2.32,0,0,1-.88-1A2.28,2.28,0,0,1,54,51.46a2.37,2.37,0,0,1,.61-1.21,2.33,2.33,0,0,1,1.17-.66,2.37,2.37,0,0,1,.92,0,2.59,2.59,0,0,1,.85.33,2.47,2.47,0,0,1,.66.63A2.33,2.33,0,0,1,58.57,51.36Z"/><path class="cls-2" d="M85,60.45a2.27,2.27,0,0,1-.1,1.34,2.43,2.43,0,0,1-.83,1.07,2.35,2.35,0,0,1-2.59.06,2.32,2.32,0,0,1-.88-1,2.28,2.28,0,0,1-.17-1.34,2.37,2.37,0,0,1,.61-1.21,2.33,2.33,0,0,1,1.17-.66,2.37,2.37,0,0,1,.92,0A2.59,2.59,0,0,1,84,59a2.47,2.47,0,0,1,.66.63A2.33,2.33,0,0,1,85,60.45Z"/><path class="cls-3" d="M52.9,50.28A2.28,2.28,0,0,1,52,52.69a2.26,2.26,0,0,1-1.28.43,2.34,2.34,0,0,1-1.31-.36,2.39,2.39,0,0,1-.88-1,2.33,2.33,0,0,1,1.62-3.21,2.33,2.33,0,0,1,.91,0,2.34,2.34,0,0,1,1.51,1A2.28,2.28,0,0,1,52.9,50.28Z"/><path class="cls-3" d="M82.18,67.88a2.28,2.28,0,0,1-.93,2.41,2.26,2.26,0,0,1-1.28.43,2.31,2.31,0,0,1-2.19-1.39A2.28,2.28,0,0,1,77.62,68a2.28,2.28,0,0,1,1.78-1.87,2.33,2.33,0,0,1,.91,0,2.34,2.34,0,0,1,1.51,1A2.28,2.28,0,0,1,82.18,67.88Z"/><path class="cls-3" d="M79.68,47.42a2.27,2.27,0,0,1-.1,1.34,2.43,2.43,0,0,1-.83,1.07,2.35,2.35,0,0,1-2.59.06,2.32,2.32,0,0,1-.88-1,2.28,2.28,0,0,1-.17-1.34,2.37,2.37,0,0,1,.61-1.21,2.33,2.33,0,0,1,1.17-.66,2.37,2.37,0,0,1,.92,0,2.22,2.22,0,0,1,.85.33,2.28,2.28,0,0,1,1,1.47Z"/><path class="cls-3" d="M64.26,48.62a2.27,2.27,0,0,1-.1,1.34,2.34,2.34,0,0,1-2.11,1.5,2.33,2.33,0,0,1-2.36-2.72,2.35,2.35,0,0,1,1.78-1.88,2.33,2.33,0,0,1,.91,0,2.38,2.38,0,0,1,1.51,1A2.19,2.19,0,0,1,64.26,48.62Z"/><path class="cls-3" d="M56.24,62.56a2.31,2.31,0,0,1-.1,1.35A2.25,2.25,0,0,1,55.31,65a2.32,2.32,0,0,1-1.29.43A2.34,2.34,0,0,1,51.82,64a2.33,2.33,0,0,1-.16-1.35,2.36,2.36,0,0,1,2.71-1.91,2.59,2.59,0,0,1,.85.33,2.47,2.47,0,0,1,.66.63A2.33,2.33,0,0,1,56.24,62.56Z"/><path class="cls-3" d="M62.9,77.57a2.39,2.39,0,0,1-.09,1.35A2.36,2.36,0,0,1,62,80a2.26,2.26,0,0,1-1.28.43,2.33,2.33,0,0,1-2.36-2.72,2.33,2.33,0,0,1,4.57-.12Z"/><path class="cls-3" d="M66.31,64.17a2.3,2.3,0,0,1-.09,1.35,2.41,2.41,0,0,1-.83,1.08A2.32,2.32,0,0,1,64.1,67a2.37,2.37,0,0,1-1.32-.36,2.32,2.32,0,0,1-1.05-2.38,2.34,2.34,0,0,1,3.55-1.58A2.34,2.34,0,0,1,66.31,64.17Z"/><path class="cls-3" d="M78.1,72a2.31,2.31,0,0,1-.1,1.35,2.34,2.34,0,0,1-3.42,1.12,2.32,2.32,0,0,1-.88-1,2.29,2.29,0,0,1-.17-1.34,2.31,2.31,0,0,1,1.79-1.87,2.33,2.33,0,0,1,.91,0,2.51,2.51,0,0,1,.85.33,2.47,2.47,0,0,1,.66.63A2.33,2.33,0,0,1,78.1,72Z"/><path class="cls-3" d="M76.22,57.9A2.34,2.34,0,0,1,74,60.74,2.33,2.33,0,0,1,71.65,58a2.33,2.33,0,0,1,4.57-.12Z"/><path class="cls-3" d="M52.37,70.54a2.31,2.31,0,0,1-.1,1.35,2.35,2.35,0,0,1-2.11,1.49,2.33,2.33,0,0,1-2.36-2.72,2.33,2.33,0,0,1,3.54-1.58A2.34,2.34,0,0,1,52.37,70.54Z"/><path class="cls-3" d="M54.25,57.34a2.39,2.39,0,0,1-.09,1.35,2.31,2.31,0,0,1-.84,1.06,2.26,2.26,0,0,1-1.28.43,2.31,2.31,0,0,1-2.19-1.39,2.28,2.28,0,0,1-.16-1.34,2.28,2.28,0,0,1,1.78-1.87,2.33,2.33,0,0,1,.91,0,2.34,2.34,0,0,1,1.51,1A2.28,2.28,0,0,1,54.25,57.34Z"/><path class="cls-1" d="M102.64,124.05a22.57,22.57,0,1,0-15.91-6.61A22.45,22.45,0,0,0,102.64,124.05Z"/><path class="cls-2" d="M100.3,109.29a2.42,2.42,0,0,0,1.31-.39,2.39,2.39,0,0,0,.86-1.05,2.32,2.32,0,0,0,.14-1.35,2.27,2.27,0,0,0-.64-1.2,2.33,2.33,0,0,0-1.2-.65,2.4,2.4,0,0,0-1.35.13,2.34,2.34,0,0,0-1,.87A2.29,2.29,0,0,0,98,107a2.36,2.36,0,0,0,2.33,2.34Z"/><path class="cls-2" d="M100.06,87.15a2.36,2.36,0,0,0,2.16-1.44,2.4,2.4,0,0,0,.13-1.35,2.28,2.28,0,0,0-.64-1.19,2.32,2.32,0,0,0-1.19-.64,2.4,2.4,0,0,0-1.35.13,2.36,2.36,0,0,0-1.44,2.16,2.34,2.34,0,0,0,2.33,2.33Z"/><path class="cls-2" d="M89.33,94.45A2.32,2.32,0,0,0,91.5,93,2.34,2.34,0,0,0,88.44,90a2.38,2.38,0,0,0-1,.86A2.42,2.42,0,0,0,87,92.12a2.36,2.36,0,0,0,2.33,2.33Z"/><path class="cls-2" d="M120.27,104.39a2.42,2.42,0,0,0,1.3-.4,2.34,2.34,0,0,0,1-2.39,2.34,2.34,0,0,0-1.84-1.83,2.36,2.36,0,0,0-1.34.13,2.31,2.31,0,0,0-1,.86,2.34,2.34,0,0,0,1.94,3.63Z"/><path class="cls-2" d="M101,121.59a2.36,2.36,0,0,0,2.16-1.44,2.4,2.4,0,0,0,.13-1.35,2.28,2.28,0,0,0-.64-1.19,2.32,2.32,0,0,0-1.19-.64,2.4,2.4,0,0,0-1.35.13,2.36,2.36,0,0,0-1.44,2.16,2.36,2.36,0,0,0,2.33,2.33Z"/><path class="cls-2" d="M85.54,106.13a2.42,2.42,0,0,0,1.31-.39,2.39,2.39,0,0,0,.86-1,2.32,2.32,0,0,0,.14-1.35,2.27,2.27,0,0,0-.64-1.2,2.33,2.33,0,0,0-1.2-.65,2.4,2.4,0,0,0-1.35.13,2.34,2.34,0,0,0-1,.87,2.29,2.29,0,0,0-.4,1.3,2.34,2.34,0,0,0,2.33,2.34Z"/><path class="cls-2" d="M111.74,97.45a2.42,2.42,0,0,0,1.31-.39,2.39,2.39,0,0,0,.86-1,2.32,2.32,0,0,0,.14-1.35,2.27,2.27,0,0,0-.64-1.2,2.33,2.33,0,0,0-1.2-.65,2.4,2.4,0,0,0-1.35.13,2.34,2.34,0,0,0-1,.87,2.29,2.29,0,0,0-.4,1.3,2.36,2.36,0,0,0,2.33,2.34Z"/><path class="cls-2" d="M98.77,99.81a2.42,2.42,0,0,0,1.3-.4,2.34,2.34,0,0,0,1-2.39,2.34,2.34,0,0,0-1.84-1.83,2.36,2.36,0,0,0-1.34.13,2.31,2.31,0,0,0-1,.86,2.34,2.34,0,0,0-.4,1.3,2.28,2.28,0,0,0,.18.89,2.42,2.42,0,0,0,.51.76,2.39,2.39,0,0,0,1.65.68Z"/><path class="cls-2" d="M112.69,113.71a2.36,2.36,0,0,0,2.16-1.44,2.4,2.4,0,0,0,.13-1.35,2.35,2.35,0,0,0-1.83-1.83,2.4,2.4,0,0,0-1.35.13,2.34,2.34,0,0,0,.89,4.49Z"/><path class="cls-2" d="M93.44,110.23a2.29,2.29,0,0,0,1.3-.4,2.34,2.34,0,0,0,.87-1,2.4,2.4,0,0,0,.13-1.35,2.33,2.33,0,0,0-.65-1.2,2.27,2.27,0,0,0-1.2-.64,2.32,2.32,0,0,0-1.35.14,2.39,2.39,0,0,0-1.05.86,2.42,2.42,0,0,0-.39,1.31,2.36,2.36,0,0,0,2.34,2.33Z"/><path class="cls-4" d="M108.11,86.4a2.33,2.33,0,1,0-2.33-2.33A2.33,2.33,0,0,0,108.11,86.4Z"/><path class="cls-5" d="M93.52,113.2a2.33,2.33,0,1,0-2.35,2.32A2.33,2.33,0,0,0,93.52,113.2Z"/><path class="cls-3" d="M114.74,90.82a2.32,2.32,0,0,0,2.17-1.44,2.34,2.34,0,0,0-3.06-3.06,2.38,2.38,0,0,0-1,.86,2.42,2.42,0,0,0-.39,1.31,2.34,2.34,0,0,0,2.33,2.33Z"/><path class="cls-3" d="M94.23,88.77a2.29,2.29,0,0,0,1.3-.4,2.34,2.34,0,0,0,.87-1.05A2.4,2.4,0,0,0,96.53,86a2.34,2.34,0,0,0-1.84-1.84,2.4,2.4,0,0,0-1.35.13,2.35,2.35,0,0,0,.89,4.51Z"/><path class="cls-3" d="M92,104.08a2.29,2.29,0,0,0,1.3-.4,2.34,2.34,0,0,0,.87-1.05,2.4,2.4,0,0,0,.13-1.35,2.34,2.34,0,0,0-1.84-1.84,2.4,2.4,0,0,0-1.35.13,2.38,2.38,0,0,0-1.45,2.17A2.36,2.36,0,0,0,92,104.08Z"/><path class="cls-3" d="M103.9,115a2.36,2.36,0,0,0,2.16-1.44,2.4,2.4,0,0,0,.13-1.35,2.35,2.35,0,0,0-1.83-1.83,2.4,2.4,0,0,0-1.35.13,2.36,2.36,0,0,0-1.44,2.16A2.34,2.34,0,0,0,103.9,115Z"/><path class="cls-3" d="M120,111.81a2.32,2.32,0,0,0,2.17-1.44,2.34,2.34,0,0,0-3.06-3.06,2.38,2.38,0,0,0-1,.86,2.42,2.42,0,0,0-.39,1.31,2.36,2.36,0,0,0,2.33,2.33Z"/><path class="cls-3" d="M107.64,105.5a2.42,2.42,0,0,0,1.31-.39,2.39,2.39,0,0,0,.86-1,2.32,2.32,0,0,0,.14-1.35,2.27,2.27,0,0,0-.64-1.2,2.33,2.33,0,0,0-1.2-.65,2.4,2.4,0,0,0-1.35.13,2.34,2.34,0,0,0-1.05.87,2.29,2.29,0,0,0-.4,1.3,2.34,2.34,0,0,0,2.33,2.34Z"/><path class="cls-3" d="M117.9,95.71a2.42,2.42,0,0,0,1.31-.39,2.38,2.38,0,0,0,.86-1A2.34,2.34,0,0,0,117,91.21a2.38,2.38,0,0,0-1.05.86,2.42,2.42,0,0,0-.39,1.31,2.36,2.36,0,0,0,2.33,2.33Z"/><path class="cls-3" d="M103.69,94.45a2.42,2.42,0,0,0,1.31-.39,2.38,2.38,0,0,0,.86-1A2.34,2.34,0,0,0,102.8,90a2.38,2.38,0,0,0-1,.86,2.42,2.42,0,0,0-.39,1.31,2.36,2.36,0,0,0,2.33,2.33Z"/><path class="cls-3" d="M110.8,120.49a2.29,2.29,0,0,0,1.3-.4,2.34,2.34,0,0,0,.87-1,2.4,2.4,0,0,0,.13-1.35,2.33,2.33,0,0,0-.65-1.2,2.27,2.27,0,0,0-1.2-.64,2.32,2.32,0,0,0-1.35.14,2.39,2.39,0,0,0-1.05.86,2.42,2.42,0,0,0-.39,1.31,2.36,2.36,0,0,0,2.34,2.33Z"/><path class="cls-3" d="M98.33,115.71a2.36,2.36,0,0,0,2.16-1.44,2.4,2.4,0,0,0,.13-1.35,2.28,2.28,0,0,0-.64-1.19,2.32,2.32,0,0,0-1.19-.64,2.4,2.4,0,0,0-1.35.13A2.36,2.36,0,0,0,96,113.38a2.36,2.36,0,0,0,2.33,2.33Z"/><path class="cls-1" d="M60.34,131.05a22.51,22.51,0,1,1,11.3-13A22.51,22.51,0,0,1,60.34,131.05Z"/><path class="cls-2" d="M51,107.1a2.35,2.35,0,0,1-2.57-.29,2.32,2.32,0,0,1,.05-3.6,2.25,2.25,0,0,1,1.26-.5A2.33,2.33,0,0,1,51,107.1Z"/><path class="cls-2" d="M61.09,126.79a2.35,2.35,0,0,1-2.57-.29A2.33,2.33,0,0,1,57.8,124a2.36,2.36,0,0,1,.77-1.12,2.34,2.34,0,0,1,3.67,2.54A2.37,2.37,0,0,1,61.09,126.79Z"/><path class="cls-2" d="M67.43,115.47a2.37,2.37,0,0,1-1.34.25,2.33,2.33,0,0,1-1.25-.53A2.39,2.39,0,0,1,64.1,114a2.33,2.33,0,0,1,0-1.36,2.36,2.36,0,0,1,.77-1.12,2.35,2.35,0,0,1,2.6-.21,2.3,2.3,0,0,1,.94,1,2.32,2.32,0,0,1-1,3.13Z"/><path class="cls-2" d="M35.31,120.4a2.35,2.35,0,0,1-2.57-.29,2.32,2.32,0,0,1,0-3.6,2.25,2.25,0,0,1,1.26-.5,2.33,2.33,0,0,1,2.41,3A2.37,2.37,0,0,1,35.31,120.4Z"/><path class="cls-2" d="M44.9,96.41a2.37,2.37,0,0,1-1.34.25,2.33,2.33,0,0,1-1.25-.53A2.39,2.39,0,0,1,41.57,95a2.33,2.33,0,0,1,0-1.36,2.36,2.36,0,0,1,.77-1.12,2.35,2.35,0,0,1,2.6-.21,2.3,2.3,0,0,1,.94,1,2.32,2.32,0,0,1-1,3.13Z"/><path class="cls-2" d="M65.6,103.33a2.37,2.37,0,0,1-1.34.25,2.33,2.33,0,0,1-1.25-.53,2.39,2.39,0,0,1-.74-1.15,2.33,2.33,0,0,1,0-1.36,2.36,2.36,0,0,1,.77-1.12,2.35,2.35,0,0,1,2.6-.21A2.37,2.37,0,0,1,66.75,102,2.37,2.37,0,0,1,65.6,103.33Z"/><path class="cls-2" d="M46,122.8a2.34,2.34,0,0,1-1.33.22,2.25,2.25,0,0,1-1.23-.56A2.31,2.31,0,0,1,42.8,120a2.35,2.35,0,0,1,.78-1.1,2.31,2.31,0,0,1,2.58-.19,2.28,2.28,0,0,1,.93,1,2.22,2.22,0,0,1,.24.88,2.13,2.13,0,0,1-.11.9,2.39,2.39,0,0,1-.45.79A2.5,2.5,0,0,1,46,122.8Z"/><path class="cls-2" d="M56.59,114.89a2.37,2.37,0,0,1-1.34.25,2.33,2.33,0,0,1-1.25-.53,2.39,2.39,0,0,1-.74-1.15,2.33,2.33,0,0,1,0-1.36,2.36,2.36,0,0,1,.77-1.12,2.35,2.35,0,0,1,2.6-.21,2.3,2.3,0,0,1,.94,1,2.32,2.32,0,0,1-1,3.13Z"/><path class="cls-2" d="M37.9,108.71a2.32,2.32,0,0,1-2.58-.29,2.25,2.25,0,0,1-.73-1.13,2.33,2.33,0,0,1,0-1.36,2.36,2.36,0,0,1,.77-1.12,2.31,2.31,0,0,1,1.26-.49,2.25,2.25,0,0,1,1.32.29,2.23,2.23,0,0,1,.94,1,2.34,2.34,0,0,1-1,3.12Z"/><path class="cls-2" d="M56.7,103.18a2.34,2.34,0,0,1-1.33.22,2.37,2.37,0,0,1-1.24-.55,2.43,2.43,0,0,1-.71-1.15,2.32,2.32,0,0,1,2.09-2.93,2.33,2.33,0,0,1,2.36,3.06A2.29,2.29,0,0,1,56.7,103.18Z"/><path class="cls-2" d="M54.23,131.06a2.35,2.35,0,0,1-2.57-.29,2.33,2.33,0,0,1-.72-2.49,2.36,2.36,0,0,1,.77-1.12,2.34,2.34,0,0,1,3.67,2.54A2.37,2.37,0,0,1,54.23,131.06Z"/><path class="cls-3" d="M56.4,97.47a2.37,2.37,0,0,1-1.34.25,2.33,2.33,0,0,1-1.25-.53A2.39,2.39,0,0,1,53.07,96a2.33,2.33,0,0,1,0-1.36,2.36,2.36,0,0,1,.77-1.12,2.35,2.35,0,0,1,2.6-.21,2.37,2.37,0,0,1,1.09,2.76A2.37,2.37,0,0,1,56.4,97.47Z"/><path class="cls-3" d="M46.32,130.07a2.34,2.34,0,0,1-1.33.22,2.25,2.25,0,0,1-1.23-.56,2.31,2.31,0,0,1-.68-2.49,2.35,2.35,0,0,1,.78-1.1,2.31,2.31,0,0,1,2.58-.19,2.28,2.28,0,0,1,.93,1,2.22,2.22,0,0,1,.24.88,2.3,2.3,0,0,1-.11.9,2.25,2.25,0,0,1-.46.79A2.33,2.33,0,0,1,46.32,130.07Z"/><path class="cls-3" d="M65.59,122.71a2.34,2.34,0,0,1-1.33.22,2.25,2.25,0,0,1-1.23-.56,2.31,2.31,0,0,1-.68-2.49,2.35,2.35,0,0,1,.78-1.1,2.31,2.31,0,0,1,2.58-.19,2.34,2.34,0,0,1,1.05,2.77A2.32,2.32,0,0,1,65.59,122.71Z"/><path class="cls-3" d="M60.73,108.06a2.36,2.36,0,0,1-1.33.25,2.33,2.33,0,0,1-1.26-.53,2.39,2.39,0,0,1-.74-1.15,2.33,2.33,0,0,1,0-1.36,2.36,2.36,0,0,1,.77-1.12,2.35,2.35,0,0,1,2.6-.21,2.3,2.3,0,0,1,.94,1,2.32,2.32,0,0,1-1,3.13Z"/><path class="cls-3" d="M45.27,103.61a2.37,2.37,0,0,1-1.34.25,2.31,2.31,0,0,1-2-1.68,2.33,2.33,0,0,1,0-1.36,2.36,2.36,0,0,1,.77-1.12,2.35,2.35,0,0,1,2.6-.21,2.36,2.36,0,0,1,.94,1,2.34,2.34,0,0,1-1,3.13Z"/><path class="cls-3" d="M32.28,113.63a2.37,2.37,0,0,1-1.34.25,2.31,2.31,0,0,1-2-1.68,2.33,2.33,0,0,1,0-1.36,2.36,2.36,0,0,1,.77-1.12,2.35,2.35,0,0,1,2.6-.21,2.3,2.3,0,0,1,.94,1,2.32,2.32,0,0,1-1,3.13Z"/><path class="cls-3" d="M46.11,113.77a2.34,2.34,0,0,1-1.33.22,2.25,2.25,0,0,1-1.23-.56,2.31,2.31,0,0,1-.68-2.49,2.35,2.35,0,0,1,.78-1.1,2.31,2.31,0,0,1,2.58-.19,2.34,2.34,0,0,1,1.05,2.77A2.32,2.32,0,0,1,46.11,113.77Z"/><path class="cls-3" d="M41.31,127.11a2.35,2.35,0,0,1-2.57-.29,2.32,2.32,0,0,1,0-3.6,2.25,2.25,0,0,1,1.26-.5,2.33,2.33,0,0,1,1.26,4.39Z"/><path class="cls-3" d="M54.58,121.89a2.34,2.34,0,0,1-1.33.22,2.25,2.25,0,0,1-1.23-.56,2.31,2.31,0,0,1-.68-2.49,2.35,2.35,0,0,1,.78-1.1,2.31,2.31,0,0,1,2.58-.19,2.34,2.34,0,0,1,1,2.77A2.32,2.32,0,0,1,54.58,121.89Z"/><path class="cls-3" d="M36.59,101.77a2.37,2.37,0,0,1-1.34.25,2.33,2.33,0,0,1-1.25-.53,2.39,2.39,0,0,1-.74-1.15,2.33,2.33,0,0,1,0-1.36,2.36,2.36,0,0,1,.77-1.12,2.35,2.35,0,0,1,2.6-.21,2.37,2.37,0,0,1,1.09,2.76A2.37,2.37,0,0,1,36.59,101.77Z"/><path class="cls-3" d="M49.9,100.43a2.35,2.35,0,0,1-2.57-.29,2.32,2.32,0,0,1,.05-3.6,2.25,2.25,0,0,1,1.26-.5,2.33,2.33,0,0,1,2.41,3A2.37,2.37,0,0,1,49.9,100.43Z"/><path class="cls-1" d="M65.49,137.14a22.51,22.51,0,1,1-4.55,7.51A22.49,22.49,0,0,1,65.49,137.14Z"/><path class="cls-2" d="M82.79,156.17a2.38,2.38,0,0,1,1.17-.69,2.3,2.3,0,0,1,1.35.08A2.35,2.35,0,0,1,86.5,159a2.34,2.34,0,0,1-2.35,1.09,2.35,2.35,0,0,1-1.22-.58,2.48,2.48,0,0,1-.54-.74,2.27,2.27,0,0,1-.21-.88,2.17,2.17,0,0,1,.14-.91A2.35,2.35,0,0,1,82.79,156.17Z"/><path class="cls-2" d="M66.32,141.38a2.38,2.38,0,0,1,1.17-.69,2.3,2.3,0,0,1,1.35.08,2.35,2.35,0,0,1,1.19,3.4,2.34,2.34,0,0,1-2.35,1.09,2.35,2.35,0,0,1-1.22-.58,2.48,2.48,0,0,1-.54-.74,2.27,2.27,0,0,1-.21-.88,2.32,2.32,0,0,1,.61-1.68Z"/><path class="cls-2" d="M64.43,154.22a2.34,2.34,0,0,1,2.53-.63,2.43,2.43,0,0,1,1.09.81,2.39,2.39,0,0,1,.45,1.28,2.32,2.32,0,0,1-.33,1.32,2.4,2.4,0,0,1-1,.91,2.32,2.32,0,0,1-1.35.19,2.38,2.38,0,0,1-1.23-.58,2.36,2.36,0,0,1-.15-3.3Z"/><path class="cls-2" d="M92.67,138.15a2.28,2.28,0,0,1,1.17-.7,2.34,2.34,0,0,1,1.36.07,2.43,2.43,0,0,1,1.09.81,2.39,2.39,0,0,1,.45,1.29,2.32,2.32,0,0,1-1.35,2.22,2.28,2.28,0,0,1-1.34.19,2.34,2.34,0,0,1-1.38-3.88Z"/><path class="cls-2" d="M92.33,164a2.31,2.31,0,0,1,2.53-.62,2.32,2.32,0,0,1,1.54,2.1,2.32,2.32,0,0,1-.34,1.31,2.35,2.35,0,0,1-3.59.51,2.34,2.34,0,0,1-.14-3.3Z"/><path class="cls-2" d="M70.48,164.91a2.38,2.38,0,0,1,1.17-.69,2.3,2.3,0,0,1,1.35.08,2.35,2.35,0,0,1,1.19,3.4,2.34,2.34,0,0,1-2.35,1.09,2.35,2.35,0,0,1-1.22-.58,2.48,2.48,0,0,1-.54-.74,2.27,2.27,0,0,1-.21-.88,2.17,2.17,0,0,1,.14-.91A2.35,2.35,0,0,1,70.48,164.91Z"/><path class="cls-2" d="M81.8,139.71A2.38,2.38,0,0,1,83,139a2.3,2.3,0,0,1,2.43.89,2.31,2.31,0,0,1,.11,2.58,2.26,2.26,0,0,1-1,.9,2.29,2.29,0,0,1-1.34.19,2.32,2.32,0,0,1-1.36-3.87Z"/><path class="cls-2" d="M74.77,150.9a2.38,2.38,0,0,1,1.17-.69,2.3,2.3,0,0,1,1.35.08,2.35,2.35,0,0,1,1.19,3.4,2.34,2.34,0,0,1-2.35,1.09,2.35,2.35,0,0,1-1.22-.58,2.48,2.48,0,0,1-.54-.74,2.27,2.27,0,0,1-.21-.88,2.17,2.17,0,0,1,.14-.91A2.35,2.35,0,0,1,74.77,150.9Z"/><path class="cls-2" d="M94.41,150a2.38,2.38,0,0,1,1.17-.69,2.3,2.3,0,0,1,1.35.08,2.35,2.35,0,0,1,1.19,3.4,2.34,2.34,0,0,1-2.35,1.09,2.35,2.35,0,0,1-1.22-.58,2.34,2.34,0,0,1-.14-3.3Z"/><path class="cls-2" d="M78.84,161.87a2.38,2.38,0,0,1,1.17-.69,2.3,2.3,0,0,1,1.35.08,2.35,2.35,0,0,1,1.19,3.4,2.34,2.34,0,0,1-2.35,1.09,2.35,2.35,0,0,1-1.22-.58,2.48,2.48,0,0,1-.54-.74,2.27,2.27,0,0,1-.21-.88,2.32,2.32,0,0,1,.61-1.68Z"/><path class="cls-2" d="M71.2,134.94a2.31,2.31,0,0,1,2.53-.62,2.32,2.32,0,0,1,1.54,2.1,2.32,2.32,0,0,1-.34,1.31,2.35,2.35,0,0,1-3.59.51,2.34,2.34,0,0,1-.14-3.3Z"/><path class="cls-3" d="M81.16,167.1a2.33,2.33,0,0,1,1.17-.69,2.31,2.31,0,0,1,1.35.07,2.33,2.33,0,0,1,1.53,2.09,2.41,2.41,0,0,1-.33,1.31,2.37,2.37,0,0,1-2.35,1.1,2.35,2.35,0,0,1-1.22-.58,2.36,2.36,0,0,1-.15-3.3Z"/><path class="cls-3" d="M78.9,133.05a2.33,2.33,0,0,1,1.17-.69,2.3,2.3,0,0,1,2.43.89,2.31,2.31,0,0,1,.11,2.58,2.26,2.26,0,0,1-1,.9,2.29,2.29,0,0,1-1.34.19,2.35,2.35,0,0,1-1.22-.58,2.48,2.48,0,0,1-.54-.74,2.19,2.19,0,0,1-.21-.88,2.3,2.3,0,0,1,.14-.9A2.25,2.25,0,0,1,78.9,133.05Z"/><path class="cls-3" d="M63.56,146.78a2.38,2.38,0,0,1,1.17-.69,2.3,2.3,0,0,1,2.43.89,2.31,2.31,0,0,1,.11,2.58,2.26,2.26,0,0,1-1,.9,2.29,2.29,0,0,1-1.34.19,2.35,2.35,0,0,1-1.22-.58,2.48,2.48,0,0,1-.54-.74,2.37,2.37,0,0,1-.21-.88,2.3,2.3,0,0,1,.14-.9A2.25,2.25,0,0,1,63.56,146.78Z"/><path class="cls-3" d="M73.34,158.71a2.31,2.31,0,0,1,2.53-.62,2.32,2.32,0,0,1,1.54,2.1,2.32,2.32,0,0,1-.34,1.31,2.35,2.35,0,0,1-3.59.51,2.37,2.37,0,0,1-.14-3.3Z"/><path class="cls-3" d="M89.37,157.4a2.33,2.33,0,0,1,1.17-.69,2.3,2.3,0,0,1,2.43.89,2.31,2.31,0,0,1,.11,2.58,2.26,2.26,0,0,1-1,.9,2.29,2.29,0,0,1-1.34.19,2.32,2.32,0,0,1-1.36-3.87Z"/><path class="cls-3" d="M97.9,143.4a2.38,2.38,0,0,1,1.17-.69,2.3,2.3,0,0,1,1.35.08,2.35,2.35,0,0,1,1.19,3.4,2.34,2.34,0,0,1-2.35,1.09A2.35,2.35,0,0,1,98,146.7a2.48,2.48,0,0,1-.54-.74,2.27,2.27,0,0,1-.21-.88,2.17,2.17,0,0,1,.14-.91A2.35,2.35,0,0,1,97.9,143.4Z"/><path class="cls-3" d="M85,148.2a2.31,2.31,0,0,1,2.53-.62,2.32,2.32,0,0,1,1.54,2.1,2.32,2.32,0,0,1-.34,1.31,2.35,2.35,0,0,1-3.59.51,2.34,2.34,0,0,1-.14-3.3Z"/><path class="cls-3" d="M84.68,134a2.38,2.38,0,0,1,1.17-.69,2.3,2.3,0,0,1,1.35.08,2.35,2.35,0,0,1,1.19,3.4A2.34,2.34,0,0,1,86,137.91a2.35,2.35,0,0,1-1.22-.58,2.48,2.48,0,0,1-.54-.74,2.27,2.27,0,0,1-.21-.88,2.17,2.17,0,0,1,.14-.91A2.35,2.35,0,0,1,84.68,134Z"/><path class="cls-3" d="M74.14,143.64a2.34,2.34,0,0,1,2.53-.63,2.43,2.43,0,0,1,1.09.81,2.39,2.39,0,0,1,.45,1.29,2.31,2.31,0,0,1-.33,1.31,2.33,2.33,0,0,1-2.36,1.1,2.38,2.38,0,0,1-1.23-.58,2.36,2.36,0,0,1-.15-3.3Z"/><path class="cls-3" d="M98.13,156a2.31,2.31,0,0,1,2.53-.62,2.32,2.32,0,0,1,1.54,2.1,2.32,2.32,0,0,1-.34,1.31,2.35,2.35,0,0,1-3.59.51,2.37,2.37,0,0,1-.14-3.3Z"/><path class="cls-3" d="M86.21,162a2.33,2.33,0,0,1,1.17-.69,2.31,2.31,0,0,1,1.35.07,2.4,2.4,0,0,1,1.08.81,2.32,2.32,0,0,1,.11,2.59,2.3,2.3,0,0,1-1,.9,2.32,2.32,0,0,1-2.56-.38,2.36,2.36,0,0,1-.15-3.3Z"/><path class="cls-1" d="M156.72,137.8a22.54,22.54,0,1,1-9.85-14.15,22.41,22.41,0,0,1,9.85,14.15Z"/><path class="cls-2" d="M131.2,141a2.31,2.31,0,0,1-2.23,2.82,2.31,2.31,0,0,1-1.3-.37,2.26,2.26,0,0,1-.88-1,2.37,2.37,0,0,1-.16-1.34,2.47,2.47,0,0,1,.62-1.21,2.27,2.27,0,0,1,1.18-.65,2.36,2.36,0,0,1,1.76.31A2.32,2.32,0,0,1,131.2,141Z"/><path class="cls-2" d="M152.77,136a2.31,2.31,0,0,1-2.23,2.82,2.31,2.31,0,0,1-1.3-.37,2.26,2.26,0,0,1-.88-1,2.37,2.37,0,0,1-.16-1.34,2.47,2.47,0,0,1,.62-1.21,2.27,2.27,0,0,1,1.18-.65,2.36,2.36,0,0,1,1.76.31A2.32,2.32,0,0,1,152.77,136Z"/><path class="cls-2" d="M143.36,127.1a2.3,2.3,0,0,1-.94,2.4,2.34,2.34,0,0,1-3.47-1,2.4,2.4,0,0,1-.16-1.35,2.33,2.33,0,0,1,3.55-1.55A2.34,2.34,0,0,1,143.36,127.1Z"/><path class="cls-2" d="M140.25,159.45a2.35,2.35,0,0,1-.1,1.34,2.34,2.34,0,0,1-4.31.09,2.4,2.4,0,0,1-.16-1.35,2.32,2.32,0,0,1,.62-1.2,2.29,2.29,0,0,1,1.17-.66,2.32,2.32,0,0,1,2.78,1.78Z"/><path class="cls-2" d="M119.33,144.31a2.35,2.35,0,0,1-.1,1.34,2.34,2.34,0,0,1-4.31.09,2.4,2.4,0,0,1-.16-1.35,2.32,2.32,0,0,1,.62-1.2,2.29,2.29,0,0,1,1.17-.66,2.37,2.37,0,0,1,.92,0,2.41,2.41,0,0,1,.85.34,2.29,2.29,0,0,1,.65.63A2.17,2.17,0,0,1,119.33,144.31Z"/><path class="cls-2" d="M131.14,125.9a2.34,2.34,0,0,1-.94,2.4,2.34,2.34,0,0,1-3.47-1,2.4,2.4,0,0,1-.16-1.35,2.37,2.37,0,0,1,2.71-1.89,2.29,2.29,0,0,1,.84.34,2.2,2.2,0,0,1,.66.63A2.17,2.17,0,0,1,131.14,125.9Z"/><path class="cls-2" d="M145.21,149.64a2.35,2.35,0,0,1-.1,1.34,2.34,2.34,0,0,1-4.31.09,2.4,2.4,0,0,1-.16-1.35,2.32,2.32,0,0,1,.62-1.2,2.29,2.29,0,0,1,1.17-.66,2.34,2.34,0,0,1,1.76.31,2.28,2.28,0,0,1,1,1.47Z"/><path class="cls-2" d="M140.13,137.47a2.28,2.28,0,0,1-.11,1.34,2.31,2.31,0,0,1-.84,1.06,2.38,2.38,0,0,1-1.29.41,2.31,2.31,0,0,1-1.3-.37,2.36,2.36,0,0,1-.87-1,2.29,2.29,0,0,1-.16-1.34,2.32,2.32,0,0,1,.62-1.2,2.29,2.29,0,0,1,1.17-.66,2.19,2.19,0,0,1,.92,0,2.39,2.39,0,0,1,.85.33,2.47,2.47,0,0,1,.65.64A2.17,2.17,0,0,1,140.13,137.47Z"/><path class="cls-2" d="M129.53,154a2.31,2.31,0,0,1-2.23,2.82,2.31,2.31,0,0,1-1.3-.37,2.26,2.26,0,0,1-.88-1,2.37,2.37,0,0,1-.16-1.34,2.47,2.47,0,0,1,.62-1.21,2.27,2.27,0,0,1,1.18-.65,2.36,2.36,0,0,1,1.76.31A2.32,2.32,0,0,1,129.53,154Z"/><path class="cls-2" d="M128.81,134.48a2.31,2.31,0,0,1-2.23,2.82,2.31,2.31,0,0,1-1.3-.37,2.26,2.26,0,0,1-.88-1,2.37,2.37,0,0,1-.16-1.34,2.47,2.47,0,0,1,.62-1.21,2.27,2.27,0,0,1,1.18-.65,2.36,2.36,0,0,1,1.76.31A2.32,2.32,0,0,1,128.81,134.48Z"/><path class="cls-2" d="M155.23,143.71a2.35,2.35,0,0,1-.1,1.34,2.34,2.34,0,0,1-4.31.09,2.4,2.4,0,0,1-.16-1.35,2.32,2.32,0,0,1,.62-1.2,2.29,2.29,0,0,1,1.17-.66,2.34,2.34,0,0,1,1.76.31,2.28,2.28,0,0,1,1,1.47Z"/><path class="cls-3" d="M123.2,133.37a2.34,2.34,0,0,1-.94,2.4,2.34,2.34,0,0,1-3.47-1,2.4,2.4,0,0,1-.16-1.35,2.32,2.32,0,0,1,1.79-1.86,2.34,2.34,0,0,1,1.76.31,2.28,2.28,0,0,1,1,1.47Z"/><path class="cls-3" d="M152.33,151.15a2.35,2.35,0,0,1-.1,1.34,2.34,2.34,0,0,1-4.31.09,2.4,2.4,0,0,1-.16-1.35,2.32,2.32,0,0,1,.62-1.2,2.29,2.29,0,0,1,1.17-.66,2.32,2.32,0,0,1,2.78,1.78Z"/><path class="cls-3" d="M150,130.71a2.31,2.31,0,0,1-2.23,2.82,2.31,2.31,0,0,1-1.3-.37,2.26,2.26,0,0,1-.88-1,2.37,2.37,0,0,1-.16-1.34,2.47,2.47,0,0,1,.62-1.21,2.27,2.27,0,0,1,1.18-.65,2.36,2.36,0,0,1,1.76.31A2.32,2.32,0,0,1,150,130.71Z"/><path class="cls-3" d="M134.52,131.78a2.31,2.31,0,0,1-2.23,2.82,2.31,2.31,0,0,1-1.3-.37,2.26,2.26,0,0,1-.88-1,2.37,2.37,0,0,1-.16-1.34,2.47,2.47,0,0,1,.62-1.21,2.27,2.27,0,0,1,1.18-.65,2.36,2.36,0,0,1,1.76.31A2.32,2.32,0,0,1,134.52,131.78Z"/><path class="cls-3" d="M126.41,145.71a2.31,2.31,0,0,1-2.23,2.82,2.31,2.31,0,0,1-1.3-.37,2.26,2.26,0,0,1-.88-1,2.37,2.37,0,0,1-.16-1.34,2.47,2.47,0,0,1,.62-1.21,2.27,2.27,0,0,1,1.18-.65,2.36,2.36,0,0,1,1.76.31A2.32,2.32,0,0,1,126.41,145.71Z"/><path class="cls-3" d="M132.9,160.71a2.31,2.31,0,0,1-2.23,2.82,2.31,2.31,0,0,1-1.3-.37,2.26,2.26,0,0,1-.88-1,2.37,2.37,0,0,1-.16-1.34,2.47,2.47,0,0,1,.62-1.21,2.27,2.27,0,0,1,1.18-.65,2.36,2.36,0,0,1,1.76.31A2.32,2.32,0,0,1,132.9,160.71Z"/><path class="cls-3" d="M136.47,147.35a2.31,2.31,0,0,1-2.23,2.82,2.31,2.31,0,0,1-1.3-.37,2.26,2.26,0,0,1-.88-1,2.37,2.37,0,0,1-.16-1.34,2.47,2.47,0,0,1,.62-1.21,2.27,2.27,0,0,1,1.18-.65,2.15,2.15,0,0,1,.91,0,2.22,2.22,0,0,1,.85.33,2.3,2.3,0,0,1,.65.63A2.17,2.17,0,0,1,136.47,147.35Z"/><path class="cls-3" d="M148.22,155.28a2.34,2.34,0,0,1-.94,2.4,2.34,2.34,0,0,1-3.47-1,2.4,2.4,0,0,1-.16-1.35,2.32,2.32,0,0,1,1.79-1.86,2.34,2.34,0,0,1,1.76.31,2.28,2.28,0,0,1,1,1.47Z"/><path class="cls-3" d="M146.42,141.13a2.31,2.31,0,0,1-2.23,2.82,2.31,2.31,0,0,1-1.3-.37,2.26,2.26,0,0,1-.88-1,2.37,2.37,0,0,1-.16-1.34,2.47,2.47,0,0,1,.62-1.21,2.27,2.27,0,0,1,1.18-.65,2.36,2.36,0,0,1,1.76.31A2.32,2.32,0,0,1,146.42,141.13Z"/><path class="cls-3" d="M122.5,153.63a2.35,2.35,0,0,1-.1,1.34,2.34,2.34,0,0,1-4.31.09,2.4,2.4,0,0,1-.16-1.35,2.32,2.32,0,0,1,.62-1.2,2.29,2.29,0,0,1,1.17-.66,2.32,2.32,0,0,1,2.78,1.78Z"/><path class="cls-3" d="M124.46,140.44a2.31,2.31,0,0,1-2.23,2.82,2.31,2.31,0,0,1-1.3-.37,2.26,2.26,0,0,1-.88-1,2.37,2.37,0,0,1-.16-1.34,2.47,2.47,0,0,1,.62-1.21,2.27,2.27,0,0,1,1.18-.65,2.36,2.36,0,0,1,1.76.31A2.32,2.32,0,0,1,124.46,140.44Z"/><path class="cls-1" d="M133.83,72.61a22.55,22.55,0,1,1-6.62,15.91A22.51,22.51,0,0,1,133.83,72.61Z"/><path class="cls-2" d="M150.24,92.41a2.31,2.31,0,0,1,1.2-.64,2.36,2.36,0,0,1,1.34.13,2.39,2.39,0,0,1,1.05.86,2.41,2.41,0,0,1,.39,1.3,2.36,2.36,0,0,1-.39,1.29,2.39,2.39,0,0,1-1.05.86,2.28,2.28,0,0,1-1.34.13,2.33,2.33,0,0,1-1.2-3.93Z"/><path class="cls-2" d="M134.46,76.89a2.31,2.31,0,0,1,1.2-.64,2.36,2.36,0,0,1,1.34.13,2.39,2.39,0,0,1,1.05.86,2.41,2.41,0,0,1,.39,1.3,2.36,2.36,0,0,1-.39,1.29,2.39,2.39,0,0,1-1.05.86,2.28,2.28,0,0,1-1.34.13,2.27,2.27,0,0,1-1.7-1.39,2.28,2.28,0,0,1-.18-.89,2.33,2.33,0,0,1,.18-.9A2.24,2.24,0,0,1,134.46,76.89Z"/><path class="cls-2" d="M132,89.63a2.31,2.31,0,0,1,1.2-.64,2.36,2.36,0,0,1,1.34.13,2.39,2.39,0,0,1,1.05.86,2.41,2.41,0,0,1,.39,1.3,2.36,2.36,0,0,1-.39,1.29,2.39,2.39,0,0,1-1.05.86,2.28,2.28,0,0,1-1.34.13,2.27,2.27,0,0,1-1.7-1.39,2.28,2.28,0,0,1-.18-.89,2.33,2.33,0,0,1,.18-.9A2.24,2.24,0,0,1,132,89.63Z"/><path class="cls-2" d="M160.9,74.85a2.31,2.31,0,0,1,1.2-.64,2.36,2.36,0,0,1,1.34.13,2.39,2.39,0,0,1,1.05.86,2.41,2.41,0,0,1,.39,1.3,2.36,2.36,0,0,1-.39,1.29,2.39,2.39,0,0,1-1.05.86,2.36,2.36,0,0,1-2.54-.5,2.42,2.42,0,0,1-.51-.76,2.28,2.28,0,0,1-.18-.89,2.33,2.33,0,0,1,.18-.9A2.27,2.27,0,0,1,160.9,74.85Z"/><path class="cls-2" d="M159.43,100.63a2.31,2.31,0,0,1,1.2-.64,2.36,2.36,0,0,1,1.34.13A2.39,2.39,0,0,1,163,101a2.41,2.41,0,0,1,.39,1.3,2.36,2.36,0,0,1-.39,1.29,2.39,2.39,0,0,1-1.05.86,2.28,2.28,0,0,1-1.34.13,2.37,2.37,0,0,1-1.2-.63,2.42,2.42,0,0,1-.51-.76,2.3,2.3,0,0,1,.51-2.54Z"/><path class="cls-2" d="M137.55,100.58a2.31,2.31,0,0,1,1.2-.64,2.36,2.36,0,0,1,1.34.13,2.39,2.39,0,0,1,1,.86,2.41,2.41,0,0,1,.39,1.3,2.36,2.36,0,0,1-.39,1.29,2.39,2.39,0,0,1-1,.86,2.36,2.36,0,0,1-2.54-.5,2.39,2.39,0,0,1-.5-.76,2.28,2.28,0,0,1-.18-.89,2.33,2.33,0,0,1,.18-.9A2.24,2.24,0,0,1,137.55,100.58Z"/><path class="cls-2" d="M150,75.94a2.31,2.31,0,0,1,1.2-.64,2.36,2.36,0,0,1,1.34.13,2.39,2.39,0,0,1,1.05.86,2.41,2.41,0,0,1,.39,1.3,2.36,2.36,0,0,1-.39,1.29,2.39,2.39,0,0,1-1.05.86,2.28,2.28,0,0,1-1.34.13,2.33,2.33,0,0,1-1.2-3.93Z"/><path class="cls-2" d="M142.47,86.78a2.31,2.31,0,0,1,1.2-.64,2.36,2.36,0,0,1,1.34.13,2.39,2.39,0,0,1,1.05.86,2.41,2.41,0,0,1,.39,1.3,2.36,2.36,0,0,1-.39,1.29,2.39,2.39,0,0,1-1.05.86,2.28,2.28,0,0,1-1.34.13,2.33,2.33,0,0,1-1.2-3.93Z"/><path class="cls-2" d="M162.14,86.8a2.31,2.31,0,0,1,1.2-.64,2.36,2.36,0,0,1,1.34.13,2.39,2.39,0,0,1,1,.86,2.41,2.41,0,0,1,.39,1.3,2.36,2.36,0,0,1-.39,1.29,2.39,2.39,0,0,1-1,.86,2.28,2.28,0,0,1-1.34.13,2.37,2.37,0,0,1-1.2-.63,2.6,2.6,0,0,1-.51-.76,2.48,2.48,0,0,1-.18-.89,2.53,2.53,0,0,1,.18-.9A2.43,2.43,0,0,1,162.14,86.8Z"/><path class="cls-2" d="M146,97.92a2.31,2.31,0,0,1,1.2-.64,2.36,2.36,0,0,1,1.34.13,2.39,2.39,0,0,1,1,.86,2.41,2.41,0,0,1,.39,1.3,2.36,2.36,0,0,1-.39,1.29,2.39,2.39,0,0,1-1,.86,2.28,2.28,0,0,1-1.34.13,2.27,2.27,0,0,1-1.7-1.39,2.28,2.28,0,0,1-.18-.89,2.33,2.33,0,0,1,.18-.9A2.24,2.24,0,0,1,146,97.92Z"/><path class="cls-2" d="M139.63,70.71a2.31,2.31,0,0,1,1.2-.64,2.36,2.36,0,0,1,1.34.13,2.39,2.39,0,0,1,1.05.86,2.41,2.41,0,0,1,.39,1.3,2.36,2.36,0,0,1-.39,1.29,2.39,2.39,0,0,1-1.05.86,2.28,2.28,0,0,1-1.34.13,2.33,2.33,0,0,1-1.2-3.93Z"/><path class="cls-3" d="M148.13,103.25a2.31,2.31,0,0,1,1.2-.64,2.36,2.36,0,0,1,1.34.13,2.39,2.39,0,0,1,1.05.86,2.41,2.41,0,0,1,.39,1.3,2.36,2.36,0,0,1-.39,1.29,2.39,2.39,0,0,1-1.05.86,2.36,2.36,0,0,1-2.54-.5,2.39,2.39,0,0,1-.5-.76,2.28,2.28,0,0,1-.18-.89,2.33,2.33,0,0,1,.18-.9A2.24,2.24,0,0,1,148.13,103.25Z"/><path class="cls-3" d="M147.45,69.13a2.31,2.31,0,0,1,1.2-.64,2.36,2.36,0,0,1,1.34.13,2.39,2.39,0,0,1,1,.86,2.41,2.41,0,0,1,.39,1.3,2.36,2.36,0,0,1-.39,1.29,2.39,2.39,0,0,1-1,.86,2.28,2.28,0,0,1-1.34.13,2.37,2.37,0,0,1-1.2-.63,2.6,2.6,0,0,1-.51-.76,2.48,2.48,0,0,1-.18-.89,2.53,2.53,0,0,1,.18-.9A2.43,2.43,0,0,1,147.45,69.13Z"/><path class="cls-3" d="M131.46,82.15a2.31,2.31,0,0,1,1.2-.64,2.36,2.36,0,0,1,1.34.13,2.39,2.39,0,0,1,1.05.86,2.41,2.41,0,0,1,.39,1.3,2.36,2.36,0,0,1-.39,1.29A2.39,2.39,0,0,1,134,86a2.28,2.28,0,0,1-1.34.13,2.33,2.33,0,0,1-1.2-3.93Z"/><path class="cls-3" d="M140.69,94.56a2.31,2.31,0,0,1,1.2-.64,2.36,2.36,0,0,1,1.34.13,2.39,2.39,0,0,1,1.05.86,2.41,2.41,0,0,1,.39,1.3,2.36,2.36,0,0,1-.39,1.29,2.39,2.39,0,0,1-1.05.86,2.36,2.36,0,0,1-2.54-.5,2.39,2.39,0,0,1-.5-.76,2.28,2.28,0,0,1-.18-.89,2.33,2.33,0,0,1,.18-.9A2.24,2.24,0,0,1,140.69,94.56Z"/><path class="cls-3" d="M156.76,93.93a2.31,2.31,0,0,1,1.2-.64,2.36,2.36,0,0,1,1.34.13,2.39,2.39,0,0,1,1,.86,2.41,2.41,0,0,1,.39,1.3,2.36,2.36,0,0,1-.39,1.29,2.39,2.39,0,0,1-1,.86,2.28,2.28,0,0,1-1.34.13,2.33,2.33,0,0,1-1.2-3.93Z"/><path class="cls-3" d="M165.9,80.33a2.34,2.34,0,0,1,4,1.65,2.31,2.31,0,0,1-1.45,2.16,2.3,2.3,0,0,1-1.35.13,2.43,2.43,0,0,1-1.2-.64,2.38,2.38,0,0,1-.68-1.65A2.35,2.35,0,0,1,165.9,80.33Z"/><path class="cls-3" d="M152.77,84.54a2.31,2.31,0,0,1,1.2-.64,2.36,2.36,0,0,1,1.34.13,2.39,2.39,0,0,1,1.05.86,2.41,2.41,0,0,1,.39,1.3,2.36,2.36,0,0,1-.39,1.29,2.39,2.39,0,0,1-1.05.86,2.36,2.36,0,0,1-2.54-.5,2.38,2.38,0,0,1-.68-1.65A2.35,2.35,0,0,1,152.77,84.54Z"/><path class="cls-3" d="M153.13,70.37a2.34,2.34,0,0,1,4,1.65,2.31,2.31,0,0,1-1.45,2.16,2.3,2.3,0,0,1-1.35.13,2.35,2.35,0,0,1-1.2-.64,2.38,2.38,0,0,1-.68-1.65A2.35,2.35,0,0,1,153.13,70.37Z"/><path class="cls-3" d="M142.18,79.5a2.31,2.31,0,0,1,1.2-.64,2.36,2.36,0,0,1,1.34.13,2.39,2.39,0,0,1,1.05.86,2.41,2.41,0,0,1,.39,1.3,2.36,2.36,0,0,1-.39,1.29,2.39,2.39,0,0,1-1.05.86,2.36,2.36,0,0,1-2.54-.5,2.38,2.38,0,0,1-.68-1.65A2.35,2.35,0,0,1,142.18,79.5Z"/><path class="cls-3" d="M165.58,92.94a2.31,2.31,0,0,1,1.2-.64,2.36,2.36,0,0,1,1.34.13,2.39,2.39,0,0,1,1,.86,2.41,2.41,0,0,1,.39,1.3,2.36,2.36,0,0,1-.39,1.29,2.39,2.39,0,0,1-1,.86,2.28,2.28,0,0,1-1.34.13,2.33,2.33,0,0,1-1.2-3.93Z"/><path class="cls-3" d="M153.4,98.38a2.34,2.34,0,0,1,4,1.65,2.31,2.31,0,0,1-1.45,2.16,2.3,2.3,0,0,1-1.35.13,2.35,2.35,0,0,1-1.2-.64,2.38,2.38,0,0,1-.68-1.65A2.35,2.35,0,0,1,153.4,98.38Z"/></svg>