<svg id="Camada_1" data-name="Camada 1" xmlns="http://www.w3.org/2000/svg" viewBox="0 0 200 200"><defs><style>.cls-1{fill:#71a158;fill-rule:evenodd;}</style></defs><path class="cls-1" d="M55.87,31.16c5.77-5,5.68-7.81,17.61-8.68s7.5-4.85,19-5.22S105,18.7,112.56,20.64s10.59-3.84,16.26,1.25,5.28,2.53,8,5.43,5.38-.05,8.42,4,5.32,7.45,9.34,12.4,11.06,5,13.68,10,3.47,8,6.92,15.57,7.64,11.32,8.77,23.91-7,9.29-6.48,19.1S179,128,175.37,134.47s-7.09,7.87-8.3,11.69-6.82,8.57-8.78,11.25-8.52,3-13.19,7.73-6.75,10-15.68,14-12.74-1.2-19.24.08-10.1,4.28-15.54,3.4-4.53-5.85-10-6.27-7.2,1.56-11.48.38-8.91-4.45-13-6.82-6.45,2.23-14.83-5.3S38,154.47,33.54,149.55s-6.92-6.7-11.18-11.83-1.73-1.55-1-10.26-1.58-11.62-4.58-15.23,2.95-6.25,2.31-9.5-2.19-5.52-2.27-11.84,2.8-4.6,3.9-10.28.14-15,2-19.57,7.21-5.53,11.91-9.78S36.19,40.64,43,36.53,49.72,36.45,55.87,31.16Z"/></svg>