<svg id="Camada_1" data-name="Camada 1" xmlns="http://www.w3.org/2000/svg" viewBox="0 0 200 200"><defs><style>.cls-1{fill:#ffb7a1;}.cls-1,.cls-2{fill-rule:evenodd;}.cls-2{fill:#fc5826;}</style></defs><path class="cls-1" d="M117.13,93.94c-18.3-26.64-41.36,1.11-21.24,17.11,2.42,1.93,5.74.67,3.6-2.24C88,93.25,101.75,86.6,109.87,99.07,115.06,107,121.39,100.11,117.13,93.94Z"/><path class="cls-2" d="M117,93.78A35,35,0,0,0,112.12,88l-4.82,6.82v1a19.14,19.14,0,0,1,2,2.4l7.68-4.5Zm-9.73-7.62V84.57c.15.08.3.15.44.24Zm0,8.68-.44.62.44.42v-1Zm0-10.27v1.59l-2.53,7.75A9,9,0,0,0,101,92.59L98.6,83.06a13.63,13.63,0,0,1,8.7,1.52Zm-8.7,24.91v-2a12.2,12.2,0,0,0,.73,1l-.73.92Zm0-16.66a4.77,4.77,0,0,0-2.77,2.31l-1.45-.7V86.22l4.22,6.57Zm0,14.7v2l-1.73,2.16a4.39,4.39,0,0,1-1-.59c-.49-.44-1-.89-1.49-1.36v-2.82l2.75-1.86c.42.79.92,1.61,1.49,2.47Zm-4.22-4V98.6l.74-.09a12.9,12.9,0,0,0,.91,4.21Zm0-17.24v8.15l-5.51-2.58a13.66,13.66,0,0,1,4.81-6.72l.7,1.09Zm0,12.32v4.92l-3.7,1.78a17,17,0,0,1-2.32-6l6-.72Zm0,8.34v2.82a20.39,20.39,0,0,1-1.65-1.7Z"/><path class="cls-1" d="M127.63,60.86C159,53.08,141.12,21.75,119.07,35c-2.65,1.59-2.64,5.15.83,4.16,18.61-5.29,20,9.91,5.48,13.14C116.13,54.32,120.37,62.66,127.63,60.86Z"/><path class="cls-2" d="M133.48,58.91q.77-.33,1.47-.69l-1.47-2.15Zm0-8.46V47.86a7.68,7.68,0,0,0,1.09-1.66l9.77,1.11a13.71,13.71,0,0,1-4.85,7.95l-6-4.81ZM144.13,42a13.58,13.58,0,0,0-4.59-6.87L134,40.48a4.73,4.73,0,0,1,1.2,3.41ZM127.86,60.81a36.54,36.54,0,0,0,5.66-1.9V56.07l-3.66-5.38A17.76,17.76,0,0,1,126.35,52Zm5.66-13v2.57l-1.47-1.17a10.38,10.38,0,0,0,1.47-1.42ZM132.77,32a17.27,17.27,0,0,0-6.41.08L126.9,38a12.8,12.8,0,0,1,4.26.63Zm-9.72,1a24.74,24.74,0,0,0-3.94,1.92,5,5,0,0,0-.89.7l2,3.38a28.13,28.13,0,0,1,4.06-.84Z"/><path class="cls-1" d="M175,110.84c9.84-30.79-26.22-32-26.54-6.31,0,3.1,3,5,4,1.48,5.25-18.62,18.94-11.83,14.06,2.23C163.36,117.19,172.68,118,175,110.84Z"/><path class="cls-2" d="M175,110.64a34.62,34.62,0,0,0,1.54-7.41l-9.11.41a17,17,0,0,1-.63,3.46v.26Zm-8.2-12V96.36l5.38-6.85a13.77,13.77,0,0,1,4.21,8.3l-9,3.23a10.51,10.51,0,0,0-.58-2.4Zm0-9.75V86.73l.69.18Zm0,18.22-.07.23h.07v-.23Zm0-20.37v2.15l-2.34,6.61a4.92,4.92,0,0,0-1.69-.74,4.75,4.75,0,0,0-1.84,0l-1.69-7.5A13.71,13.71,0,0,1,166.82,86.74Zm0,9.62v2.28a8.32,8.32,0,0,0-.7-1.4Zm-13.73-5a17.06,17.06,0,0,0-3.3,5.5l5.32,2.65a12.87,12.87,0,0,1,2.76-3.3l-4.74-4.85Zm-4.23,8.81a23.7,23.7,0,0,0-.44,4.36,4.78,4.78,0,0,0,.13,1.13h3.94a30.26,30.26,0,0,1,1.41-3.9Z"/><path class="cls-1" d="M25.42,105.37C47.56,128.92,66.13,98,43.81,85.23,41.12,83.7,38,85.45,40.59,88c13.73,13.63,1.15,22.3-8.78,11.22C25.49,92.15,20.29,99.93,25.42,105.37Z"/><path class="cls-2" d="M46.19,106.22v-5l.12-.32,7.38,2.16A13.58,13.58,0,0,1,50,110.43l-3.76-4.26Zm0-10V92.63l3.67-2.52a17.23,17.23,0,0,1,3.2,5.55L46.5,97.5A11.36,11.36,0,0,0,46.19,96.22Zm0-7.39v-2.1a12.69,12.69,0,0,1,1.22,1Zm0-2.1v2.1l-1.52,1.42V85.71c.53.33,1,.67,1.52,1Zm0,5.9v3.59A15.72,15.72,0,0,0,45,93.47Zm0,8.6v5l-1.52-1.71v-1.31a4.57,4.57,0,0,0,1.52-1.93ZM44.67,113.5v-2l.75,1.77a6.31,6.31,0,0,1-.75.27Zm-19.11-8a35,35,0,0,0,5.74,5l4.06-8.17a16.6,16.6,0,0,1-2.89-2.4l-6.91,5.62ZM44.67,85.73v4.54l-1.14,1.06a28.91,28.91,0,0,0-2.72-3.13c.62-1.11,1.31-2.31,2-3.42a5,5,0,0,1,1,.43C44.1,85.38,44.39,85.55,44.67,85.73Zm0,17.45v1.31l-.75-.85A3.59,3.59,0,0,0,44.67,103.18Zm0,8.34-3.07-7.29a9,9,0,0,1-3.94-.73L36.13,113a14,14,0,0,0,8.56.57Z"/><path class="cls-1" d="M77.22,141c-31.77-6-28.53,30-3,27.11,3.08-.34,4.54-3.58,1-4.13-19.09-2.91-14.09-17.33.47-14.23C85,151.7,84.57,142.35,77.22,141Z"/><path class="cls-2" d="M77,140.93a35.42,35.42,0,0,0-7.55-.61l1.53,9a16.82,16.82,0,0,1,3.75.24L77,140.94ZM59.84,158v-5.47l3.44.75a4.75,4.75,0,0,0-.33,3.6Zm0-9.56V143a15.58,15.58,0,0,1,4.27-1.9l4.31,8.54a9.2,9.2,0,0,0-3.61,1.75l-5-3Zm.76,16.66a17.32,17.32,0,0,0,5.86,2.59l2-5.6a12.5,12.5,0,0,1-3.62-2.34l-4.21,5.35Zm9.26,3.11a24.64,24.64,0,0,0,4.38-.11,4.52,4.52,0,0,0,1.1-.26c-.14-1.28-.29-2.66-.44-3.92a29,29,0,0,1-4-.92ZM59.86,143v5.39l-3.45-2.07a12.64,12.64,0,0,1,3.45-3.31Zm0,9.47V158l-4.14,1.45a13.51,13.51,0,0,1-1.32-8.15Z"/><path class="cls-1" d="M75,62.88C96.29,38.59,63.73,23.06,53.13,46.49c-1.27,2.82.77,5.73,3.06,2.94,12.26-15,22.09-3.27,12,7.67C61.78,64.06,70,68.5,75,62.88Z"/><path class="cls-2" d="M75.13,62.72a34.38,34.38,0,0,0,4.38-6.18l-4.64-1.78v7.67l.26.26Zm-.26-11.66V45.51L81,42.22a13.69,13.69,0,0,1,.54,9.29Zm0-10V36.18A13.64,13.64,0,0,1,77.75,38Zm0,13.71L71,53.29a17.29,17.29,0,0,1-2.11,3.1l6,6.08v-7.7Zm0-18.59v4.88l-3.33,3.57a4.6,4.6,0,0,0-1.25-1.35,5,5,0,0,0-1.68-.77L70.06,35A14.1,14.1,0,0,1,74.87,36.18Zm0,9.34v5.55L72,50.88a9.17,9.17,0,0,0,.35-4l2.52-1.37ZM58.42,47.05V45.43l.9.79c-.3.27-.6.55-.9.86Zm0-6V39.12a16.87,16.87,0,0,1,4.33-2.86l2.38,6.37a13,13,0,0,0-3.86,1.92Zm0-1.93v1.93L57.52,40C57.82,39.68,58.12,39.39,58.42,39.12Zm0,6.25V47c-.64.64-1.3,1.35-2,2.15l-3.59-1.62a4.64,4.64,0,0,1,.33-1.08,24.39,24.39,0,0,1,2.15-3.83Z"/><path class="cls-1" d="M145.4,148.28c-18.27-26.65-41.35,1.15-21.27,17.15,2.42,1.93,5.75.67,3.6-2.23-11.46-15.62,2.29-22.27,10.4-9.77C143.32,161.34,149.64,154.43,145.4,148.28Z"/><path class="cls-2" d="M145.29,148.11a35.58,35.58,0,0,0-4.92-5.76l-4.82,6.82v1a17.56,17.56,0,0,1,2,2.4l7.69-4.5Zm-9.74-7.62V138.9l.45.24Zm0,8.68-.44.63.44.41v-1Zm0-10.27v1.59L133,148.24a9.34,9.34,0,0,0-3.79-1.32l-2.39-9.49a13.7,13.7,0,0,1,8.7,1.52Zm-8.7,24.91v-2a12.2,12.2,0,0,0,.73,1l-.73.92Zm0-16.66a4.73,4.73,0,0,0-2.72,2.28l-1.45-.68v-8.21l4.22,6.57Zm0,14.7v2L125.13,166a3.88,3.88,0,0,1-1-.59c-.54-.43-1-.87-1.53-1.31v-2.83l2.74-1.86c.45.85,1,1.67,1.48,2.47Zm-4.22-4v-4.92l.74-.09a12.9,12.9,0,0,0,.91,4.21Zm0-17.24v8.21l-5.5-2.61A13.55,13.55,0,0,1,122,139.5l.69,1.08Zm0,12.32v4.92l-3.7,1.78a17.23,17.23,0,0,1-2.32-6l6-.73Zm0,8.34v2.83c-.59-.56-1.14-1.13-1.65-1.7Z"/></svg>