<svg id="Camada_1" data-name="Camada 1" xmlns="http://www.w3.org/2000/svg" viewBox="0 0 200 200"><defs><style>.cls-1{fill:#c00;}.cls-1,.cls-2,.cls-3,.cls-4,.cls-5{fill-rule:evenodd;}.cls-2{fill:#f50000;}.cls-3{fill:#ff4f4f;}.cls-4{fill:#ffd966;}.cls-5{fill:#ff7373;}</style></defs><path class="cls-1" d="M132.89,42.24c7.51,0,10.7,7.36,9,13.56-1.62,6-5.8,10.83-15.62,10.83s-14-4.8-15.61-10.83c-1.67-6.2,1.53-13.56,9-13.56a14.46,14.46,0,0,1,3.57.63A14.87,14.87,0,0,0,129,43,13.29,13.29,0,0,1,132.89,42.24Z"/><path class="cls-2" d="M132.89,44.81c7.51,0,10.7,7,9,12.84s-5.8,10.26-15.62,10.26-14-4.54-15.61-10.26,1.53-12.84,9-12.84a10.17,10.17,0,0,1,6.57,2.31A10.18,10.18,0,0,1,132.89,44.81Z"/><path class="cls-1" d="M134.31,47.39c-3.51-.29-6.77,2.89-7.29,7.14s1.9,7.94,5.41,8.23,6.76-2.89,7.29-7.13S137.78,47.7,134.31,47.39Z"/><path class="cls-1" d="M118.31,47.39c3.51-.29,6.78,2.89,7.29,7.14s-1.9,7.94-5.41,8.23-6.77-2.89-7.29-7.13S114.81,47.7,118.31,47.39Z"/><path class="cls-3" d="M124.87,46.38c-.23,1.58,0,4-1.68,5s-2,.52-2.82.93-3.17-2.45-2.47-.82-3.7.12-2.17,1.12,4.23,2.17,2.52,2.17-2.58.64-.7.7,2.58.65.94.93-3.35,1.29-1.35,1.11,2.29,0,1.49,1.49-1.24,2.28.64,1.17,2.18-.76,2.12.3.3.06,1.18.35,2.4,1.46,2.64,4.1c.36,4,1.86,4,2.22,0,.24-2.64,1.76-3.81,2.64-4.1s1.24.69,1.19-.35.23-1.41,2.11-.3,1.46.3.64-1.17-.53-1.58,1.47-1.41.29-.82-1.35-1.11-.94-.87.94-.93,1-.7-.71-.7,1-1.18,2.54-2.17-2.89.53-2.18-1.12-1.71,1.23-2.47.82-1.17.12-2.82-.93-1.46-3.46-1.68-5C127.42,44.27,125.18,44.27,124.87,46.38Z"/><path class="cls-3" d="M124.87,46.45c-.23,1.57,0,4-1.68,5s-2,.52-2.82.93-3.17-2.45-2.47-.82-3.7.12-2.17,1.12,4.23,2.16,2.52,2.16-2.58.63-.7.69,2.58.65.94.94-3.35,1.28-1.35,1.1,2.29,0,1.49,1.49-1.24,2.27.64,1.16,2.18-.76,2.12.3.3.06,1.18.35,2.4,1.46,2.64,4.09c.36,4,1.86,4,2.22,0,.24-2.63,1.76-3.8,2.64-4.09s1.24.69,1.19-.35.23-1.4,2.11-.3,1.46.3.64-1.16-.53-1.58,1.47-1.41.29-.81-1.35-1.1-.94-.88.94-.94,1-.69-.71-.69,1-1.18,2.54-2.16-2.89.53-2.18-1.12-1.71,1.23-2.47.82-1.17.12-2.82-.93-1.46-3.45-1.68-5a2.16,2.16,0,0,0-.1-.44,9.79,9.79,0,0,0-1.39,1,9.07,9.07,0,0,0-1.31-1C124.92,46.21,124.89,46.33,124.87,46.45Z"/><path class="cls-4" d="M114.12,51.75c0-.35.66-.58,1.36-.51s1.25.38,1.2.73-.65.59-1.36.53S114.12,52.1,114.12,51.75Z"/><path class="cls-4" d="M115.4,57.14c0-.34.46-.69,1.17-.76s1.33.12,1.39.47-.47.68-1.17.77S115.45,57.48,115.4,57.14Z"/><path class="cls-4" d="M118,61.38c-.16-.19,0-.59.25-.89a.65.65,0,0,1,.88-.17c.2.19,0,.59-.25.89S118.16,61.58,118,61.38Z"/><path class="cls-4" d="M134.38,50a.89.89,0,0,0-.89.45c-.21.33-.13.67.16.78s.68-.11.89-.44S134.67,50.05,134.38,50Z"/><path class="cls-4" d="M138.5,51.75c0-.35-.65-.58-1.35-.51s-1.25.38-1.21.73.64.59,1.36.53S138.54,52.1,138.5,51.75Z"/><path class="cls-4" d="M137.22,57.14c0-.34-.45-.69-1.18-.76s-1.32.12-1.38.47.47.68,1.18.77S137.11,57.48,137.22,57.14Z"/><path class="cls-4" d="M134.59,61.38c.17-.19,0-.59-.27-.89s-.7-.36-.87-.17-.06.59.26.89S134.41,61.58,134.59,61.38Z"/><path class="cls-5" d="M125.87,46.22c.95.28.62,6.16,1.86,6.72s1.78.24,2.91-.11,2.86-1.45,2.21-.63,2.76-.54,1.54.14-3.89,1.62-3,1.73,1.23.18,0,.79-.44,1.06.51,1.16.31.5-.68.61,1.71,1.73.41,1.28-1.2,1.83-2,1a2.15,2.15,0,0,0-1.82-.33,2.08,2.08,0,0,0-.84.45,2.12,2.12,0,0,0-.57.76c-.68,2.26-.71,2.26-1.39,0a2.21,2.21,0,0,0-.56-.76,2.14,2.14,0,0,0-.84-.45,2,2,0,0,0-1,0,2.07,2.07,0,0,0-.88.37c-.81.84-.72-1.46-2-1s1.41-1.18.42-1.28-1.64-.5-.69-.61,1.71-.57.51-1.16-.88-.68,0-.79-1.74-1.06-3-1.73,2.19.67,1.54-.14,1.09.28,2.22.63,1.64.68,2.9.11.9-6.44,1.87-6.72h.11a.11.11,0,0,1,0-.09.13.13,0,0,1,.09,0,.14.14,0,0,1,.13.13Z"/><path class="cls-1" d="M100.43,52.15c-4,6.23-11.69,4.91-15.88.18s-5.7-10.64-.46-18.79,11.37-9.07,17.14-7.12c6,2,10.19,8.58,6.18,14.81A14.4,14.4,0,0,1,105,43.86a15.34,15.34,0,0,0-3.1,4.68A13.35,13.35,0,0,1,100.43,52.15Z"/><path class="cls-2" d="M99.11,50.85c-4,6.25-11.69,4.93-15.87.19s-5.66-10.7-.41-18.77S94.19,23.19,100,25.1c6,2,10.19,8.59,6.18,14.84a9.63,9.63,0,0,1-5.48,4.14A9.9,9.9,0,0,1,99.11,50.85Z"/><path class="cls-1" d="M96.34,50.57c2.08-2.7,1.1-7.19-2.2-10s-7.66-2.92-9.74-.22-1.09,7.18,2.2,10S94.26,53.25,96.34,50.57Z"/><path class="cls-1" d="M104.57,38c-1.61,3-6.15,3.82-10,1.9S88.69,34,90.3,31.05s6.15-3.85,10-1.85S106.18,35.05,104.57,38Z"/><path class="cls-3" d="M101.85,43.79c-1.18-1-3.25-2.33-3.23-4.39s.66-2.11.73-3,3.72-1.38,2-1.71,1.88-3.33.24-2.56-4,2.48-3.12,1,.85-2.65-.2-1.06-2,1.9-1.28.29.74-3.71-.18-1.84-1.18,2.11-2,.48-1.21-2.41-1.31-.1S93,33.2,92.13,32.54s-.2.22-.91.83-2.49,1.28-4.78,0c-3.5-2-4.3-.68-1.19,2a4.91,4.91,0,0,1,2,4.69c-.22.94-1.23.69-.33,1.25s1,1.06-.89,2-1,1.12.6,1.24,1.59.45.38,2.11.51.73,1.63-.54,1.22-.33.26,1.37,0,1.29,1-.22.42,1.56.42,3.48,1.11-2.84,2.08-1.28-.1-2.2.64-2.65.54-1,2.28-1.94,3.62.72,5,1.43C102.22,47.27,103.41,45.29,101.85,43.79Z"/><path class="cls-3" d="M102.36,43.79c-1.21-1-3.34-2.33-3.32-4.39s.68-2.11.75-3,3.82-1.38,2-1.71,1.93-3.33.25-2.56-4.15,2.48-3.2,1,.87-2.65-.21-1.06-2,1.9-1.31.29.75-3.71-.19-1.84-1.21,2.11-2,.48-1.25-2.41-1.35-.1-.55,2.35-1.41,1.69-.21.22-.93.83-2.56,1.28-4.92,0c-3.59-2-4.41-.68-1.21,2a4.87,4.87,0,0,1,2,4.69c-.23.94-1.27.69-.34,1.25s1,1.06-.92,2-1,1.12.62,1.24,1.63.45.39,2.11.53.73,1.68-.54S90,45.8,89,47.5s0,1.29,1-.22.43,1.56.43,3.48,1.14-2.84,2.13-1.28-.1-2.2.67-2.65.55-1,2.34-1.94,3.72.72,5.17,1.43a2.5,2.5,0,0,0,.38.15,11,11,0,0,0-.09-1.81,9.37,9.37,0,0,0,1.52-.59Z"/><path class="cls-4" d="M102.56,35.37a.52.52,0,0,1-.71.42.78.78,0,0,1-.56-.79.52.52,0,0,1,.71-.43A.78.78,0,0,1,102.56,35.37Z"/><path class="cls-4" d="M102.44,32c.21.14.15.52-.13.87a.73.73,0,0,1-.9.29c-.21-.15-.15-.53.14-.83S102.25,31.88,102.44,32Z"/><path class="cls-4" d="M99.88,32c.2.15.14.52-.14.87a.74.74,0,0,1-.9.29c-.2-.15-.15-.53.13-.83S99.66,31.87,99.88,32Z"/><path class="cls-4" d="M97.19,30.71c.27.1.33.44.1.81a.84.84,0,0,1-.9.43c-.28-.09-.32-.44-.1-.8A.84.84,0,0,1,97.19,30.71Z"/><path class="cls-4" d="M94.07,29.41a.78.78,0,0,1,.77.58.54.54,0,0,1-.45.7.79.79,0,0,1-.79-.59A.53.53,0,0,1,94.07,29.41Z"/><path class="cls-4" d="M93.41,49.89c.25-.12.21-.49,0-.84a.82.82,0,0,0-.94-.34c-.23.12-.22.48,0,.84A.81.81,0,0,0,93.41,49.89Z"/><path class="cls-4" d="M90,51.2a.88.88,0,0,0,.91-.41c.23-.33.2-.67-.07-.81s-.67.09-.9.41S89.69,51.1,90,51.2Z"/><path class="cls-4" d="M88.67,48.63a.89.89,0,0,0,.91-.41c.23-.33.2-.67-.07-.8s-.67.08-.91.41S88.4,48.53,88.67,48.63Z"/><path class="cls-4" d="M86,47.31c.21.17.61,0,.9-.28s.36-.7.16-.87-.6,0-.89.27S85.8,47.14,86,47.31Z"/><path class="cls-4" d="M84.61,44.43c0,.32.38.46.73.33a.82.82,0,0,0,.53-.85.49.49,0,0,0-.73-.33A.84.84,0,0,0,84.61,44.43Z"/><path class="cls-5" d="M101.25,44.63c-.81.64-5.83-2.73-7-2S93,43.89,92.6,45s-.39,3.1-.73,2.14-1.15,2.53-1.07,1.17.82-4,.19-3.33-.87.91-.71-.38-.68-.92-1.33-.2-.63,0-.14-.87-2.54.47-1.38-.34-.92-1.95.3-2.16a2.21,2.21,0,0,0,.84-.52,2.15,2.15,0,0,0,.51-.79,1.92,1.92,0,0,0,.08-.92,2,2,0,0,0-.35-.86c-1.59-1.74-1.58-1.75.81-1.12a2.51,2.51,0,0,0,1-.06,2.37,2.37,0,0,0,.88-.45,2,2,0,0,0,.59-.74,1.94,1.94,0,0,0,.19-.91c-.28-1.1,1.71.19,2.06-1.11s.22,1.76.9,1,1.39-1.08.93-.24-.5,1.68.73,1,1.08-.36.68.44,2-.85,3.22-1.5-1.88,1.42-.77,1.32-.89.74-1.86,1.47-1.56,1-1.8,2.31,5.18,4.11,4.87,5c0,0,0,0,0,0a.07.07,0,0,1,0,.06S101.31,44.62,101.25,44.63Z"/><path class="cls-1" d="M55.44,38.53c5.22-5.18,12.47-2.27,15.54,3.19S74.32,53.24,67.5,60s-13,6.3-18.27,3.23-8.18-10.47-3-15.64a15,15,0,0,1,2.92-2,14.55,14.55,0,0,0,4-3.85A12.53,12.53,0,0,1,55.44,38.53Z"/><path class="cls-2" d="M56.75,39.81C62,34.64,69.2,37.55,72.27,43s3.33,11.5-3.51,18.25-13,6.3-18.21,3.23c-5.39-3.17-8.18-10.46-3-15.63A9.58,9.58,0,0,1,53.78,46,9.64,9.64,0,0,1,56.75,39.81Z"/><path class="cls-1" d="M59.67,40.86c-2.74,2.24-2.69,7,.08,10.6s7.25,4.69,10,2.43,2.69-7-.1-10.6S62.39,38.6,59.67,40.86Z"/><path class="cls-1" d="M48.5,51.88c2.11-2.68,6.47-2.57,9.76.26s4.21,7.34,2.1,10-6.48,2.58-9.76-.24S46.4,54.58,48.5,51.88Z"/><path class="cls-3" d="M52.46,46.55c1,1.28,2.74,2.85,2.31,4.74s-1.07,1.81-1.32,2.63-4,.47-2.3,1.14-2.53,2.66-.76,2.3,4.47-1.41,3.28-.22-1.37,2.26,0,1,2.26-1.34,1.31,0-1.46,3.25-.18,1.73,1.58-1.64,2,0,.72,2.47,1.27.38,1-2.06,1.69-1.27.25-.17,1.07-.57,2.71-.64,4.7,1.07c3.06,2.6,4.11,1.56,1.57-1.55a4.48,4.48,0,0,1-1-4.75c.41-.83,1.35-.36.58-1.07S65.86,51,68,50.43s1.24-.81-.36-1.28-1.46-.75.06-2-.37-.78-1.72.15-1.28,0,0-1.32.21-1.19-1,0-.11-1.53.28-3.3-1.66,2.38-2.3.73-.35,2-1.17,2.29-.74.91-2.64,1.3-3.42-1.44-4.67-2.39C52.78,43.28,51.21,44.84,52.46,46.55Z"/><path class="cls-3" d="M52.46,46.55c1,1.28,2.74,2.85,2.31,4.74s-1.07,1.81-1.32,2.63-4,.47-2.3,1.14-2.53,2.66-.76,2.3,4.47-1.41,3.28-.22-1.37,2.26,0,1,2.26-1.34,1.31,0-1.46,3.25-.18,1.73,1.58-1.64,2,0,.72,2.47,1.27.38,1-2.06,1.69-1.27.25-.17,1.07-.57,2.71-.64,4.7,1.07c3.06,2.6,4.11,1.56,1.57-1.55a4.48,4.48,0,0,1-1-4.75c.41-.83,1.35-.36.58-1.07S65.86,51,68,50.43s1.24-.81-.36-1.28-1.46-.75.06-2-.37-.78-1.72.15-1.28,0,0-1.32.21-1.19-1,0-.11-1.53.28-3.3-1.66,2.38-2.3.73-.35,2-1.17,2.29-.74.91-2.64,1.3-3.42-1.44-4.67-2.39a1.79,1.79,0,0,0-.34-.22A8.16,8.16,0,0,0,53.83,46a9.38,9.38,0,0,0-1.59.23Z"/><path class="cls-4" d="M48.72,58.8c-.15-.22,0-.62.29-.9s.67-.34.86-.12,0,.6-.29.89S48.86,59,48.72,58.8Z"/><path class="cls-4" d="M52.57,58.8c-.15-.21,0-.62.28-.9s.69-.34.87-.13,0,.62-.3.9S52.71,59,52.57,58.8Z"/><path class="cls-4" d="M53.93,61.43c-.22-.14-.17-.51.11-.86a.75.75,0,0,1,.9-.3c.22.15.16.51-.11.86A.74.74,0,0,1,53.93,61.43Z"/><path class="cls-4" d="M56.93,62.78c-.35,0-.61-.62-.57-1.34s.35-1.26.7-1.23.61.62.58,1.32S57.32,62.79,56.93,62.78Z"/><path class="cls-4" d="M61.78,42.26c-.29.09-.38.43-.18.78a.89.89,0,0,0,.89.47c.29-.08.38-.43.18-.82A.79.79,0,0,0,61.78,42.26Z"/><path class="cls-4" d="M65.22,42.3c-.2-.15-.61,0-.9.28a.64.64,0,0,0-.14.87c.21.19.61,0,.9-.28S65.43,42.45,65.22,42.3Z"/><path class="cls-4" d="M66.51,44.87c-.21-.15-.61,0-.9.27s-.36.68-.14.87.6,0,.89-.28S66.72,45,66.51,44.87Z"/><path class="cls-4" d="M67.86,46.24c-.13-.23-.5-.19-.86.09a.75.75,0,0,0-.31.9c.15.22.51.18.82-.09S68,46.47,67.86,46.24Z"/><path class="cls-4" d="M69.19,50.54a.61.61,0,0,0-.65-.6.7.7,0,0,0-.63.7.59.59,0,0,0,.66.58A.66.66,0,0,0,69.19,50.54Z"/><path class="cls-5" d="M53.6,46.72c.9-.46,4.89,3.73,6.22,3.28s1.49-1,2.08-2,1-2.88,1.17-1.92,1.65-2.2,1.23-1-1.69,3.71-.94,3.16,1-.7.59.51.44,1,1.22.44.58.13-.08.86,2.51,0,1.23.59.43,2-.77,2a2.23,2.23,0,0,0-.91.34,2.08,2.08,0,0,0-.66.66,1.93,1.93,0,0,0-.3.86,1.86,1.86,0,0,0,.14.9c1.11,2,1.09,2-1,1a2.35,2.35,0,0,0-1-.16,2.44,2.44,0,0,0-1,.25,2.12,2.12,0,0,0-.74.62,2,2,0,0,0-.38.85c0,1.11-1.57-.5-2.19.68s.19-1.73-.62-1.14-1.56.77-.93.06.85-1.53-.46-1.13-1.14.13-.54-.55-2.07.44-3.43.81,2.07-1,1-1.12,1-.55,2.07-1,1.68-.65,2.21-1.92-4-4.94-3.45-5.76a.07.07,0,0,1,0-.06l0,0S53.5,46.72,53.6,46.72Z"/><path class="cls-1" d="M171.11,80.21c2.83,6.78-2.6,12.4-8.83,13.22-6.06.78-12-1.2-15.65-10.06s-1-14.41,3.88-18.12,12.81-3.69,15.64,3.1a14.59,14.59,0,0,1,.78,3.46A14.63,14.63,0,0,0,169,77,12.83,12.83,0,0,1,171.11,80.21Z"/><path class="cls-2" d="M169.83,80.21c2.82,6.79-2.6,12.41-8.84,13.22-6,.78-12-1.2-15.64-10.06s-1-14.4,3.87-18.12,12.81-3.67,15.64,3.1a9.55,9.55,0,0,1,.3,6.84A9.69,9.69,0,0,1,169.83,80.21Z"/><path class="cls-1" d="M167.79,83.24c-1.08-3-5.58-4.52-10.07-3.42s-7.23,4.43-6.14,7.42,5.58,4.52,10.06,3.42S168.88,86.24,167.79,83.24Z"/><path class="cls-1" d="M161,68.33c1.63,3.23-.22,7.6-4.18,9.84s-8.4,1.49-10-1.7.22-7.59,4.17-9.83S159.38,65.14,161,68.33Z"/><path class="cls-3" d="M164.6,74.14c-1.57.38-3.76,1.44-5.4.37s-1.29-1.63-2-2.17,1.08-3.74-.19-2.5-1.56-3.26-1.9-1.53-.39,4.59-1,3.07-1.62-2.07-.94-.37.4,2.54-.52,1.18-2.51-2.5-1.56-.79.94,2-.76,1.83-2.63-.25-.85,1,1.57,1.65.55,2,.06.28.13,1.18-.44,2.69-2.83,3.87c-3.65,1.82-3,3.15.87,1.93,2.57-.76,4.27.17,4.88.84s-.17,1.36.79,1,1.42-.32,1.1,1.77.3,1.42,1.35.14,1.29-1.06,1.9.79.89,0,.52-1.62.46-1.17,1.25.5,1,.62.38-.89,1.5.45,3.05,1.44-1.61-2.37.21-2.35-1.82-1.07-1.73-1.94-.57-1-.23-2.9,2.7-2.58,4.07-3.37C167.57,75.62,166.71,73.63,164.6,74.14Z"/><path class="cls-3" d="M165.21,74.14c-1.62.38-3.88,1.44-5.56.37s-1.34-1.63-2-2.17,1.11-3.74-.2-2.5-1.6-3.26-1.95-1.53-.41,4.59-1.05,3.07-1.66-2.07-1-.37.41,2.54-.54,1.18-2.59-2.5-1.61-.79,1,2-.78,1.83-2.71-.25-.88,1,1.62,1.65.57,2,.06.28.14,1.18-.46,2.69-2.92,3.87c-3.76,1.82-3.14,3.15.89,1.93,2.65-.76,4.41.17,5,.84s-.18,1.36.81,1,1.46-.32,1.14,1.77.3,1.42,1.39.14,1.32-1.06,2,.79.92,0,.55-1.62.47-1.17,1.27.5,1.05.62.4-.89,1.54.45,3.15,1.44-1.67-2.37.21-2.35-1.88-1.07-1.78-1.94-.59-1-.24-2.9,2.78-2.58,4.2-3.37a1.9,1.9,0,0,0,.33-.22,9.54,9.54,0,0,0-1.53-.86,9.25,9.25,0,0,0,.41-1.52A3,3,0,0,0,165.21,74.14Z"/><path class="cls-4" d="M159,69.3c.18.18.09.56-.22.87s-.7.4-.88.22-.09-.56.22-.87S158.76,69.09,159,69.3Z"/><path class="cls-4" d="M155.54,66.64a.85.85,0,0,1,.87.52.5.5,0,0,1-.28.74.89.89,0,0,1-.87-.52A.49.49,0,0,1,155.54,66.64Z"/><path class="cls-4" d="M153,69.21a.84.84,0,0,1,.87.52.5.5,0,0,1-.3.74.88.88,0,0,1-.86-.52A.49.49,0,0,1,153,69.21Z"/><path class="cls-4" d="M151.53,70.51a.87.87,0,0,1,.91.38c.25.32.25.69,0,.83s-.65-.06-.91-.39S151.28,70.63,151.53,70.51Z"/><path class="cls-4" d="M148.8,73.29c.1-.28.44-.33.8-.1a.81.81,0,0,1,.43.9c-.1.28-.44.32-.8.1A.83.83,0,0,1,148.8,73.29Z"/><path class="cls-4" d="M164,88.41c.25-.1.27-.45,0-.81s-.62-.51-.88-.4-.28.46,0,.81A.84.84,0,0,0,164,88.41Z"/><path class="cls-4" d="M161.41,88.41c.26-.1.28-.45,0-.81s-.62-.51-.88-.4-.28.46,0,.81S161.15,88.52,161.41,88.41Z"/><path class="cls-4" d="M158.66,88.44a.5.5,0,0,0,.33-.73.84.84,0,0,0-.84-.54.51.51,0,0,0-.34.74A.84.84,0,0,0,158.66,88.44Z"/><path class="cls-4" d="M155.51,88.43a.85.85,0,0,0,.88-.49c.18-.34.07-.68-.23-.76a.87.87,0,0,0-.88.5C155.1,88,155.2,88.35,155.51,88.43Z"/><path class="cls-5" d="M164.1,75.37c.11,1-4.95,3-5,4.34a3.49,3.49,0,0,0,1.1,2.67c.69.91,2.23,2.13,1.32,1.83s1.42,2.38.42,1.49-2.76-3-2.5-2.11.28,1.22-.65.34-1,0-.8.92-.3.48-.74-.41-.86,2.28-.93.88-1.92-.41-1.46-1.51a2.58,2.58,0,0,0,0-1,2.41,2.41,0,0,0-.37-.87,2.09,2.09,0,0,0-.68-.61,1.66,1.66,0,0,0-.84-.23c-2.12.23-2.13.2-.49-1.3A2.06,2.06,0,0,0,153,79a2.4,2.4,0,0,0,.08-1,2.17,2.17,0,0,0-.29-.9,2,2,0,0,0-.62-.68c-1-.44.92-1.23.13-2.27s1.47.87,1.21-.1-.16-1.73.27-.88,1.07,1.38,1.16,0,.25-1.09.66-.27.28-2,.42-3.44.2,2.3.65,1.38.15,1.13.25,2.32,0,1.8.92,2.75,5.72-1.63,6.29-.84a.05.05,0,0,1,0,0,.14.14,0,0,1,0,.06s0,0,0,0a.07.07,0,0,1,0,0s0,0,0,0A.05.05,0,0,1,164.1,75.37Z"/><path class="cls-1" d="M145.92,105.48c1.85-7,9.55-8.24,15-5.19,5.28,2.95,8.76,8,6.35,17.23s-8,11.94-14,12c-6.25.06-12.38-4.71-10.54-11.74a14,14,0,0,1,1.47-3.19,14.67,14.67,0,0,0,1.47-5.3A12.49,12.49,0,0,1,145.92,105.48Z"/><path class="cls-2" d="M147.2,105.48c1.85-7,9.55-8.24,15-5.19s8.76,8,6.34,17.23-7.95,11.94-14,12c-6.24.06-12.37-4.71-10.53-11.74a9.52,9.52,0,0,1,3.9-5.56A9.43,9.43,0,0,1,147.2,105.48Z"/><path class="cls-1" d="M150.35,104.86c-1.16,3.19,1.22,7.06,5.31,8.61s8.34.25,9.51-2.94-1.22-7.07-5.31-8.6S151.52,101.68,150.35,104.86Z"/><path class="cls-1" d="M146.27,120.16c.58-3.14,4.76-5.23,9.33-4.66s7.81,3.56,7.23,6.7-4.76,5.22-9.33,4.66S145.7,123.3,146.27,120.16Z"/><path class="cls-3" d="M147.39,113.76c1.43.59,3.74.95,4.33,2.75s0,2,.2,2.86-3.09,2.32-1.37,2.07-.79,3.43.51,2.26,3.08-3.37,2.66-1.8,0,2.54.49.82,1.24-2.23,1.12-.65.39,3.39.72,1.52.49-2.13,1.68-1,1.84,1.69,1.26-.31-.19-2.19.79-1.91.12-.26.61-.95a4.39,4.39,0,0,1,4.51-1.46c3.88.64,4.25-.74.54-2-2.43-.85-3.16-2.53-3.22-3.42s1-1,0-1.16-1.27-.55.24-2,.63-1.28-1-.87-1.63.1-1-1.69-.7-.47-1.38,1-1,.66-.65-1.08-.42-1.09-.84.47-.85-1.2-1.42-2.85S156,107,154.61,106s.75,1.9.17,2.47-.17,1.1-1.57,2.37-3.62.5-5.15.34C146,110.91,145.48,113,147.39,113.76Z"/><path class="cls-3" d="M146.55,113.76c1.49.59,3.89.95,4.51,2.75s0,2,.2,2.86-3.21,2.32-1.42,2.07-.82,3.43.53,2.26,3.21-3.37,2.77-1.8,0,2.54.51.82,1.29-2.23,1.16-.65.42,3.39.75,1.52.52-2.13,1.75-1,1.92,1.69,1.31-.31-.2-2.19.82-1.91.13-.26.64-.95,2-1.91,4.69-1.46c4,.64,4.43-.74.56-2-2.52-.85-3.28-2.53-3.34-3.42s1-1-.05-1.16-1.32-.55.25-2,.66-1.28-1-.87-1.69.1-1-1.69-.73-.47-1.44,1-1.09.66-.67-1.08-.44-1.09-.87.47-.89-1.2-1.48-2.85-.22,2.77-1.65,1.73.78,1.9.18,2.47-.18,1.1-1.63,2.37-3.76.5-5.36.34a2.81,2.81,0,0,0-.41,0,7.53,7.53,0,0,0,.64,1.52,8.47,8.47,0,0,0-1.27,1Z"/><path class="cls-4" d="M148.77,121.33c0-.35.47-.7,1.18-.78s1.32.13,1.39.47-.47.69-1.18.78S148.84,121.7,148.77,121.33Z"/><path class="cls-4" d="M150.37,125.65c-.31-.16-.4-.82-.22-1.57s.59-1.09.89-.94.4.81.21,1.49S150.63,125.79,150.37,125.65Z"/><path class="cls-4" d="M152.93,124.37c-.3-.08-.4-.4-.21-.78a.83.83,0,0,1,.88-.47c.3.08.4.41.21.78A.81.81,0,0,1,152.93,124.37Z"/><path class="cls-4" d="M155.71,125.67c-.35,0-.58-.66-.5-1.38s.39-1.23.75-1.18.57.67.5,1.37S156.08,125.71,155.71,125.67Z"/><path class="cls-4" d="M160.11,124.36a.88.88,0,0,1-.91-.41c-.23-.32-.21-.67.07-.8s.67.08.9.4S160.37,124.26,160.11,124.36Z"/><path class="cls-4" d="M154,105.26a.83.83,0,0,0,.31.91c.3.27.67.34.85.11s0-.63-.3-.91S154.11,105.06,154,105.26Z"/><path class="cls-4" d="M156,102.57a.8.8,0,0,0-.78.58.54.54,0,0,0,.46.7.79.79,0,0,0,.79-.58A.54.54,0,0,0,156,102.57Z"/><path class="cls-4" d="M158.57,105.13a.8.8,0,0,0-.79.59.55.55,0,0,0,.47.7.77.77,0,0,0,.77-.59A.54.54,0,0,0,158.57,105.13Z"/><path class="cls-4" d="M161.32,105.15a.88.88,0,0,0-.88.45c-.2.33-.13.66.16.78s.69-.11.89-.44S161.62,105.24,161.32,105.15Z"/><path class="cls-4" d="M164.13,107.88c-.13-.25-.49-.23-.84,0a.81.81,0,0,0-.35.93c.13.24.49.22.84,0A.8.8,0,0,0,164.13,107.88Z"/><path class="cls-5" d="M147.62,112.47c.53-.89,6.31,1,7.24-.14s.72-1.73.65-3-.7-3.27,0-2.4.19-2.93.55-1.52.61,4.35,1,3.45.5-1.19.8.17.94.72,1.3-.21.58-.18.43.85,2.19-1.28,1.39-.08,1.53,1.68.47,2.28a2.36,2.36,0,0,0-.62.78,2.32,2.32,0,0,0,0,1.93,2.26,2.26,0,0,0,.62.78c2.1,1.27,2.1,1.3-.36,1.41a2.18,2.18,0,0,0-.92.37,2.33,2.33,0,0,0-.68.72,2.15,2.15,0,0,0-.29.95,2.19,2.19,0,0,0,.14,1c.63,1-1.65.35-1.53,1.78s-.81-1.72-1.17-.75-.93,1.53-.78.53-.13-1.86-1.06-.82-.91.73-.78-.24-1.52,1.49-2.52,2.55,1.25-2,.26-1.58.57-1,1.22-2.1,1.12-1.48.87-2.9-6.23-2.58-6.25-3.63a.1.1,0,0,1,0-.12.1.1,0,0,1,0,0A.09.09,0,0,1,147.62,112.47Z"/><path class="cls-1" d="M119.62,78.31c5.24-5.16,12.49-2.26,15.57,3.2,3,5.31,3.35,11.51-3.5,18.26s-13,6.26-18.28,3.27-8.19-10.47-3-15.63a13.93,13.93,0,0,1,2.93-2,14.91,14.91,0,0,0,4-3.86A12.82,12.82,0,0,1,119.62,78.31Z"/><path class="cls-2" d="M120.9,79.59c5.23-5.16,12.48-2.25,15.54,3.2s3.35,11.51-3.49,18.26-13,6.3-18.26,3.22-8.18-10.46-3-15.63a9.62,9.62,0,0,1,6.23-2.84A9.74,9.74,0,0,1,120.9,79.59Z"/><path class="cls-1" d="M123.84,80.54c-2.72,2.07-2.69,6.43.1,9.74s7.24,4.29,10,2.22,2.68-6.42-.1-9.73S126.58,78.48,123.84,80.54Z"/><path class="cls-1" d="M112.69,91.5c2.11-2.45,6.47-2.34,9.76.23s4.2,6.68,2.08,9.09-6.47,2.33-9.75-.23S110.57,94,112.69,91.5Z"/><path class="cls-3" d="M116.64,86.33c.93,1.28,2.74,2.86,2.31,4.75s-1.07,1.81-1.33,2.62-4,.47-2.3,1.15-2.52,2.65-.75,2.3,4.47-1.41,3.28-.22-1.38,2.25,0,1,2.26-1.35,1.31,0-1.46,3.24-.18,1.73,1.58-1.64,2,0,.72,2.49,1.27.38,1-2,1.69-1.26.24-.16,1.07-.57,2.71-.64,4.71,1.06c3.05,2.62,4.11,1.58,1.56-1.54a4.49,4.49,0,0,1-1-4.75c.42-.78,1.36-.37.59-1.08s-.83-1.15,1.27-1.68,1.24-.81-.35-1.27-1.48-.76.05-2-.36-.79-1.73.16-1.26,0,0-1.32.22-1.2-1,0-.11-1.53.26-3.31-1.65,2.39-2.3.73-.34,2.07-1.16,2.31-.75.89-2.64,1.29-3.43-1.44-4.68-2.4C117,83.06,115.39,84.61,116.64,86.33Z"/><path class="cls-3" d="M116.64,86.33c.93,1.28,2.74,2.86,2.31,4.75s-1.07,1.81-1.33,2.62-4,.47-2.3,1.15-2.52,2.65-.75,2.3,4.47-1.41,3.28-.22-1.38,2.25,0,1,2.26-1.35,1.31,0-1.46,3.24-.18,1.73,1.58-1.64,2,0,.72,2.49,1.27.38,1-2,1.69-1.26.24-.16,1.07-.57,2.71-.64,4.71,1.06c3.05,2.62,4.11,1.58,1.56-1.54a4.49,4.49,0,0,1-1-4.75c.42-.78,1.36-.37.59-1.08s-.83-1.15,1.27-1.68,1.24-.81-.35-1.27-1.48-.76.05-2-.36-.79-1.73.16-1.26,0,0-1.32.22-1.2-1,0-.11-1.53.26-3.31-1.65,2.39-2.3.73-.34,2.07-1.16,2.31-.75.9-2.64,1.29-3.43-1.44-4.68-2.4l-.33-.22a8.88,8.88,0,0,0-.27,1.69,9.36,9.36,0,0,0-1.59.22A2.5,2.5,0,0,0,116.64,86.33Z"/><path class="cls-4" d="M114.14,93.86c.08-.29.42-.36.79-.17a.84.84,0,0,1,.45.9c-.08.29-.42.36-.79.16A.84.84,0,0,1,114.14,93.86Z"/><path class="cls-4" d="M113,97.31c-.29-.21,0-.62.57-.9a2.17,2.17,0,0,1,1.74-.13c.36.21,0,.62-.59.9A2.17,2.17,0,0,1,113,97.31Z"/><path class="cls-4" d="M116.74,98.59c-.14-.22,0-.61.29-.9s.67-.34.86-.13,0,.61-.29.9S116.89,98.8,116.74,98.59Z"/><path class="cls-4" d="M118.11,99.94c-.22-.14-.17-.51.11-.86a.74.74,0,0,1,.9-.3c.21.13.17.51-.11.85S118.32,100.08,118.11,99.94Z"/><path class="cls-4" d="M126,82.05c-.3.07-.38.41-.18.78a.8.8,0,0,0,.89.46c.3-.08.37-.41.17-.74A.91.91,0,0,0,126,82.05Z"/><path class="cls-4" d="M130.68,80.8c-.21-.14-.6,0-.89.29s-.36.66-.15.86.62,0,.9-.28S130.89,81,130.68,80.8Z"/><path class="cls-4" d="M130.68,83.44c-.21-.31-.6,0-.89.55a2.18,2.18,0,0,0-.15,1.74c.21.38.62,0,.9-.56A2.16,2.16,0,0,0,130.68,83.44Z"/><path class="cls-4" d="M133.26,86a2.12,2.12,0,0,0-1.71.1c-.68.28-.9.68-.63.9a2,2,0,0,0,1.7-.1C133.32,86.65,133.53,86.29,133.26,86Z"/><path class="cls-4" d="M134.66,89c0-.36-.61-.62-1.33-.59s-1.26.34-1.24.69.61.62,1.32.59S134.67,89.39,134.66,89Z"/><path class="cls-5" d="M117.73,85.41c.92-.5,4.92,4.06,6.25,3.57s1.49-1.11,2.08-2.2,1-3.14,1.19-2.09,1.65-2.42,1.22-1-1.69,4-.93,3.45,1-.77.58.55.45,1.11,1.23.49.58.14-.08.94,2.51,0,1.22.64.45,2.23-.77,2.2a2.32,2.32,0,0,0-.91.36,2.34,2.34,0,0,0-.67.73,2.4,2.4,0,0,0-.29.94,2.33,2.33,0,0,0,.13,1c1.13,2.09,1.11,2.17-1,1a2.14,2.14,0,0,0-1-.16,2.23,2.23,0,0,0-.94.28,2.42,2.42,0,0,0-.73.66,2.14,2.14,0,0,0-.37.91c0,1.23-1.58-.54-2.21.75s.2-1.89-.61-1.24-1.56.83-.94,0,.85-1.66-.47-1.23-1.13.15-.53-.6-2.08.49-3.44.89,2.08-1,1-1.23,1-.58,2.08-1.15,1.69-.7,2.21-2.09-4-5.4-3.45-6.28c0,0,0-.09,0-.1S117.68,85.41,117.73,85.41Z"/><path class="cls-1" d="M96,65.34c7.22,0,10.29,7.36,8.69,13.56-1.56,6-5.57,10.83-15,10.83s-13.44-4.8-15-10.83c-1.6-6.2,1.47-13.56,8.69-13.56a13.39,13.39,0,0,1,3.43.63,13.75,13.75,0,0,0,5.46.07A12.43,12.43,0,0,1,96,65.34Z"/><path class="cls-2" d="M96,66.63c7.22,0,10.29,7.35,8.69,13.55-1.56,6-5.57,10.84-15,10.84s-13.44-4.8-15-10.84c-1.6-6.2,1.47-13.55,8.69-13.55a9.19,9.19,0,0,1,6.31,2.42A9.25,9.25,0,0,1,96,66.63Z"/><path class="cls-1" d="M97.64,70.5c-3.16-.31-6.1,2.88-6.56,7.12s1.71,7.95,4.87,8.24S102,83,102.5,78.73,100.79,70.8,97.64,70.5Z"/><path class="cls-1" d="M81.87,70.5c3.13-.31,6.06,2.88,6.52,7.12s-1.7,7.95-4.84,8.24S77.49,83,77,78.73,78.73,70.8,81.87,70.5Z"/><path class="cls-3" d="M89,68.22c-.23,1.58,0,4-1.69,5s-2,.52-2.82.93-3.18-2.46-2.47-.82-3.72.12-2.18,1.11,4.23,2.17,2.53,2.17-2.59.64-.7.7,2.58.65.94.94-3.36,1.29-1.36,1.12,2.3-.06,1.47,1.39-1.23,2.29.65,1.18,2.18-.77,2.12.29.29.06,1.17.35S89,84.1,89.26,86.74c.36,4,1.87,4,2.23,0,.23-2.64,1.76-3.82,2.65-4.11s1.23.71,1.17-.35.24-1.41,2.12-.29,1.47.29.65-1.18-.53-1.57,1.48-1.39.29-.83-1.36-1.12-.94-.88.93-.94,1-.7-.7-.7,1-1.17,2.53-2.17-2.88.53-2.18-1.11-1.7,1.23-2.47.82-1.17.11-2.82-.93-1.53-3.48-1.74-5C91.45,66.1,89.21,66.1,89,68.22Z"/><path class="cls-3" d="M89,68.3c-.23,1.57,0,4-1.69,5s-2,.53-2.82.94S81.26,71.8,82,73.43s-3.72.12-2.18,1.12,4.23,2.16,2.53,2.16-2.59.63-.7.69,2.58.65.94.94-3.36,1.28-1.36,1.11,2.3-.06,1.47,1.4-1.23,2.27.65,1.17,2.18-.77,2.12.29.29.06,1.17.35,2.42,1.46,2.65,4.09c.36,4,1.87,4,2.23,0,.23-2.63,1.76-3.8,2.65-4.09s1.23.7,1.17-.35.24-1.4,2.12-.29,1.47.29.65-1.17-.53-1.58,1.48-1.4.29-.82-1.36-1.11-.94-.88.93-.94,1-.69-.7-.69,1-1.17,2.53-2.16-2.88.53-2.18-1.12-1.7,1.24-2.47.83-1.17.11-2.82-.94-1.53-3.46-1.74-5c0-.13,0-.26-.08-.39a9.15,9.15,0,0,0-1.4,1,7.89,7.89,0,0,0-1.3-1C89,68,89,68.17,89,68.3Z"/><path class="cls-4" d="M81,73.06a.89.89,0,0,1,.89.45c.19.33.13.67-.15.79a.83.83,0,0,1-.9-.44C80.66,73.53,80.73,73.15,81,73.06Z"/><path class="cls-4" d="M78.18,74.86a.55.55,0,0,1,.68-.52.72.72,0,0,1,.6.73.56.56,0,0,1-.68.53A.75.75,0,0,1,78.18,74.86Z"/><path class="cls-4" d="M79.46,77.43a.57.57,0,0,1,.68-.53.73.73,0,0,1,.61.75.58.58,0,0,1-.68.52A.72.72,0,0,1,79.46,77.43Z"/><path class="cls-4" d="M79.46,80.25a.79.79,0,0,1,.59-.77.54.54,0,0,1,.69.47.75.75,0,0,1-.58.78A.55.55,0,0,1,79.46,80.25Z"/><path class="cls-4" d="M80.82,83.21c-.16-.2,0-.6.25-.89s.66-.38.87-.19,0,.61-.25.9S81,83.4,80.82,83.21Z"/><path class="cls-4" d="M98.45,73.06a.92.92,0,0,0-.9.45c-.21.33-.14.67.16.79a.81.81,0,0,0,.89-.44C98.8,73.53,98.73,73.15,98.45,73.06Z"/><path class="cls-4" d="M101.28,74.86a.55.55,0,0,0-.68-.52.72.72,0,0,0-.6.73.56.56,0,0,0,.68.53A.77.77,0,0,0,101.28,74.86Z"/><path class="cls-4" d="M100,77.43a.57.57,0,0,0-.68-.53.73.73,0,0,0-.6.75.57.57,0,0,0,.68.52A.72.72,0,0,0,100,77.43Z"/><path class="cls-4" d="M100,80.25a.79.79,0,0,0-.59-.77.54.54,0,0,0-.69.47.76.76,0,0,0,.58.78A.55.55,0,0,0,100,80.25Z"/><path class="cls-4" d="M98.64,83.21c.17-.2,0-.6-.26-.89s-.7-.38-.87-.19-.06.61.26.9S98.47,83.4,98.64,83.21Z"/><path class="cls-5" d="M89.87,69.24c1,.28.63,6.21,1.88,6.76s1.78.26,2.92-.1,2.89-1.47,2.23-.64,2.78-.54,1.55.14-3.92,1.64-3,1.75,1.24.18,0,.78-.44,1,.52,1.18.3.5-.69.61S97,81.47,95.65,81s-1.21,1.85-2,1a2.07,2.07,0,0,0-.85-.33,2,2,0,0,0-.92,0,2.17,2.17,0,0,0-.81.42,2.26,2.26,0,0,0-.57.73c-.67,2.26-.7,2.26-1.39,0a2.18,2.18,0,0,0-.57-.77,2.14,2.14,0,0,0-.84-.45,2.09,2.09,0,0,0-1.83.33c-.82.85-.73-1.47-2-1s1.4-1.19.41-1.29-1.65-.5-.69-.61,1.72-.57.52-1.18-.89-.67,0-.78-1.75-1.08-3-1.75,2.2.67,1.55-.14,1.09.28,2.23.64,1.65.67,2.92.1.91-6.48,1.88-6.76h.1l0,0s0,0,0,0h0Z"/><path class="cls-1" d="M43.77,98.68c-6.16,3.73-12.25-1-13.8-7.07s-.34-12.12,7.7-17,13.73-2.85,17.9,1.5,5.13,12.36-1,16.09a13.52,13.52,0,0,1-3.24,1.23,14.33,14.33,0,0,0-4.68,2.76A12.77,12.77,0,0,1,43.77,98.68Z"/><path class="cls-2" d="M43.11,97.4c-6.43,3.72-12.78-1-14.4-7.07s-.36-12.11,8-17,14.33-2.87,18.68,1.46,5.33,12.35-1.07,16.08a9.75,9.75,0,0,1-6.82,1.19A9.85,9.85,0,0,1,43.11,97.4Z"/><path class="cls-1" d="M40.25,95.7c3-1.42,4.2-5.83,2.46-9.83s-5.64-6.1-8.74-4.68S29.78,87,31.51,91,37.15,97.13,40.25,95.7Z"/><path class="cls-1" d="M54.12,87.54c-2.84,1.91-7.26.7-10-2.7s-2.51-7.71.33-9.61,7.27-.7,10,2.7S56.93,85.65,54.12,87.54Z"/><path class="cls-3" d="M48.62,92.58c-.58-1.5-2-3.52-1-5.29s1.49-1.5,2-2.24,3.94.55,2.51-.54,3.1-2,1.3-2-4.67.25-3.22-.62,1.88-1.87.26-1-2.53.75-1.27-.35,2.22-2.83.61-1.66-2,1.22-2-.49-.07-2.63-1.13-.71-1.48,1.78-2,.81-.28.11-1.17.29-2.78-.06-4.28-2.26c-2.3-3.37-3.57-2.61-1.9,1.12,1.11,2.44.39,4.24-.22,4.94s-1.4,0-.83.91.49,1.36-1.66,1.33-1.4.48,0,1.36,1.23,1.12-.56,2,.16.88,1.71.3,1.23.3-.35,1.31-.5,1.12,1,.26-.27,1.53-1.09,3.18,2.2-1.92,2.41-.11.85-1.95,1.69-2,1-.7,2.87-.6,3,2.3,3.95,3.58C47.5,95.73,49.4,94.6,48.62,92.58Z"/><path class="cls-3" d="M48.62,91.88c-.58-1.44-2-3.38-1-5.08s1.49-1.45,2-2.16,3.94.53,2.51-.52,3.1-1.89,1.3-2-4.67.24-3.22-.59,1.88-1.81.26-1-2.53.72-1.27-.33,2.22-2.72.61-1.6-2,1.17-2-.47-.07-2.54-1.13-.68-1.48,1.71-2,.78-.28.1-1.17.27-2.78-.06-4.28-2.18c-2.3-3.24-3.57-2.5-1.9,1.09,1.11,2.34.39,4.08-.22,4.75s-1.4,0-.83.87.49,1.31-1.66,1.28-1.4.47,0,1.31,1.23,1.08-.56,2,.16.84,1.71.28,1.23.29-.35,1.26-.5,1.07,1,.24-.27,1.49-1.09,3.07,2.2-1.85,2.41-.11.85-1.87,1.69-1.95,1-.67,2.87-.58,3,2.22,3.95,3.45a3.45,3.45,0,0,0,.26.28,7.76,7.76,0,0,0,.68-1.53,8.61,8.61,0,0,0,1.59.18C48.71,92.11,48.67,92,48.62,91.88Z"/><path class="cls-4" d="M53.67,85.74a2.12,2.12,0,0,1-1.71-.1c-.69-.27-.89-.68-.62-.9a2,2,0,0,1,1.72.11C53.74,85.13,54,85.52,53.67,85.74Z"/><path class="cls-4" d="M55,82.3c.18.28-.22.68-.87.89a1.68,1.68,0,0,1-1.59-.14c-.24-.28.22-.67.88-.88S54.86,82,55,82.3Z"/><path class="cls-4" d="M52.46,79.71c.19.29-.21.69-.9.91s-1.39.15-1.57-.13.21-.7.9-.91S52.28,79.45,52.46,79.71Z"/><path class="cls-4" d="M51.17,78.32c.15.22,0,.62-.32.89s-.7.33-.85.12,0-.61.31-.89S51,78.09,51.17,78.32Z"/><path class="cls-4" d="M48.32,75.62c.31.08.43.41.26.76a.85.85,0,0,1-.87.5c-.32-.07-.42-.4-.26-.75A.88.88,0,0,1,48.32,75.62Z"/><path class="cls-4" d="M37.88,93.58a.53.53,0,0,0,.49-.69.72.72,0,0,0-.75-.59.55.55,0,0,0-.5.69A.77.77,0,0,0,37.88,93.58Z"/><path class="cls-4" d="M34.58,93.43c.14.23.51.2.86-.08a.77.77,0,0,0,.33-.9c-.14-.24-.51-.19-.86.09A.79.79,0,0,0,34.58,93.43Z"/><path class="cls-4" d="M34.6,90.87c.13.22.5.18.84-.08a.79.79,0,0,0,.33-.91c-.14-.23-.5-.19-.85.09A.75.75,0,0,0,34.6,90.87Z"/><path class="cls-4" d="M33.28,88.17c.09.29.43.37.77.17a.87.87,0,0,0,.47-.89c-.09-.29-.43-.37-.81-.18A.81.81,0,0,0,33.28,88.17Z"/><path class="cls-5" d="M47.44,92.29c-1,.23-3.75-4.85-5.14-4.66a3.63,3.63,0,0,0-2.57,1.48c-.82.83-1.82,2.59-1.67,1.6s-2.21,1.78-1.45.62,2.67-3.23,1.78-2.91-1.2.45-.43-.63-.16-1.09-1.05-.72-.53-.26.31-.83-2.44-.61-1-.85.13-2.11,1.3-1.8a2.51,2.51,0,0,0,1-.11,2.43,2.43,0,0,0,.83-.5,2.06,2.06,0,0,0,.52-.78,1.88,1.88,0,0,0,.11-.91c-.54-2.19-.52-2.2,1.26-.67a2.19,2.19,0,0,0,.9.38,2.49,2.49,0,0,0,1,0,2.38,2.38,0,0,0,.88-.41,2.1,2.1,0,0,0,.61-.72c.29-1.1,1.39.85,2.32-.16s-.66,1.65.29,1.26,1.73-.37.92.17-1.24,1.3.15,1.22,1.15.13.37.66,2.09,0,3.57,0-2.31.5-1.31.85-1.08.27-2.34.56-1.82.23-2.66,1.31,2.5,5.77,1.77,6.46a.08.08,0,0,1,0,0,925424206621.21,925424206621.21,0,0,0-.1.06Z"/><path class="cls-1" d="M57.65,102.21c-.32-7.5,6.8-11,13-9.61S81.58,97.93,82,107.74,77.87,122,72,123.81c-6.06,1.92-13.45-1-13.77-8.46a14.48,14.48,0,0,1,.46-3.59,15.13,15.13,0,0,0-.17-5.69A13.76,13.76,0,0,1,57.65,102.21Z"/><path class="cls-2" d="M60.22,102.23c-.31-7.52,6.44-11,12.31-9.63,5.68,1.36,10.36,5.33,10.76,15.12s-3.92,14.2-9.49,16.08c-5.74,1.94-12.74-.94-13-8.46a10.25,10.25,0,0,1,2-6.6A10.19,10.19,0,0,1,60.22,102.23Z"/><path class="cls-1" d="M62.78,100.69c-.17,3.54,3.15,6.66,7.4,7s7.84-2.26,8-5.79-3.15-6.66-7.39-7S62.94,97.16,62.78,100.69Z"/><path class="cls-1" d="M62.82,116.68c-.45-3.47,2.62-6.85,6.84-7.56s8,1.52,8.47,5-2.61,6.86-6.83,7.57S63.27,120.15,62.82,116.68Z"/><path class="cls-3" d="M61.85,110c1.59.16,4-.13,5.1,1.46s.62,2,1.06,2.8-2.31,3.28-.71,2.5.28,3.7,1.21,2.12,2-4.32,2.06-2.62.75,2.56.73.68.53-2.61.9-1,1.43,3.31,1.17,1.31-.16-2.29,1.34-1.53,2.33,1.14,1.14-.7-.85-2.14.2-2.13,0-.29.3-1.19a4.56,4.56,0,0,1,4-2.83c4-.53,3.94-2-.1-2.21-2.65-.13-3.88-1.61-4.21-2.48s.65-1.27-.41-1.16-1.4-.17-.38-2.11.23-1.48-1.19-.59-1.56.59-1.47-1.42-.83-.25-1,1.41-.84,1-1-.9-.75-1-.68.74-1.21-1-2.27-2.44.65,2.86-1,2.23,1.29,1.64.91,2.43.17,1.17-.8,2.86-3.4,1.61-5,1.91C59.63,107.58,59.72,109.82,61.85,110Z"/><path class="cls-3" d="M62,110c1.58.16,4-.13,5.08,1.46s.61,2,1,2.8-2.31,3.28-.71,2.5.28,3.7,1.21,2.12,2-4.32,2-2.62.75,2.56.73.68.52-2.61.89-1,1.42,3.31,1.16,1.31-.16-2.29,1.33-1.53,2.33,1.14,1.15-.7-.86-2.14.19-2.13,0-.29.3-1.19a4.53,4.53,0,0,1,4-2.83c4-.53,3.93-2-.09-2.21-2.64-.13-3.86-1.61-4.19-2.48s.65-1.27-.4-1.16-1.4-.17-.38-2.11.23-1.48-1.19-.59-1.55.59-1.46-1.42-.83-.25-1,1.41-.83,1-1-.9-.74-1-.67.74-1.21-1-2.26-2.44.65,2.86-1,2.23,1.29,1.64.91,2.43.17,1.17-.8,2.86-3.38,1.61-5,1.91l-.39.1a8.39,8.39,0,0,0,1,1.4,8.72,8.72,0,0,0-.91,1.36Z"/><path class="cls-4" d="M65.39,117.72c-.19-.27.2-.67.85-.9a1.68,1.68,0,0,1,1.6.12c.25.28-.19.67-.85.89S65.59,118,65.39,117.72Z"/><path class="cls-4" d="M68.49,120.54c-.34,0-.6-.61-.58-1.33s.35-1.27.71-1.24.61.63.57,1.33S68.87,120.57,68.49,120.54Z"/><path class="cls-4" d="M71.06,119.25c-.36,0-.62-.62-.58-1.33s.35-1.26.71-1.23.61.61.57,1.33S71.41,119.28,71.06,119.25Z"/><path class="cls-4" d="M76.81,116.59c-.19.19-.59.09-.89-.22s-.4-.7-.21-.88.58-.08.88.23S77,116.41,76.81,116.59Z"/><path class="cls-4" d="M65.36,100.31a.87.87,0,0,0,.49.88c.34.18.68.09.76-.21a.85.85,0,0,0-.49-.88C65.77,99.91,65.43,100,65.36,100.31Z"/><path class="cls-4" d="M67.12,97.44a.52.52,0,0,0-.47.69.75.75,0,0,0,.77.58A.54.54,0,0,0,67.9,98,.73.73,0,0,0,67.12,97.44Z"/><path class="cls-4" d="M69.68,98.72a.53.53,0,0,0-.47.7A.78.78,0,0,0,70,100a.53.53,0,0,0,.47-.69A.77.77,0,0,0,69.68,98.72Z"/><path class="cls-4" d="M72.51,97.43c-.35,0-.67.5-.74,1.21S72,100,72.31,100s.68-.5.73-1.22S72.86,97.46,72.51,97.43Z"/><path class="cls-4" d="M75.49,100.06c-.2-.15-.61,0-.9.28s-.35.68-.13.87.6,0,.88-.28S75.7,100.21,75.49,100.06Z"/><path class="cls-5" d="M62.79,109.17c.22-1,5.63-.91,6.14-2.18s.16-1.81-.22-2.94-1.45-2.84-.67-2.22-.61-2.78.06-1.57,1.67,3.92,1.73,2.9.12-1.25.72-.07,1,.41,1.06-.56.45-.34.59.66,1.54-1.8,1.16-.47,1.76,1.13,1,2a2.2,2.2,0,0,0-.31.9,2.39,2.39,0,0,0,.07,1,2.17,2.17,0,0,0,.45.83,2,2,0,0,0,.72.55c2.12.59,2.12.61.06,1.39a2.23,2.23,0,0,0-.69.61,2.51,2.51,0,0,0-.38.87,2.64,2.64,0,0,0,0,1,2.19,2.19,0,0,0,.38.87c.81.79-1.32.79-.84,2s-1.14-1.37-1.19-.36-.4,1.69-.54.72-.59-1.71-1.1-.47-.59.94-.72,0-.94,1.81-1.49,3.06.53-2.25-.19-1.55.22-1.12.5-2.28a3.65,3.65,0,0,0,0-3c-.56-1.25-6-.64-6.3-1.6a.07.07,0,0,1,0,0,.13.13,0,0,1,0-.06S62.76,109.21,62.79,109.17Z"/><path class="cls-1" d="M56.35,123c5.07,5.56,2,13-3.56,16.08s-11.62,3.2-18.25-4.06-6-13.67-2.82-19,10.69-8.27,15.76-2.7a15.83,15.83,0,0,1,2,3.1,15.08,15.08,0,0,0,3.77,4.26A12.47,12.47,0,0,1,56.35,123Z"/><path class="cls-2" d="M55.07,123.75c5.07,5.33,2,12.48-3.57,15.41s-11.62,3.11-18.24-3.88-6-13.11-2.82-18.26,10.68-7.92,15.76-2.58a9.54,9.54,0,0,1,2.71,6.26A9.8,9.8,0,0,1,55.07,123.75Z"/><path class="cls-1" d="M54.07,127.61c-2-2.53-6.35-2.59-9.71-.13S40,134,41.94,136.56s6.34,2.6,9.7.13S56.07,130.16,54.07,127.61Z"/><path class="cls-1" d="M43,115.46c2.63,2.37,2.41,7.13-.47,10.68s-7.29,4.43-10,2.06-2.39-7.15.48-10.68S40.36,113.05,43,115.46Z"/><path class="cls-3" d="M48.39,119.42c-1.32.9-3,2.65-4.86,2.19s-1.8-1.11-2.62-1.38-.38-3.91-1.1-2.31-2.63-2.55-2.31-.79,1.33,4.46.15,3.25-2.25-1.41-1,0,1.31,2.27,0,1.3-3.25-1.52-1.74-.21,1.62,1.58,0,2-2.52.66-.41,1.25,2,1,1.24,1.7.16.25.55,1.08.58,2.69-1.19,4.62c-2.71,2.94-1.68,4.05,1.53,1.59,2.1-1.6,4-1.3,4.83-.87s.33,1.35,1.07.6,1.18-.79,1.67,1.31.79,1.23,1.29-.34.8-1.43,2,.1.8-.34-.12-1.7,0-1.26,1.34,0,1.2.23,0-1,1.54-.08,3.33.34-2.37-1.69-.68-2.29-2.07-.39-2.31-1.2-.89-.76-1.24-2.64,1.54-3.36,2.53-4.58C51.69,119.81,50.15,118.22,48.39,119.42Z"/><path class="cls-3" d="M48.39,119.42c-1.32.9-3,2.65-4.86,2.19s-1.8-1.11-2.62-1.38-.38-3.91-1.1-2.31-2.63-2.55-2.31-.79,1.33,4.46.15,3.25-2.25-1.41-1,0,1.31,2.27,0,1.3-3.25-1.52-1.74-.21,1.62,1.58,0,2-2.52.66-.41,1.25,2,1,1.24,1.7.16.25.55,1.08.58,2.69-1.19,4.62c-2.71,2.94-1.68,4.05,1.53,1.59,2.1-1.6,4-1.3,4.83-.87s.33,1.35,1.07.6,1.18-.79,1.67,1.31.79,1.23,1.29-.34.8-1.43,2,.1.8-.34-.12-1.7,0-1.26,1.34,0,1.2.23,0-1,1.54-.08,3.33.34-2.37-1.69-.68-2.29-2.07-.39-2.31-1.2-.89-.76-1.24-2.64,1.54-3.36,2.53-4.58a1.46,1.46,0,0,0,.22-.33,9.49,9.49,0,0,0-1.69-.3,7.68,7.68,0,0,0-.2-1.58Z"/><path class="cls-4" d="M40.7,116.71c.28.09.34.45.13.78a.88.88,0,0,1-.9.46c-.28-.09-.34-.44-.13-.82A.81.81,0,0,1,40.7,116.71Z"/><path class="cls-4" d="M37.25,116.74c.21-.14.61,0,.89.31s.33.67.11.85-.62,0-.9-.31S37,116.88,37.25,116.74Z"/><path class="cls-4" d="M36,119.31c.21-.15.61,0,.89.3s.32.68.11.85-.62,0-.9-.3S35.74,119.45,36,119.31Z"/><path class="cls-4" d="M34.61,120.66c.15-.21.53-.15.85.13s.45.68.3.9-.54.15-.86-.14S34.44,120.87,34.61,120.66Z"/><path class="cls-4" d="M52.49,129.83c-.08-.31-.41-.4-.78-.21a.83.83,0,0,0-.47.88c.07.29.41.4.78.21A.79.79,0,0,0,52.49,129.83Z"/><path class="cls-4" d="M52.44,133.25c.17-.19,0-.59-.27-.89s-.71-.36-.88-.15,0,.59.29.89S52.28,133.46,52.44,133.25Z"/><path class="cls-4" d="M49.88,134.55c.16-.21,0-.61-.28-.9s-.71-.37-.88-.16,0,.6.28.89S49.71,134.74,49.88,134.55Z"/><path class="cls-4" d="M48.51,135.88c.22-.13.19-.49-.08-.84a.77.77,0,0,0-.91-.33c-.22.14-.19.5.09.85A.75.75,0,0,0,48.51,135.88Z"/><path class="cls-5" d="M49.32,120.63c.48.91-4.25,4.76-3.78,6.08s1.06,1.49,2.19,2.06,3.18,1.12,2.12,1.2,2.41,1.71,1.06,1.25-4.06-1.76-3.48-1,.75,1-.56.57-1.14.41-.53,1.2-.15.57-1-.1-.09,2.49-.68,1.2-2.27.39-2.21-.81a2.3,2.3,0,0,0-.35-.91,2.13,2.13,0,0,0-.72-.68,2.28,2.28,0,0,0-2-.2c-2.19,1-2.21,1-1-1a2.25,2.25,0,0,0,.18-1,2.23,2.23,0,0,0-1.84-2.07c-1.23,0,.58-1.56-.7-2.2s1.9.23,1.26-.59-.8-1.57,0-.93,1.67.88,1.27-.43-.13-1.14.61-.52-.44-2.06-.82-3.43,1.07,2.06,1.22,1,.58,1,1.07,2.06.66,1.7,2,2.25,5.56-3.82,6.47-3.29a.24.24,0,0,1,.11.06.22.22,0,0,1,.05.11Z"/><path class="cls-1" d="M119.24,117.34c5.08,5.33,2,12.48-3.56,15.41s-11.62,3.08-18.24-3.88-6-13.11-2.83-18.26,10.69-7.93,15.77-2.59a14.87,14.87,0,0,1,2,3,14.56,14.56,0,0,0,3.78,4.08A12.52,12.52,0,0,1,119.24,117.34Z"/><path class="cls-2" d="M118,117.91c5.07,5.56,2,13-3.56,16.08-5.39,3-11.63,3.21-18.25-4.06s-6-13.67-2.82-19c3.3-5.53,10.7-8.27,15.76-2.71a10.21,10.21,0,0,1,2.71,6.55A9.56,9.56,0,0,1,118,117.91Z"/><path class="cls-1" d="M116.87,121.2c-2.17-2.54-6.89-2.61-10.56-.13s-4.82,6.53-2.65,9.07,6.91,2.61,10.56.14S119.06,123.76,116.87,121.2Z"/><path class="cls-1" d="M105.87,110.2c2.62,2.18,2.4,6.55-.48,9.8s-7.28,4.06-10,1.89-2.39-6.56.49-9.8S103.26,108,105.87,110.2Z"/><path class="cls-3" d="M111.3,113.19c-1.32,1-3,2.83-4.85,2.33s-1.81-1.18-2.64-1.46-.37-4.18-1.09-2.47-2.64-2.72-2.32-.85,1.33,4.77.15,3.47-2.25-1.5-1,0,1.31,2.43,0,1.38-3.25-1.62-1.75-.22,1.62,1.69,0,2.09-2.53.7-.42,1.33,2,1.1,1.24,1.81.16.27.56,1.15.58,2.87-1.19,4.94c-2.72,3.14-1.68,4.31,1.53,1.69,2.09-1.71,4-1.39,4.83-.94s.33,1.45,1.06.65,1.19-.83,1.67,1.39.8,1.33,1.31-.34.79-1.54,2,.1.8-.37-.12-1.82,0-1.34,1.34,0,1.21.25,0-1,1.55-.08,3.33.37-2.38-1.81-.69-2.45-2.07-.42-2.29-1.29-.89-.81-1.26-2.81,1.54-3.58,2.54-4.89C114.6,113.63,113.06,111.91,111.3,113.19Z"/><path class="cls-3" d="M111.3,113.19c-1.32,1-3,2.83-4.85,2.33s-1.81-1.18-2.64-1.46-.37-4.18-1.09-2.47-2.64-2.72-2.32-.85,1.33,4.77.15,3.47-2.25-1.5-1,0,1.31,2.43,0,1.38-3.25-1.62-1.75-.22,1.62,1.69,0,2.09-2.53.7-.42,1.33,2,1.1,1.24,1.81.16.27.56,1.15.58,2.87-1.19,4.94c-2.72,3.14-1.68,4.31,1.53,1.69,2.09-1.71,4-1.39,4.83-.94s.33,1.45,1.06.65,1.19-.83,1.67,1.39.8,1.33,1.31-.34.79-1.54,2,.1.8-.37-.12-1.82,0-1.34,1.34,0,1.21.25,0-1,1.55-.08,3.33.37-2.38-1.81-.69-2.45-2.07-.42-2.29-1.29-.89-.81-1.26-2.81,1.54-3.58,2.54-4.89a4,4,0,0,0,.23-.34,8.12,8.12,0,0,0-1.7-.33,10.67,10.67,0,0,0-.19-1.68Z"/><path class="cls-4" d="M103.59,110.33c.29.17.34.85.14,1.58s-.62,1-.9.88-.35-.85-.14-1.58S103.31,110.11,103.59,110.33Z"/><path class="cls-4" d="M100.15,110.32c.22-.14.62,0,.89.31s.33.67.11.85-.62,0-.89-.3S99.89,110.47,100.15,110.32Z"/><path class="cls-4" d="M98.84,112.89c.22-.14.63,0,.91.3s.34.68.11.86-.63,0-.91-.31S98.65,113,98.84,112.89Z"/><path class="cls-4" d="M97.5,114.25c.15-.22.52-.16.86.13a.73.73,0,0,1,.29.89c-.15.21-.52.16-.86-.12S97.35,114.46,97.5,114.25Z"/><path class="cls-4" d="M96.15,118.53a.57.57,0,0,1,.67-.55.71.71,0,0,1,.61.71.58.58,0,0,1-.67.56A.74.74,0,0,1,96.15,118.53Z"/><path class="cls-4" d="M115.39,123.4c-.08-.29-.43-.39-.77-.2a.86.86,0,0,0-.48.88c.08.3.41.4.76.21A.88.88,0,0,0,115.39,123.4Z"/><path class="cls-4" d="M115.34,126.84c.15-.2,0-.6-.26-.89a.65.65,0,0,0-.88-.17c-.2.2,0,.61.26.9S115.16,127,115.34,126.84Z"/><path class="cls-4" d="M112.77,128.12c.16-.2,0-.6-.26-.89a.66.66,0,0,0-.88-.17c-.2.2,0,.61.27.9S112.6,128.33,112.77,128.12Z"/><path class="cls-4" d="M111.4,129.46c.23-.13.2-.5-.07-.84a.78.78,0,0,0-.91-.33c-.23.14-.19.5.08.85A.74.74,0,0,0,111.4,129.46Z"/><path class="cls-4" d="M107.09,130.81a.62.62,0,0,0,.61-.65.67.67,0,0,0-.66-.64.63.63,0,0,0-.62.65A.66.66,0,0,0,107.09,130.81Z"/><path class="cls-5" d="M112.25,115.25c.48.84-4.22,4.38-3.75,5.58s1.06,1.37,2.17,1.89,3.17,1,2.11,1.11,2.4,1.56,1,1.14-4-1.61-3.45-.94.75.94-.57.53-1.13.37-.52,1.09-.15.53-.95-.08-.08,2.28-.67,1.1-2.26.35-2.2-.75a1.82,1.82,0,0,0-.35-.84,2.24,2.24,0,0,0-.71-.62,2.55,2.55,0,0,0-1-.28,2.49,2.49,0,0,0-1,.1c-2.2,1-2.22,1-1.06-.94a1.8,1.8,0,0,0,.17-.88,1.83,1.83,0,0,0-.26-.87,2.18,2.18,0,0,0-.65-.67,2.43,2.43,0,0,0-.91-.37c-1.22,0,.59-1.42-.69-2s1.89.22,1.26-.53-.8-1.44,0-.85,1.66.8,1.26-.4-.13-1,.62-.48-.45-1.9-.82-3.15,1.05,1.9,1.21,1,.57,1,1.06,1.89.67,1.56,2,2.07,5.53-3.51,6.44-3h.11a.12.12,0,0,1,.1,0,.1.1,0,0,1,.07.07.1.1,0,0,1,0,.09A.1.1,0,0,1,112.25,115.25Z"/><path class="cls-1" d="M85.11,153.37c2.84,6.79-2.6,12.41-8.83,13.22-6,.78-12-1.19-15.65-10.06s-1-14.41,3.88-18.12,12.81-3.68,15.64,3.1a13.77,13.77,0,0,1,.78,3.46A14.63,14.63,0,0,0,83,150.12,12.83,12.83,0,0,1,85.11,153.37Z"/><path class="cls-2" d="M83.83,154.11c2.83,7.06-2.6,12.91-8.83,13.75-6,.83-12-1.24-15.65-10.47s-1-15,3.88-18.87,12.8-3.83,15.63,3.22a10.33,10.33,0,0,1,.3,7.12A10,10,0,0,1,83.83,154.11Z"/><path class="cls-1" d="M81.81,156.82c-1-3.32-5.16-5-9.29-3.8s-6.67,4.92-5.68,8.24,5.16,5,9.29,3.8S82.81,160.17,81.81,156.82Z"/><path class="cls-1" d="M75.07,142.51c1.5,2.93-.2,6.9-3.83,8.94s-7.7,1.36-9.2-1.53.19-6.9,3.82-8.95S73.57,139.61,75.07,142.51Z"/><path class="cls-3" d="M79.9,147.31c-1.57.37-3.75,1.44-5.39.36s-1.29-1.63-2-2.16,1.08-3.75-.18-2.51-1.55-3.26-1.89-1.52-.39,4.58-1,3.06-1.62-2.07-.94-.37.4,2.54-.51,1.18-2.51-2.51-1.57-.78,1,2-.75,1.82-2.63-.25-.85,1,1.56,1.66.55,2,.06.28.13,1.18-.44,2.69-2.82,3.87c-3.65,1.82-3,3.16.86,2,2.57-.77,4.26.16,4.87.83s-.17,1.37.79.92,1.41-.32,1.1,1.77.29,1.43,1.35.15,1.28-1.06,1.89.78.89,0,.53-1.61.45-1.16,1.23.49,1,.63.39-.89,1.49.45,3,1.44-1.62-2.37.2-2.35-1.82-1.06-1.73-1.93-.57-1-.22-2.91,2.69-2.58,4.06-3.37C82.87,148.79,82,146.77,79.9,147.31Z"/><path class="cls-3" d="M79.31,147.31c-1.53.37-3.66,1.44-5.24.36s-1.26-1.63-1.92-2.16,1-3.75-.19-2.51-1.51-3.26-1.83-1.52-.39,4.58-1,3.06-1.57-2.07-.91-.37.39,2.54-.5,1.18-2.44-2.51-1.52-.78.92,2-.73,1.82-2.56-.25-.83,1,1.52,1.66.53,2,.06.28.13,1.18-.42,2.69-2.74,3.87c-3.54,1.82-3,3.16.84,2,2.5-.77,4.14.16,4.74.83s-.17,1.37.76.92,1.38-.32,1.07,1.77.29,1.43,1.31.15,1.25-1.06,1.84.78.86,0,.51-1.61.45-1.16,1.21.49,1,.63.37-.89,1.45.45,3,1.44-1.57-2.37.2-2.35-1.77-1.06-1.68-1.93-.55-1-.22-2.91,2.62-2.58,4-3.37a3.62,3.62,0,0,0,.32-.22,10,10,0,0,0-1.44-.87,8.67,8.67,0,0,0,.38-1.52Z"/><path class="cls-4" d="M73,142.44c.18.19.09.59-.21.89s-.7.4-.88.22-.1-.57.2-.87S72.77,142.26,73,142.44Z"/><path class="cls-4" d="M69.55,139.81c.33-.13.71.34.87,1s0,1.36-.29,1.49-.71-.34-.87-1S69.23,139.94,69.55,139.81Z"/><path class="cls-4" d="M68.28,142.37a.83.83,0,0,1,.85.52.5.5,0,0,1-.29.74.86.86,0,0,1-.85-.52C67.83,142.76,67.91,142.43,68.28,142.37Z"/><path class="cls-4" d="M65.52,143.67a.91.91,0,0,1,.92.38c.25.32.24.69,0,.83s-.66-.06-.92-.38A.57.57,0,0,1,65.52,143.67Z"/><path class="cls-4" d="M62.8,146.45c.1-.28.44-.32.81-.1a.81.81,0,0,1,.42.9c-.09.28-.44.32-.8.1A.85.85,0,0,1,62.8,146.45Z"/><path class="cls-4" d="M79.46,158.41a.63.63,0,0,0-.63-.65.64.64,0,1,0,0,1.28A.64.64,0,0,0,79.46,158.41Z"/><path class="cls-4" d="M79.26,161.59c.26-.11.28-.47,0-.83s-.63-.51-.88-.4-.27.46,0,.82A.83.83,0,0,0,79.26,161.59Z"/><path class="cls-4" d="M75.41,161.58c.26-.11.28-.46,0-.82s-.62-.51-.87-.4-.28.46-.06.82A.86.86,0,0,0,75.41,161.58Z"/><path class="cls-4" d="M73.94,162.88c.33-.11.48-.77.33-1.47s-.52-1.18-.84-1.07-.48.77-.33,1.47S73.62,163,73.94,162.88Z"/><path class="cls-4" d="M69.52,162.87c.31.14.7-.3.87-1s.07-1.38-.22-1.53-.7.3-.88,1S69.21,162.72,69.52,162.87Z"/><path class="cls-5" d="M79.41,148.53c.11,1-5.44,3-5.47,4.34s.45,1.75,1.21,2.66,2.47,2.13,1.45,1.84,1.56,2.38.47,1.49-3-3.05-2.76-2.11.32,1.22-.71.33-1.14,0-.88.94-.33.48-.82-.41-.94,2.26-1,.88-2.16-.42-1.69-1.51a2.18,2.18,0,0,0,0-.95,2.12,2.12,0,0,0-.4-.86,2.14,2.14,0,0,0-.72-.62,2.21,2.21,0,0,0-.91-.25c-2.33.24-2.34.21-.54-1.29a2.26,2.26,0,0,0,.49-.83,2.19,2.19,0,0,0,.09-1,2.25,2.25,0,0,0-.32-.91,2.29,2.29,0,0,0-.68-.67c-1.1-.44,1.06-1.23.14-2.27s1.62.86,1.34-.11-.19-1.73.29-.87,1.18,1.37,1.28,0,.27-1.09.73-.27.3-2,.45-3.45.23,2.3.72,1.39.16,1.13.28,2.32,0,1.79,1,2.75,6.29-1.63,6.92-.85a.1.1,0,0,1,0,0,.59.59,0,0,0,0,.09v0a.05.05,0,0,1,0,0Z"/><path class="cls-1" d="M100.81,148.39c3.45-6.47,11-5.73,15.37-1.37s6.28,10.12,1.77,18.58-10.39,9.79-16.13,8.34-10.51-7.74-7-14.22a14.25,14.25,0,0,1,2.17-2.78,15.05,15.05,0,0,0,2.66-4.86A13.66,13.66,0,0,1,100.81,148.39Z"/><path class="cls-2" d="M102.43,149.68c3.63-6.47,11.54-5.74,16.11-1.37s6.58,10.11,1.86,18.58-10.89,9.79-16.9,8.32c-6.18-1.5-11-7.72-7.39-14.2a9.79,9.79,0,0,1,5.26-4.52A9.63,9.63,0,0,1,102.43,149.68Z"/><path class="cls-1" d="M106,149.61c-1.85,2.63-.57,6.64,2.86,9s7.71,2.16,9.56-.47.57-6.69-2.86-9.05S107.83,147,106,149.61Z"/><path class="cls-1" d="M97.84,163.4c1.36-2.82,5.74-3.9,9.77-2.39s6.18,5,4.82,7.8-5.69,3.89-9.75,2.4S96.48,166.21,97.84,163.4Z"/><path class="cls-3" d="M99.57,156.53c1.27,1,3.48,2,3.61,3.85s-.53,2-.54,2.88-3.71,1.55-1.92,1.73-1.69,3.24-.07,2.4,4-2.61,3.13-1.14-.69,2.53.27,1,1.83-1.92,1.29-.36-.49,3.5.32,1.69,1.06-2,2-.59,1.41,2.15,1.34,0,.39-2.23,1.29-1.68.19-.22.88-.84,2.45-1.38,4.89-.32c3.73,1.61,4.45.32,1.08-1.91-2.21-1.46-2.5-3.33-2.33-4.23s1.21-.73.26-1.18-1.13-.88.76-2,1-1.12-.71-1.11-1.65-.31-.52-2-.59-.64-1.64.64-1.24.38-.37-1.26-.13-1.19-1,.27-.54-1.42-.68-3.21-.92,2.73-2,1.34.25,2.05-.47,2.51-.47,1.08-2.2,2-3.74-.39-5.25-1C98.93,153.34,97.86,155.26,99.57,156.53Z"/><path class="cls-3" d="M100.27,156.53c1.23,1,3.36,2,3.49,3.85s-.52,2-.53,2.88-3.57,1.55-1.85,1.73-1.62,3.24-.06,2.4,3.81-2.61,3-1.14-.67,2.53.26,1,1.76-1.92,1.24-.36-.48,3.5.31,1.69,1-2,1.88-.59,1.36,2.15,1.29,0,.37-2.23,1.24-1.68.19-.22.85-.84,2.37-1.38,4.72-.32c3.59,1.61,4.29.32,1-1.91-2.13-1.46-2.41-3.33-2.24-4.23s1.17-.73.25-1.18-1.08-.88.74-2,1-1.12-.69-1.11-1.59-.31-.51-2-.56-.64-1.57.64-1.19.38-.36-1.26-.13-1.19-1,.27-.52-1.42-.66-3.21-.89,2.73-1.93,1.34.24,2.05-.46,2.51-.45,1.08-2.12,2-3.61-.39-5.06-1l-.37-.11a9.42,9.42,0,0,0,.21,1.67,8.36,8.36,0,0,0-1.42.67A3.31,3.31,0,0,0,100.27,156.53Z"/><path class="cls-4" d="M100,164.7a.54.54,0,0,1,.68-.51.72.72,0,0,1,.6.74.57.57,0,0,1-.69.52A.72.72,0,0,1,100,164.7Z"/><path class="cls-4" d="M100.16,169.2a1.93,1.93,0,0,1,.06-1.68c.27-.69.68-.93.91-.68a2.07,2.07,0,0,1-.06,1.69C100.8,169.22,100.39,169.48,100.16,169.2Z"/><path class="cls-4" d="M102.72,169.2a2,2,0,0,1,.07-1.68c.27-.69.68-.93.9-.68a2,2,0,0,1-.06,1.69C103.36,169.22,103,169.48,102.72,169.2Z"/><path class="cls-4" d="M105.43,169.29c-.3-.08-.39-.42-.19-.77a.86.86,0,0,1,.88-.47c.29.08.39.42.2.77A.86.86,0,0,1,105.43,169.29Z"/><path class="cls-4" d="M107.83,150.12c-.22.15-.16.52.12.86a.72.72,0,0,0,.9.29c.22-.14.16-.51-.12-.85A.74.74,0,0,0,107.83,150.12Z"/><path class="cls-4" d="M111.29,148.79a.91.91,0,0,0-.9.45c-.21.33-.14.67.15.79a.85.85,0,0,0,.9-.44A.53.53,0,0,0,111.29,148.79Z"/><path class="cls-4" d="M115.26,151.45c-.22-.28-.63,0-.9.62a2.1,2.1,0,0,0-.1,1.7c.22.35.63,0,.9-.63S115.49,151.65,115.26,151.45Z"/><path class="cls-5" d="M101.4,156c.69-.68,5.45,2.3,6.49,1.52s1-1.37,1.26-2.48.13-3.07.51-2.16.84-2.56.83-1.22-.45,4,.07,3.29.72-1,.66.33.69.86,1.23.11.56,0,.18.84,2.25-.62,1.26.25,1,1.85-.11,2.14a2.06,2.06,0,0,0-.71.57,1.89,1.89,0,0,0-.41.81,2.15,2.15,0,0,0,0,.91,2,2,0,0,0,.38.83c1.57,1.59,1.55,1.62-.64,1.15a2.17,2.17,0,0,0-.91.13,2,2,0,0,0-.77.49,2.15,2.15,0,0,0-.47.78,2,2,0,0,0-.1.9c.32,1.07-1.55-.06-1.77,1.23s-.33-1.71-.88-1-1.18,1.14-.82.29.32-1.69-.75-1-1,.43-.63-.39-1.7,1-2.83,1.69,1.57-1.52.59-1.35.74-.79,1.57-1.57,1.32-1.07,1.44-2.38-5-3.71-4.75-4.64a.14.14,0,0,1,0-.06.17.17,0,0,1,0-.05l0,0Z"/><path class="cls-1" d="M128.42,150.06c-6-4.21-4.69-12.22-.15-16.59s10.23-5.93,18-.42,8.63,11.89,6.77,17.92c-1.93,6.22-8.25,10.62-14.23,6.41a14.31,14.31,0,0,1-2.51-2.53,14.35,14.35,0,0,0-4.48-3.24A11.91,11.91,0,0,1,128.42,150.06Z"/><path class="cls-2" d="M128.59,148.77c-6.23-4.21-4.89-12.22-.15-16.59s10.68-5.91,18.82-.42,9,11.89,7.06,17.91c-2,6.22-8.61,10.64-14.84,6.43a10,10,0,0,1-4.14-5.74A9.49,9.49,0,0,1,128.59,148.77Z"/><path class="cls-1" d="M128.89,145.11c2.69,2.09,7.18,1.11,10-2.18s2.94-7.65.26-9.74-7.18-1.12-10,2.18S126.2,143,128.89,145.11Z"/><path class="cls-1" d="M142.71,153.37c-3-1.48-3.8-5.63-1.87-9.21s5.91-5.33,8.88-3.84,3.8,5.63,1.86,9.2S145.72,154.88,142.71,153.37Z"/><path class="cls-3" d="M136.5,151.86c1-1.25,2.21-3.46,4.15-3.44s2,.71,2.85.79,1.29,4,1.6,2.09,3.14,2,2.41.27-2.32-4.31-.9-3.34,2.49.92,1-.21-1.79-2.09-.27-1.36,3.49.8,1.73-.19-1.93-1.27-.45-2.09,2.28-1.3.11-1.4-2.22-.58-1.6-1.47-.21-.22-.77-1-1.21-2.66,0-5.1c1.9-3.74.65-4.59-1.85-1.27-1.63,2.17-3.54,2.32-4.44,2.09s-.63-1.32-1.16-.37-1,1.05-1.92-.95-1.06-1-1.17.65-.43,1.68-2,.39-.7.55.51,1.74.3,1.32-1.29.28-1.21,0,.2,1-1.47.45-3.28.45,2.67,1.19,1.19,2.21,2.09-.09,2.5.7,1,.57,1.83,2.44-.69,3.85-1.36,5.37C133.23,152.24,135.09,153.53,136.5,151.86Z"/><path class="cls-3" d="M136.5,151.12c1-1.2,2.2-3.33,4.14-3.31s2,.68,2.86.77,1.28,3.82,1.6,2,3.14,1.94,2.41.26-2.32-4.15-.91-3.22,2.5.89,1-.2-1.79-2-.27-1.31,3.49.77,1.73-.19-1.93-1.22-.45-2,2.28-1.25.11-1.35-2.23-.55-1.6-1.41-.21-.21-.78-.94a4.66,4.66,0,0,1,0-4.91c1.92-3.6.67-4.43-1.84-1.23-1.63,2.09-3.54,2.24-4.43,2s-.64-1.26-1.17-.35-1,1-1.92-.91-1-1-1.17.62-.43,1.62-2,.37-.7.54.52,1.68.29,1.27-1.3.27-1.21,0,.2,1-1.47.43-3.28.43,2.68,1.15,1.19,2.13,2.09-.09,2.5.68,1,.54,1.83,2.34-.69,3.71-1.36,5.17a1.66,1.66,0,0,0-.14.37,8,8,0,0,0,1.7-.09,9,9,0,0,0,.56,1.53Z"/><path class="cls-4" d="M144.09,152.62c-.34-.08-.53-.71-.42-1.42s.46-1.21.8-1.13.53.7.43,1.41S144.48,152.7,144.09,152.62Z"/><path class="cls-4" d="M148.71,152.5c-.15.21-.54.15-.86-.14s-.45-.68-.3-.89.55-.15.86.13S148.86,152.29,148.71,152.5Z"/><path class="cls-4" d="M148.72,148.65c-.15.21-.52.15-.87-.14a.73.73,0,0,1-.29-.9c.15-.2.52-.14.83.14S148.87,148.47,148.72,148.65Z"/><path class="cls-4" d="M150,147.25c-.1.28-.45.32-.81.1a.85.85,0,0,1-.43-.9c.1-.28.44-.32.77-.1A.93.93,0,0,1,150,147.25Z"/><path class="cls-4" d="M150.06,142.84a.79.79,0,0,1-.58.78.53.53,0,0,1-.7-.46.77.77,0,0,1,.58-.79A.55.55,0,0,1,150.06,142.84Z"/><path class="cls-4" d="M130.85,142.18c.13.25.5.22.84,0a.81.81,0,0,0,.35-.94c-.14-.24-.49-.21-.84,0A.78.78,0,0,0,130.85,142.18Z"/><path class="cls-4" d="M128.3,138.73c-.21.26.16.67.81.9a1.76,1.76,0,0,0,1.62-.06c.26-.27-.17-.68-.81-.91S128.49,138.46,128.3,138.73Z"/><path class="cls-4" d="M132.11,137.45a.89.89,0,0,0,.41.9c.34.23.67.2.81-.06s-.08-.68-.41-.91S132.24,137.17,132.11,137.45Z"/><path class="cls-4" d="M132.22,136c-.32.21,0,.61.51.9a2.26,2.26,0,0,0,1.76.17c.41-.21,0-.61-.53-.89A2.35,2.35,0,0,0,132.22,136Z"/><path class="cls-4" d="M136.32,133.38a.5.5,0,0,0-.33.73.85.85,0,0,0,.85.54.51.51,0,0,0,.33-.74A.84.84,0,0,0,136.32,133.38Z"/><path class="cls-5" d="M136.09,150c-.64-.73,2.74-5.28,2-6.39s-1.31-1.14-2.41-1.46-3.1-.36-2.14-.66-2.53-1-1.17-1,4,.76,3.32.19-.9-.8.39-.64,1-.62.2-1.22,0-.56.87-.12-.46-2.3.34-1.24,1.95-.84,2.17.27a2,2,0,0,0,.52.76,2,2,0,0,0,.79.46,2.16,2.16,0,0,0,.91.08,2,2,0,0,0,.86-.32c1.74-1.45,1.77-1.44,1.12.74a2.38,2.38,0,0,0,.06.92,2.24,2.24,0,0,0,.44.8,2.12,2.12,0,0,0,1.65.71c1.11-.25-.18,1.55,1.11,1.87s-1.75.2-1,.81,1.06,1.27.23.85-1.68-.46-1,.66.36,1-.44.62.85,1.78,1.49,3S145,148,145.12,149s-.74-.81-1.47-1.7-1-1.41-2.29-1.63-4.14,4.69-5.07,4.4l0,0-.06,0S136.1,150,136.09,150Z"/></svg>