<svg id="Camada_1" data-name="Camada 1" xmlns="http://www.w3.org/2000/svg" viewBox="0 0 200 200"><defs><style>.cls-1{fill:#f50000;fill-rule:evenodd;}</style></defs><path class="cls-1" d="M28.61,63.29c2.36-7.24.82-9.61,10.56-16.52s3.88-8,13.49-14.27,11.44-5.24,19-7.51,7.06-8.76,14.53-7.34,5.84-.58,9.68.49,4.58-2.83,9.27-.93,8.41,3.62,14.4,5.77,12.06-1.41,16.89,1.54,7.12,5.06,14,9.73S162.81,40,170.3,50.16s-1.19,11.57,4.34,19.69,9.4,12.57,9.66,20-2,10.4-1,14.29-1.4,10.85-1.69,14.16-5.71,7-7.27,13.44-.61,12-6.18,20-11.5,5.56-16.39,10-6.41,8.89-11.52,11-6.9-2.66-11.74-.22-5.34,5-9.62,6.26-9.92.81-14.66.91-4.36,5.24-15.41,3.13-11.66-4.88-18-6.73-9.37-2.15-15.65-4.34-2.27-.43-6.17-8.25-7.4-9.14-11.83-10.66-.72-6.87-3-9.32-4.64-3.58-8-9,0-5.38-2-10.82-7.63-12.91-8.39-17.81,3.29-8.46,5.12-14.52-4.18-9.89-.48-16.93S26.1,71,28.61,63.29Z"/></svg>