<svg id="Camada_1" data-name="Camada 1" xmlns="http://www.w3.org/2000/svg" viewBox="0 0 200 200"><defs><style>.cls-1{fill:#e68207;}.cls-1,.cls-10,.cls-11,.cls-12,.cls-13,.cls-14,.cls-3,.cls-4,.cls-5,.cls-6,.cls-7,.cls-8,.cls-9{fill-rule:evenodd;}.cls-2{fill:#fc9b24;}.cls-3{fill:#f50000;}.cls-4{fill:#d26824;}.cls-5{fill:#e7a127;}.cls-6{fill:#a14912;}.cls-7{fill:#cf7602;}.cls-8{fill:#ffc41f;}.cls-9{fill:#ffe9ba;}.cls-10{fill:#ff9b19;}.cls-11{fill:#ffed00;}.cls-12{fill:#ffc64a;}.cls-13{fill:#ffb7a1;}.cls-14{fill:#fc5826;}</style></defs><path class="cls-1" d="M192.8,100a92.77,92.77,0,1,1-7.06-35.51A92.79,92.79,0,0,1,192.8,100Z"/><path class="cls-2" d="M138.29,180.05A88.74,88.74,0,1,0,20,138.26,88.74,88.74,0,0,0,138.29,180.05Z"/><path class="cls-3" d="M28.61,63.29c2.36-7.24.82-9.61,10.56-16.52s3.88-8,13.49-14.27,11.44-5.24,19-7.51,7.06-8.76,14.53-7.34,5.84-.58,9.68.49,4.58-2.83,9.27-.93,8.41,3.62,14.4,5.77,12.06-1.41,16.89,1.54,7.12,5.06,14,9.73S162.81,40,170.3,50.16s-1.19,11.57,4.34,19.69,9.4,12.57,9.66,20-2,10.4-1,14.29-1.4,10.85-1.69,14.16-5.71,7-7.27,13.44-.61,12-6.18,20-11.5,5.56-16.39,10-6.41,8.89-11.52,11-6.9-2.66-11.74-.22-5.34,5-9.62,6.26-9.92.81-14.66.91-4.36,5.24-15.41,3.13-11.66-4.88-18-6.73-9.37-2.15-15.65-4.34-2.27-.43-6.17-8.25-7.4-9.14-11.83-10.66-.72-6.87-3-9.32-4.64-3.58-8-9,0-5.38-2-10.82-7.63-12.91-8.39-17.81,3.29-8.46,5.12-14.52-4.18-9.89-.48-16.93S26.1,71,28.61,63.29Z"/><path class="cls-4" d="M85.77,167.35c-.4.45-2.16.12-3-.73a4.11,4.11,0,0,1-1-1.53l.36-1.48a3.87,3.87,0,0,1,2.63.91C85.46,165.1,86.23,166.83,85.77,167.35Z"/><path class="cls-4" d="M96,152.26c-.1.59-1.77,1.25-2.94,1a4.12,4.12,0,0,1-1.45-.65,7.77,7.77,0,0,0,1.74-2.24h.31C94.57,150.52,96.15,151.57,96,152.26Z"/><path class="cls-4" d="M95.59,135.38c.21.56-.9,2-2,2.33s-2.64.2-3-.47.94-1.88,2-2.3C93.45,134.62,95.35,134.73,95.59,135.38Z"/><path class="cls-5" d="M88.17,138.86l.45.12c.9-.33,1.06-.71-.2-1.15Z"/><path class="cls-6" d="M97.33,134c-.07-.26.51-.86,1-1s1.22,0,1.33.26-.52.82-1,1S97.41,134.28,97.33,134Z"/><path class="cls-7" d="M80.23,171.64l4.16-17.2a8,8,0,0,0,9.67-5.89,8,8,0,0,0-5.89-9.68l4.18-17.21a25.72,25.72,0,0,1-2,50.59A25.55,25.55,0,0,1,80.23,171.64Z"/><path class="cls-8" d="M80.23,171.64l4.16-17.2a8,8,0,0,0,9.67-5.89,8,8,0,0,0-5.89-9.68l4.18-17.21a25.72,25.72,0,0,1-2,50.59A25.55,25.55,0,0,1,80.23,171.64Z"/><path class="cls-9" d="M93.15,150.76a8,8,0,0,0,1.1-4.88l.5.13c4.29,1,14.2,6.14,9.72,5.05s-12.67-2.26-10.33-.86,4.71,6.1,7.8,8.71,1.09,4-2,1.37c-1.88-1.59-4.71-4.33-6.8-5.38v-4.14Zm0-8.23v-1.37a5.08,5.08,0,0,0,.59-.35c3.44-2.26,7.62-3.31,4.18-.22-1.53,1.38-3.18,2.39-4.16,3.2A7.32,7.32,0,0,0,93.15,142.53Zm0-5.72V135c.79-.55,1.09-.3.22,1.42C93.3,136.53,93.23,136.67,93.15,136.81Zm-7.86,21.77c-.62,2.53-2,14.18-2.52,8.68-.16-1.61-.28-3.19-.39-4.59l2-8.24a8,8,0,0,0,8.76-3.67v4.14c-1.32-.67-2.35-.64-2.62.82-.71,3.76-1.74,9.7-1.61,6.63,0-.13-2.93-6.65-3.63-3.77ZM93.15,135v1.85a14.76,14.76,0,0,0-1.49,3.9,8,8,0,0,0-3.49-1.85L89.36,134c-.49,3.24-.46,5.72,1.24,3.59A15.36,15.36,0,0,1,93.15,135Zm0,6.2v1.37a8.9,8.9,0,0,0-.74-1A2.7,2.7,0,0,0,93.15,141.16Z"/><path class="cls-1" d="M95.48,169.32c-1.19-4.42-4.16-10.92-4-8.2S95.31,172.58,95.48,169.32Z"/><path class="cls-1" d="M109.79,146.15c-4.67,1.35-13.09.33-9.5-1.68S113.23,144.92,109.79,146.15Z"/><path class="cls-1" d="M97.23,137.33c2.47-1.67,11.92-7.43,7-6.57S93.63,139.54,97.23,137.33Z"/><path class="cls-1" d="M90.93,165.11a21.79,21.79,0,0,1,.23,6.79l-.38.07a4.61,4.61,0,0,1-.15-.53C89.93,168.38,90.28,161.86,90.93,165.11Z"/><path class="cls-1" d="M101.33,155.44c1.55,1.33,5.78,2.41,8,2.67l.36-.74-.68-.28C103.13,154.86,97.23,154.66,101.33,155.44Z"/><path class="cls-1" d="M96.09,128.58c1.39-3.18.06-6.18-2.11-3.2S94.32,132.44,96.09,128.58Z"/><path class="cls-1" d="M94.23,158.44c1.37,2,6.7,13.2,5.26,8.1S91.88,154.44,94.23,158.44Z"/><path class="cls-4" d="M71.36,109.3a1.3,1.3,0,0,1-.47.49,1.4,1.4,0,0,1-.63.22.53.53,0,0,1-.34-.19Z"/><path class="cls-5" d="M61.05,118.53c.1,2.84-.49,4.79-1.87,2.93A8,8,0,0,0,61.05,118.53Z"/><path class="cls-5" d="M52,138.18a51.47,51.47,0,0,0-9.6.78A25.49,25.49,0,0,0,44.88,140C49.23,140,55.32,139.18,52,138.18Z"/><path class="cls-5" d="M52.45,125.3c-.4-.45-1-1.17-1.68-2a8,8,0,0,1-2.92-1.86A7.88,7.88,0,0,1,46,118.52l-1,.36a.44.44,0,0,0,.08.3C46.54,124,55.09,128.64,52.45,125.3Z"/><path class="cls-5" d="M70,119.07c2-2.94,2.22-13.8.71-7.8S69.66,123.28,70,119.07Z"/><path class="cls-5" d="M43.9,127.54c-3.32-1-6.14.69-2.91,2.48S48,128.82,43.9,127.54Z"/><path class="cls-5" d="M73.81,125.78c.69-.62,2.66-2,4.55-3.3.14-.52.26-1,.37-1.56C74.52,123.65,70.66,128.12,73.81,125.78Z"/><path class="cls-10" d="M61,140.44a5.46,5.46,0,0,1-2.86-6.07c.76-2.86,4-4.49,7.19-3.64a6,6,0,0,1,4.58,4.94A25.33,25.33,0,0,1,62.32,140C61.87,140.13,61.42,140.27,61,140.44Z"/><path class="cls-11" d="M67,135.65a4.15,4.15,0,0,1-1.07,2.25,4.2,4.2,0,0,1-2.16,1.25,4.13,4.13,0,0,1-2.48-.2,4.19,4.19,0,0,1,.15-7.83,4.15,4.15,0,0,1,2.49-.11A4,4,0,0,1,67,135.65Z"/><path class="cls-7" d="M77.69,107a25.72,25.72,0,1,1-48.34,17.6L46,118.53a8,8,0,0,0,15.06-5.48Z"/><path class="cls-8" d="M77.69,107a25.72,25.72,0,1,1-48.34,17.6L46,118.53a8,8,0,0,0,15.06-5.48Z"/><path class="cls-9" d="M69,110.15c-2.68,2.09-4.53,3.51-3.59,3.17,1.32-.48,4.4,1,2.33,1.72s-2.86,2.78-.2,4.13c17.49,8.88-1.32,2.89-3.18,2.44-3.51-.86-3.48.41-2,3.73s.34,5.64-1.2,2.58-4.82-4.44-5.11-1.13-3,13.47-3.29,9.73.63-11.76-.91-7.78-4.92,10.1-4.44,6.7,3.51-10.88,1.84-9.63-3.26,1.61-2.37-.64,1.64-4.87-.93-3.72-10.63,1.31-6.74-.32c.7-.29,1.39-.59,2-.9L46,118.51A8,8,0,0,0,61,113Z"/><path class="cls-12" d="M34.77,133.44a1.67,1.67,0,0,1,.75-.25,1.73,1.73,0,0,1,.78.12c.29.21.27.93,0,1.67C35.8,134.44,35.23,134,34.77,133.44Z"/><path class="cls-1" d="M78.23,108.57c-3.25-.11-8,1.29-5.31,1.82a13.67,13.67,0,0,0,5.73-.17Z"/><path class="cls-1" d="M63.12,122.49c3,2.2,9,7,10.72,9.07l-.59.75h-.07C69.23,130.74,58.59,120.94,63.12,122.49Z"/><path class="cls-1" d="M45,123.53c-3.13,1.36-11.43,6.73-8.65,6.14S49.62,122.71,45,123.53Z"/><path class="cls-1" d="M55.82,130.92c.42-2.94,2.62,5.45,1.78,9.6a2.46,2.46,0,0,1-.23.71l-.4.06C56,140.28,54.85,132.44,55.82,130.92Z"/><path class="cls-1" d="M43.47,136.9c1.67-4.23,3.75-11.4,4.13-6.84S42.75,140.8,43.47,136.9Z"/><path class="cls-1" d="M58.06,129.44c2.44,3.17,6,14.24,3.09,8.48S56.77,126.51,58.06,129.44Z"/><path class="cls-1" d="M78.89,118c-2.23-.25-14-2.79-10-.61,3,1.63,8.74,1.9,10.23,1.38a1.94,1.94,0,0,1,.07-.63Z"/><path class="cls-1" d="M77.71,124.53c-2.29-.41-3.74,0-1.6,1.13a7.4,7.4,0,0,0,1,.44C77.31,125.58,77.52,125.06,77.71,124.53Z"/><path class="cls-4" d="M45,58.53c-.22-.56.85-2,2-2.39a4.22,4.22,0,0,1,1.8-.19l1.18,1a3.87,3.87,0,0,1-2,2C47.13,59.23,45.23,59.17,45,58.53Z"/><path class="cls-4" d="M54,74.36c-.49-.35-.34-2.14.41-3.07a4.06,4.06,0,0,1,1.22-1,7.58,7.58,0,0,0,1.25,2.55,2.33,2.33,0,0,1-.17.26C56.23,73.81,54.59,74.77,54,74.36Z"/><path class="cls-4" d="M69.39,81.37c-.6-.06-1.37-1.68-1.2-2.86s1-2.46,1.73-2.45,1.27,1.67,1.17,2.84C71,79.78,70.08,81.44,69.39,81.37Z"/><path class="cls-5" d="M69.52,73.18l-.31.35c-.09,1,.18,1.26,1.12.32Z"/><path class="cls-6" d="M69.88,83.54c.26,0,.55.84.44,1.39S69.83,86,69.51,86s-.51-.83-.44-1.37S69.58,83.49,69.88,83.54Z"/><path class="cls-7" d="M43.55,51.64,57.23,63a8.09,8.09,0,0,0-1.49,2.75,8,8,0,0,0-.32,3.11,8.08,8.08,0,0,0,.89,3A8,8,0,0,0,64.14,76a7.85,7.85,0,0,0,3-.89,8,8,0,0,0,2.43-2L83.15,84.44a25.68,25.68,0,0,1-17.41,9.19,25.72,25.72,0,0,1-22.19-42Z"/><path class="cls-8" d="M43.55,51.64,57.23,63a8.09,8.09,0,0,0-1.49,2.75,8,8,0,0,0-.32,3.11,8.08,8.08,0,0,0,.89,3A8,8,0,0,0,64.14,76a7.85,7.85,0,0,0,3-.89,8,8,0,0,0,2.43-2L83.15,84.44a25.68,25.68,0,0,1-17.41,9.19,25.72,25.72,0,0,1-22.19-42Z"/><path class="cls-9" d="M53.06,61.94c-2-1.67-11.86-8-6.7-6.08,1.52.57,3,1.16,4.3,1.67L57.23,63a7.9,7.9,0,0,0-1.5,2.74,8,8,0,0,0-.34,3.11,8,8,0,0,0,2.84,5.43,8,8,0,0,0,2.3,1.33L60.2,76c-2.82,3.4-11.74,10.07-8.8,6.52s7.58-10.4,5.3-8.9-7.55,1.56-11.25,3.19-4.06-.77-.36-2.39,11.29-4.19,8.23-6.47-8-5.82-5.25-4.36c.11.07,7.26.29,5-1.6ZM73.39,76.38c-2.71-1.86-4.94-2.92-3.78-.45,1.42,3,2,5.8-.14,3a16.25,16.25,0,0,0-3.14-3.43,8.07,8.07,0,0,0,3.19-2.32Zm-8.09-.55a5.31,5.31,0,0,0,0,1.49c.52,4.09-.37,8.3-1.64,3.86-.57-2-.76-3.91-1-5.14A7.63,7.63,0,0,0,65.3,75.83Z"/><path class="cls-1" d="M38.94,66.44c4.5.86,11.64,1,9.12,0S36.08,64.8,38.94,66.44Z"/><path class="cls-1" d="M53.48,89.44c.84-4.78,5.45-11.91,5.69-7.8S53.11,93,53.48,89.44Z"/><path class="cls-1" d="M66.9,82c.42,3,1.45,14,2.85,9.14S66.51,77.78,66.9,82Z"/><path class="cls-1" d="M44.71,64.14a21.46,21.46,0,0,1-6.2-2.77l.1-.37a3.33,3.33,0,0,1,.55.1C42.23,61.81,47.93,65,44.71,64.14Z"/><path class="cls-1" d="M48.83,77.72c-1.87.81-4.7,4.14-5.89,6,.16.21.33.43.51.64l.54-.48C48.58,79.6,51.37,74.35,48.83,77.72Z"/><path class="cls-1" d="M75.29,84.8c2.24,2.64,5.53,2.77,3.8-.49S72.55,81.5,75.29,84.8Z"/><path class="cls-1" d="M49.23,70c-2.39.36-14.8.24-9.58,1.18S53.93,69.7,49.23,70Z"/><path class="cls-4" d="M104.89,71.82a1.41,1.41,0,0,1-.19-.64,1.5,1.5,0,0,1,.13-.66.54.54,0,0,1,.33-.2Z"/><path class="cls-5" d="M102.17,58.25c-2.5-1.36-3.88-2.85-1.58-3.1A7.88,7.88,0,0,0,102.17,58.25Z"/><path class="cls-5" d="M89.86,40.44a50.56,50.56,0,0,0,4.19-8.67,27.49,27.49,0,0,0-2.19,1.67C89.66,37.21,87.29,42.84,89.86,40.44Z"/><path class="cls-5" d="M100.7,47.44l2.57-.44a8,8,0,0,1,3.08-1.56,8.08,8.08,0,0,1,3.46-.12l.19-1-.29-.08C104.82,43,96.48,48,100.7,47.44Z"/><path class="cls-5" d="M97.23,65.64c1.53,3.18,10.76,8.92,6.35,4.57S93.71,63.26,97.23,65.64Z"/><path class="cls-5" d="M103.11,38.91c2.54-2.36,2.52-5.65-.66-3.78S99.93,41.78,103.11,38.91Z"/><path class="cls-5" d="M89.44,65.56c.18.91.35,3.3.54,5.6.37.38.76.75,1.15,1.11C90.92,67.26,89,61.67,89.44,65.56Z"/><path class="cls-10" d="M83.35,47.08A5.5,5.5,0,0,1,90,47.7c2.07,2.11,1.84,5.71-.52,8a6,6,0,0,1-6.58,1.44,25.54,25.54,0,0,1,.12-8.72C83.14,48,83.23,47.54,83.35,47.08Z"/><path class="cls-11" d="M84.4,54.67A4.15,4.15,0,0,1,83,50.12a4.21,4.21,0,0,1,1.43-2,4.19,4.19,0,0,1,6.39,1.63A4.2,4.2,0,0,1,90,54.38a4,4,0,0,1-5.56.29Z"/><path class="cls-7" d="M103.66,78.44A25.73,25.73,0,0,1,113,27.85l-3.23,17.42A8,8,0,0,0,106.89,61Z"/><path class="cls-8" d="M103.66,78.44A25.73,25.73,0,0,1,113,27.85l-3.23,17.42A8,8,0,0,0,106.89,61Z"/><path class="cls-9" d="M105.34,69.37c-.44-3.37-.73-5.68-.91-4.7-.26,1.38-3.06,3.31-2.66,1.14s-.94-3.88-3.46-2.28c-16.53,10.56-1.82-2.6-.49-4,2.53-2.59,1.42-3.2-2.17-3.66s-5-2.57-1.61-2.34,6.27-1.9,3.57-3.83-10.09-9.42-6.72-7.78,9.81,6.51,7.17,3.17-6.24-9.32-3.57-7.2,7.6,8.56,7.37,6.48.27-3.63,1.75-1.72,3.36,3.89,3.68,1.09,4.27-9.82,3.69-5.64c-.1.75-.19,1.5-.25,2.21l-.92,4.94a8,8,0,0,0-9.29,9.54,7.72,7.72,0,0,0,1.23,2.87A8,8,0,0,0,106.89,61Z"/><path class="cls-12" d="M102.69,28.06a1.73,1.73,0,0,1-.16.78,1.64,1.64,0,0,1-.51.6c-.33.14-.93-.24-1.45-.81C101.23,28.44,102,28.22,102.69,28.06Z"/><path class="cls-1" d="M102,78.09c1.75-2.74,3-7.57,1.13-5.49a13.8,13.8,0,0,0-2.76,5A16,16,0,0,0,102,78.09Z"/><path class="cls-1" d="M97.7,58c-3.41,1.46-10.58,4.17-13.26,4.64-.12-.3-.23-.6-.33-.89l0-.05C87.51,59.08,101.34,54.91,97.7,58Z"/><path class="cls-1" d="M106,41.9c.42-3.39,0-13.27-.9-10.58S104.37,46.29,106,41.9Z"/><path class="cls-1" d="M94.15,47.44c2.31,1.86-6-.5-9.18-3.33a2.63,2.63,0,0,1-.49-.56l.15-.38C86,42.88,93.31,45.83,94.15,47.44Z"/><path class="cls-1" d="M95.23,33.78c2.8,3.58,7.92,9,3.8,7S92.23,31.19,95.23,33.78Z"/><path class="cls-1" d="M94.23,50.13c-4,.49-15.34-2-8.88-1.65S97.46,50.52,94.23,50.13Z"/><path class="cls-1" d="M93.54,73.87c1.35-1.79,9.53-10.68,5.63-8.34-2.93,1.75-6.08,6.56-6.39,8.11.17.13.34.26.52.38Z"/><path class="cls-1" d="M88.54,69.56c1.52-1.77,1.87-3.24-.17-2a9,9,0,0,0-.86.62C87.83,68.68,88.23,69.13,88.54,69.56Z"/><path class="cls-4" d="M164.11,78.16c.59.13,1.18,1.82.87,3a4.21,4.21,0,0,1-.86,1.6l-1.46.42a3.84,3.84,0,0,1-.52-2.73C162.32,79.56,163.43,78,164.11,78.16Z"/><path class="cls-4" d="M145.92,76.76c.56-.2,2,.92,2.31,2.06a4.46,4.46,0,0,1,.16,1.58,8.38,8.38,0,0,0-2.81-.39c0-.1-.09-.19-.13-.29C145.14,78.89,145.23,77,145.92,76.76Z"/><path class="cls-4" d="M131.49,85.52c.39-.45,2.16-.19,3,.62s1.48,2.2,1.06,2.8-2.1.12-3-.62C131.89,87.76,131,86.06,131.49,85.52Z"/><path class="cls-5" d="M138.23,90.24a2.78,2.78,0,0,0-.11-.46c-.74-.61-1.15-.56-.9.75Z"/><path class="cls-6" d="M129.42,84.71c-.19.18-1,0-1.4-.41s-.64-1-.43-1.28,1,0,1.37.41S129.63,84.49,129.42,84.71Z"/><path class="cls-7" d="M170.6,80.87l-17,4.92a8,8,0,0,0-15.37,4.45l-17,4.92a25.78,25.78,0,0,1,2.18-19.56,25.72,25.72,0,0,1,47.24,5.27Z"/><path class="cls-8" d="M170.6,80.87l-17,4.92a8,8,0,0,0-15.37,4.45l-17,4.92a25.78,25.78,0,0,1,2.18-19.56,25.72,25.72,0,0,1,47.24,5.27Z"/><path class="cls-9" d="M156.74,82.94c2.51-.72,13.3-5.31,8.79-2.12-1.32.93-2.63,1.82-3.8,2.61l-8.15,2.36a8.09,8.09,0,0,0-1.87-3.31,8,8,0,0,0-10.48-1,4.43,4.43,0,0,0-.13-.49c-1.22-4.24-1.73-15.38-.44-10.94S145,82.12,145,79.39s3-7.12,3.69-11.09,2.91-2.93,2.18,1S148,81,151.63,79.74s9.28-3.31,6.55-1.89c-.11.06-4.31,5.84-1.47,5Zm-23.37,8.69c3.06-1.19,5.19-2.44,2.5-2.86-3.29-.52-5.91-1.64-2.41-1.81a16.25,16.25,0,0,0,4.6-.67,8.12,8.12,0,0,0,.13,3.95l-4.83,1.39Zm5-6.37a8.1,8.1,0,0,1,1.32-2.32c-1.18-.45-2.88-1.38-4.84-2-4.39-1.44-1.4,1.66,2.27,3.53A5.08,5.08,0,0,1,138.37,85.26Z"/><path class="cls-1" d="M161,68.76c-3.25,3.23-7.42,9-5.13,7.54S163.91,67.29,161,68.76Z"/><path class="cls-1" d="M133.79,67.85c3.48,3.38,6.79,11.2,3.25,9.09S131,65.52,133.79,67.85Z"/><path class="cls-1" d="M132.35,83.1c-2.68-1.31-12.37-6.66-9.16-2.78S136.08,85.16,132.35,83.1Z"/><path class="cls-1" d="M159.61,74.8a22,22,0,0,1,5.78-3.57l.25.29a3.59,3.59,0,0,1-.39.39C162.94,74.05,157.11,77,159.61,74.8Z"/><path class="cls-1" d="M146.06,70.57c.39-2-.77-6.21-1.64-8.24a3.78,3.78,0,0,0-.82.06,2,2,0,0,0,.1.72C144.65,69.31,147.42,74.56,146.06,70.57Z"/><path class="cls-1" d="M125.34,88.44c-3.45.37-5.4,3-1.73,3.42S129.61,88.07,125.34,88.44Z"/><path class="cls-1" d="M152.23,75.26c1-2.18,8.12-12.37,4.41-8.58S149.84,79.3,152.23,75.26Z"/><path class="cls-4" d="M120.37,125.65a1.48,1.48,0,0,1,.64.22,1.51,1.51,0,0,1,.47.47.53.53,0,0,1,0,.39Z"/><path class="cls-5" d="M133.11,131.06c2.53-1.3,4.54-1.59,3.45.44A8.26,8.26,0,0,0,133.11,131.06Z"/><path class="cls-5" d="M154.76,130.94a50.42,50.42,0,0,0,4.79,8.35,22.66,22.66,0,0,0-.11-2.73C157.54,132.6,154.23,127.44,154.76,130.94Z"/><path class="cls-5" d="M142.9,136c-.25.56-.64,1.4-1.09,2.37a8,8,0,0,1-2.3,6.35l.75.75.23-.2C144.23,141.86,144.8,132.15,142.9,136Z"/><path class="cls-5" d="M129.81,122.78c-3.49-.53-13.43,3.85-7.36,2.67S133.74,121.25,129.81,122.78Z"/><path class="cls-5" d="M148.55,142.75c.51,3.42,3.24,5.26,3.49,1.58S148,138.5,148.55,142.75Z"/><path class="cls-5" d="M134.23,116.44c-.86-.37-2.93-1.57-4.93-2.72-.53.09-1,.2-1.57.33C132,116.69,137.7,118.28,134.23,116.44Z"/><path class="cls-10" d="M152.94,121.82a5.48,5.48,0,0,1-4.28,5.17c-2.91.53-5.75-1.69-6.35-5a6,6,0,0,1,2.53-6.25,25.71,25.71,0,0,1,7.13,5C152.3,121.13,152.63,121.44,152.94,121.82Z"/><path class="cls-11" d="M146.08,118.44a4.18,4.18,0,0,1,4.81,6.18,4.1,4.1,0,0,1-1.87,1.65,4.19,4.19,0,0,1-2.47.3,4.25,4.25,0,0,1-2.21-1.17,4.15,4.15,0,0,1-1.15-2.21,3.93,3.93,0,0,1,2.89-4.75Z"/><path class="cls-7" d="M115.59,120.9a25.72,25.72,0,0,1,36.48,36.27l-12.56-12.49a8,8,0,0,0-11.36-11.24Z"/><path class="cls-8" d="M115.59,120.9a25.72,25.72,0,0,1,36.48,36.27l-12.56-12.49a8,8,0,0,0-11.36-11.24Z"/><path class="cls-9" d="M122.14,127.44c3,1.53,5.1,2.6,4.39,1.9-1-1-1-4.4.56-2.84s3.74,1.41,3.83-1.57c.6-19.61,3.17,0,3.55,1.83.72,3.55,1.86,3,4.26.27s5-2.71,2.84,0-2,6.25,1.15,5.11,13.47-3,10.21-1.16-10.91,4.43-6.66,4.13,11.21.11,8,1.11-11.34,1.45-9.5,2.44,2.85,2.26.44,2.41-5.11.58-3,2.42,5.7,9.07,2.57,6.24c-.56-.51-1.12-1-1.68-1.46l-3.56-3.55a8,8,0,0,0-11.39-11.28Z"/><path class="cls-12" d="M157.75,148.52c-.5-.43-.84-.92-.76-1.33s.72-.64,1.48-.75C158.23,147.14,158,147.83,157.75,148.52Z"/><path class="cls-1" d="M116.8,119.76c1.28,3,4.58,6.72,3.9,4a13.74,13.74,0,0,0-2.59-5.11C117.66,119,117.23,119.38,116.8,119.76Z"/><path class="cls-1" d="M135.82,127.5c.71-3.64,2.52-11.09,3.65-13.56l.92.22v.07C140.69,118.44,136.33,132.26,135.82,127.5Z"/><path class="cls-1" d="M144.45,143.44c2.56,2.26,11,7.49,9.24,5.22S141.75,139.62,144.45,143.44Z"/><path class="cls-1" d="M146.54,130.53c-2.83.86,3.82-4.7,7.93-5.7a2.37,2.37,0,0,1,.75-.09c.07.11.15.22.22.34C154.93,126.36,148.35,130.75,146.54,130.53Z"/><path class="cls-1" d="M157.23,139.15c-4.54.3-11.91,1.46-7.95-.83S161,138.15,157.23,139.15Z"/><path class="cls-1" d="M144.23,129.12c1.83-3.56,10.33-11.53,6.37-6.41S142.15,131.53,144.23,129.12Z"/><path class="cls-1" d="M125.08,115.12c.71,2.13,3.44,13.9,3.71,9.36.2-3.41-2-8.72-3.1-9.85l-.6.21A1.34,1.34,0,0,0,125.08,115.12Z"/><path class="cls-1" d="M131.46,113.44c.6,2.26,1.61,3.38,1.7,1v-1.07A9.52,9.52,0,0,0,131.46,113.44Z"/><path class="cls-13" d="M117.13,93.94c-18.3-26.64-41.36,1.11-21.24,17.11,2.42,1.93,5.74.67,3.6-2.24C88,93.25,101.75,86.6,109.87,99.07,115.06,107,121.39,100.11,117.13,93.94Z"/><path class="cls-14" d="M117,93.78A35,35,0,0,0,112.12,88l-4.82,6.82v1a19.14,19.14,0,0,1,2,2.4l7.68-4.5Zm-9.73-7.62V84.57c.15.08.3.15.44.24Zm0,8.68-.44.62.44.42v-1Zm0-10.27v1.59l-2.53,7.75A9,9,0,0,0,101,92.59L98.6,83.06a13.63,13.63,0,0,1,8.7,1.52Zm-8.7,24.91v-2a12.2,12.2,0,0,0,.73,1l-.73.92Zm0-16.66a4.77,4.77,0,0,0-2.77,2.31l-1.45-.7V86.22l4.22,6.57Zm0,14.7v2l-1.73,2.16a4.39,4.39,0,0,1-1-.59c-.49-.44-1-.89-1.49-1.36v-2.82l2.75-1.86c.42.79.92,1.61,1.49,2.47Zm-4.22-4V98.6l.74-.09a12.9,12.9,0,0,0,.91,4.21Zm0-17.24v8.15l-5.51-2.58a13.66,13.66,0,0,1,4.81-6.72l.7,1.09Zm0,12.32v4.92l-3.7,1.78a17,17,0,0,1-2.32-6l6-.72Zm0,8.34v2.82a20.39,20.39,0,0,1-1.65-1.7Z"/><path class="cls-13" d="M127.63,60.86C159,53.08,141.12,21.75,119.07,35c-2.65,1.59-2.64,5.15.83,4.16,18.61-5.29,20,9.91,5.48,13.14C116.13,54.32,120.37,62.66,127.63,60.86Z"/><path class="cls-14" d="M133.48,58.91q.77-.33,1.47-.69l-1.47-2.15Zm0-8.46V47.86a7.68,7.68,0,0,0,1.09-1.66l9.77,1.11a13.71,13.71,0,0,1-4.85,7.95l-6-4.81ZM144.13,42a13.58,13.58,0,0,0-4.59-6.87L134,40.48a4.73,4.73,0,0,1,1.2,3.41ZM127.86,60.81a36.54,36.54,0,0,0,5.66-1.9V56.07l-3.66-5.38A17.76,17.76,0,0,1,126.35,52Zm5.66-13v2.57l-1.47-1.17a10.38,10.38,0,0,0,1.47-1.42ZM132.77,32a17.27,17.27,0,0,0-6.41.08L126.9,38a12.8,12.8,0,0,1,4.26.63Zm-9.72,1a24.74,24.74,0,0,0-3.94,1.92,5,5,0,0,0-.89.7l2,3.38a28.13,28.13,0,0,1,4.06-.84Z"/><path class="cls-13" d="M175,110.84c9.84-30.79-26.22-32-26.54-6.31,0,3.1,3,5,4,1.48,5.25-18.62,18.94-11.83,14.06,2.23C163.36,117.19,172.68,118,175,110.84Z"/><path class="cls-14" d="M175,110.64a34.62,34.62,0,0,0,1.54-7.41l-9.11.41a17,17,0,0,1-.63,3.46v.26Zm-8.2-12V96.36l5.38-6.85a13.77,13.77,0,0,1,4.21,8.3l-9,3.23a10.51,10.51,0,0,0-.58-2.4Zm0-9.75V86.73l.69.18Zm0,18.22-.07.23h.07v-.23Zm0-20.37v2.15l-2.34,6.61a4.92,4.92,0,0,0-1.69-.74,4.75,4.75,0,0,0-1.84,0l-1.69-7.5A13.71,13.71,0,0,1,166.82,86.74Zm0,9.62v2.28a8.32,8.32,0,0,0-.7-1.4Zm-13.73-5a17.06,17.06,0,0,0-3.3,5.5l5.32,2.65a12.87,12.87,0,0,1,2.76-3.3l-4.74-4.85Zm-4.23,8.81a23.7,23.7,0,0,0-.44,4.36,4.78,4.78,0,0,0,.13,1.13h3.94a30.26,30.26,0,0,1,1.41-3.9Z"/><path class="cls-13" d="M25.42,105.37C47.56,128.92,66.13,98,43.81,85.23,41.12,83.7,38,85.45,40.59,88c13.73,13.63,1.15,22.3-8.78,11.22C25.49,92.15,20.29,99.93,25.42,105.37Z"/><path class="cls-14" d="M46.19,106.22v-5l.12-.32,7.38,2.16A13.58,13.58,0,0,1,50,110.43l-3.76-4.26Zm0-10V92.63l3.67-2.52a17.23,17.23,0,0,1,3.2,5.55L46.5,97.5A11.36,11.36,0,0,0,46.19,96.22Zm0-7.39v-2.1a12.69,12.69,0,0,1,1.22,1Zm0-2.1v2.1l-1.52,1.42V85.71c.53.33,1,.67,1.52,1Zm0,5.9v3.59A15.72,15.72,0,0,0,45,93.47Zm0,8.6v5l-1.52-1.71v-1.31a4.57,4.57,0,0,0,1.52-1.93ZM44.67,113.5v-2l.75,1.77a6.31,6.31,0,0,1-.75.27Zm-19.11-8a35,35,0,0,0,5.74,5l4.06-8.17a16.6,16.6,0,0,1-2.89-2.4l-6.91,5.62ZM44.67,85.73v4.54l-1.14,1.06a28.91,28.91,0,0,0-2.72-3.13c.62-1.11,1.31-2.31,2-3.42a5,5,0,0,1,1,.43C44.1,85.38,44.39,85.55,44.67,85.73Zm0,17.45v1.31l-.75-.85A3.59,3.59,0,0,0,44.67,103.18Zm0,8.34-3.07-7.29a9,9,0,0,1-3.94-.73L36.13,113a14,14,0,0,0,8.56.57Z"/><path class="cls-13" d="M77.22,141c-31.77-6-28.53,30-3,27.11,3.08-.34,4.54-3.58,1-4.13-19.09-2.91-14.09-17.33.47-14.23C85,151.7,84.57,142.35,77.22,141Z"/><path class="cls-14" d="M77,140.93a35.42,35.42,0,0,0-7.55-.61l1.53,9a16.82,16.82,0,0,1,3.75.24L77,140.94ZM59.84,158v-5.47l3.44.75a4.75,4.75,0,0,0-.33,3.6Zm0-9.56V143a15.58,15.58,0,0,1,4.27-1.9l4.31,8.54a9.2,9.2,0,0,0-3.61,1.75l-5-3Zm.76,16.66a17.32,17.32,0,0,0,5.86,2.59l2-5.6a12.5,12.5,0,0,1-3.62-2.34l-4.21,5.35Zm9.26,3.11a24.64,24.64,0,0,0,4.38-.11,4.52,4.52,0,0,0,1.1-.26c-.14-1.28-.29-2.66-.44-3.92a29,29,0,0,1-4-.92ZM59.86,143v5.39l-3.45-2.07a12.64,12.64,0,0,1,3.45-3.31Zm0,9.47V158l-4.14,1.45a13.51,13.51,0,0,1-1.32-8.15Z"/><path class="cls-13" d="M75,62.88C96.29,38.59,63.73,23.06,53.13,46.49c-1.27,2.82.77,5.73,3.06,2.94,12.26-15,22.09-3.27,12,7.67C61.78,64.06,70,68.5,75,62.88Z"/><path class="cls-14" d="M75.13,62.72a34.38,34.38,0,0,0,4.38-6.18l-4.64-1.78v7.67l.26.26Zm-.26-11.66V45.51L81,42.22a13.69,13.69,0,0,1,.54,9.29Zm0-10V36.18A13.64,13.64,0,0,1,77.75,38Zm0,13.71L71,53.29a17.29,17.29,0,0,1-2.11,3.1l6,6.08v-7.7Zm0-18.59v4.88l-3.33,3.57a4.6,4.6,0,0,0-1.25-1.35,5,5,0,0,0-1.68-.77L70.06,35A14.1,14.1,0,0,1,74.87,36.18Zm0,9.34v5.55L72,50.88a9.17,9.17,0,0,0,.35-4l2.52-1.37ZM58.42,47.05V45.43l.9.79c-.3.27-.6.55-.9.86Zm0-6V39.12a16.87,16.87,0,0,1,4.33-2.86l2.38,6.37a13,13,0,0,0-3.86,1.92Zm0-1.93v1.93L57.52,40C57.82,39.68,58.12,39.39,58.42,39.12Zm0,6.25V47c-.64.64-1.3,1.35-2,2.15l-3.59-1.62a4.64,4.64,0,0,1,.33-1.08,24.39,24.39,0,0,1,2.15-3.83Z"/><path class="cls-13" d="M145.4,148.28c-18.27-26.65-41.35,1.15-21.27,17.15,2.42,1.93,5.75.67,3.6-2.23-11.46-15.62,2.29-22.27,10.4-9.77C143.32,161.34,149.64,154.43,145.4,148.28Z"/><path class="cls-14" d="M145.29,148.11a35.58,35.58,0,0,0-4.92-5.76l-4.82,6.82v1a17.56,17.56,0,0,1,2,2.4l7.69-4.5Zm-9.74-7.62V138.9l.45.24Zm0,8.68-.44.63.44.41v-1Zm0-10.27v1.59L133,148.24a9.34,9.34,0,0,0-3.79-1.32l-2.39-9.49a13.7,13.7,0,0,1,8.7,1.52Zm-8.7,24.91v-2a12.2,12.2,0,0,0,.73,1l-.73.92Zm0-16.66a4.73,4.73,0,0,0-2.72,2.28l-1.45-.68v-8.21l4.22,6.57Zm0,14.7v2L125.13,166a3.88,3.88,0,0,1-1-.59c-.54-.43-1-.87-1.53-1.31v-2.83l2.74-1.86c.45.85,1,1.67,1.48,2.47Zm-4.22-4v-4.92l.74-.09a12.9,12.9,0,0,0,.91,4.21Zm0-17.24v8.21l-5.5-2.61A13.55,13.55,0,0,1,122,139.5l.69,1.08Zm0,12.32v4.92l-3.7,1.78a17.23,17.23,0,0,1-2.32-6l6-.73Zm0,8.34v2.83c-.59-.56-1.14-1.13-1.65-1.7Z"/></svg>